<svg width="180" height="26" viewBox="0 0 180 26" fill="none" xmlns="http://www.w3.org/2000/svg">
<path d="M177.372 19V11.9394C177.372 11.2799 177.356 10.7276 177.323 10.2825C177.298 9.83731 177.232 9.38392 177.125 8.92228C177.026 8.46064 176.882 8.09793 176.692 7.83414C176.511 7.5621 176.255 7.34365 175.926 7.17878C175.596 7.00567 175.2 6.91911 174.738 6.91911C173.832 6.91911 173.057 7.16229 172.414 7.64866C171.779 8.13503 171.326 8.81924 171.054 9.70129C170.979 10.2948 170.942 10.9296 170.942 11.6055V19H168.877V11.7168C168.877 11.1068 168.857 10.5792 168.816 10.1341C168.774 9.68068 168.696 9.24378 168.581 8.82336C168.465 8.3947 168.309 8.04847 168.111 7.78468C167.921 7.52089 167.666 7.31068 167.344 7.15405C167.023 6.99742 166.639 6.91911 166.194 6.91911C165.205 6.91911 164.372 7.17054 163.696 7.67339C163.029 8.17624 162.579 8.84397 162.348 9.67656C162.274 10.3113 162.237 10.9996 162.237 11.7416V19H160.172C160.156 10.5174 160.147 5.99584 160.147 5.43528H161.879L162.138 7.37662C162.55 6.75012 163.136 6.22253 163.894 5.79387C164.653 5.36521 165.514 5.15088 166.478 5.15088C166.981 5.15088 167.443 5.20446 167.863 5.31163C168.292 5.41055 168.647 5.53832 168.927 5.69495C169.215 5.85158 169.471 6.04118 169.693 6.26375C169.916 6.47808 170.089 6.69241 170.213 6.90674C170.336 7.11283 170.439 7.33129 170.522 7.5621C171.511 5.95462 173.024 5.15088 175.06 5.15088C176.569 5.15088 177.673 5.58366 178.374 6.44923C179.083 7.30655 179.437 8.58017 179.437 10.2701V19H177.372Z" fill="white"/>
<path d="M146.793 12.2485C146.793 13.856 147.147 15.1461 147.856 16.1189C148.574 17.0833 149.616 17.5656 150.985 17.5656C152.337 17.5656 153.355 17.0833 154.039 16.1189C154.731 15.1544 155.078 13.856 155.078 12.2238C155.078 10.5669 154.736 9.26439 154.051 8.31638C153.375 7.36014 152.341 6.88201 150.948 6.88201C149.596 6.88201 148.565 7.36838 147.856 8.34111C147.147 9.31385 146.793 10.6163 146.793 12.2485ZM157.217 12.2114C157.217 14.3135 156.656 16.0199 155.535 17.3307C154.414 18.6331 152.864 19.2844 150.886 19.2844C148.982 19.2844 147.465 18.6249 146.335 17.3059C145.214 15.987 144.654 14.2929 144.654 12.2238C144.654 10.1135 145.218 8.40706 146.348 7.10459C147.477 5.80212 149.027 5.15088 150.997 5.15088C152.934 5.15088 154.455 5.80624 155.56 7.11695C156.665 8.41943 157.217 10.1176 157.217 12.2114Z" fill="white"/>
<path d="M139.052 19.2844C137.057 19.2844 135.495 18.6372 134.366 17.343C133.245 16.0488 132.684 14.3547 132.684 12.2609C132.692 10.1506 133.265 8.44004 134.403 7.12932C135.549 5.81036 137.115 5.15088 139.102 5.15088C139.802 5.15088 140.478 5.23744 141.13 5.41055C141.789 5.58366 142.308 5.81036 142.688 6.09064L142.119 7.69812C141.154 7.17878 140.136 6.91911 139.065 6.91911C137.754 6.91911 136.715 7.39723 135.949 8.35348C135.19 9.30973 134.811 10.6163 134.811 12.2733C134.811 13.889 135.186 15.1709 135.936 16.1189C136.695 17.0586 137.741 17.5285 139.077 17.5285C140.14 17.5285 141.228 17.24 142.341 16.6629L142.601 18.3075C141.702 18.9587 140.52 19.2844 139.052 19.2844Z" fill="white"/>
<path d="M128.666 19.1483C128.154 19.1483 127.751 18.9876 127.454 18.6661C127.165 18.3364 127.021 17.953 127.021 17.5161C127.021 17.071 127.165 16.6877 127.454 16.3662C127.742 16.0447 128.146 15.8839 128.666 15.8839C129.185 15.8839 129.589 16.0447 129.877 16.3662C130.166 16.6877 130.31 17.071 130.31 17.5161C130.31 17.9613 130.166 18.3446 129.877 18.6661C129.589 18.9876 129.185 19.1483 128.666 19.1483Z" fill="white"/>
<path d="M123.806 19.2473C122.487 19.2473 121.552 18.8928 120.999 18.1839C120.455 17.475 120.183 16.2425 120.183 14.4867V0.16772L122.236 0.0440674V13.6706C122.236 14.2311 122.24 14.6804 122.248 15.0184C122.265 15.3564 122.298 15.6902 122.347 16.02C122.396 16.3415 122.462 16.5847 122.545 16.7495C122.627 16.9144 122.747 17.0669 122.903 17.207C123.06 17.3389 123.246 17.4296 123.46 17.4791C123.682 17.5203 123.955 17.5409 124.276 17.5409C124.54 17.5409 125.059 17.4914 125.834 17.3925L125.945 19.0371C125.096 19.1772 124.383 19.2473 123.806 19.2473Z" fill="white"/>
<path d="M116.263 5.43532V19H114.186V5.43532H116.263ZM116.263 0.501587V2.94991H114.186V0.501587H116.263Z" fill="white"/>
<path d="M104.17 17.6151C105.151 17.6151 106.012 17.3471 106.754 16.8113C107.504 16.2672 107.987 15.5377 108.201 14.6227V12.3351C108.16 12.3351 107.908 12.3557 107.447 12.3969C106.993 12.4381 106.697 12.4629 106.556 12.4711C104.768 12.6277 103.519 12.9204 102.81 13.349C102.109 13.7777 101.759 14.466 101.759 15.414C101.759 16.1395 101.973 16.6877 102.402 17.0586C102.83 17.4296 103.42 17.6151 104.17 17.6151ZM108.659 19C108.535 18.4724 108.415 17.9036 108.3 17.2936C107.55 18.0437 106.845 18.5631 106.186 18.8516C105.526 19.1401 104.751 19.2844 103.861 19.2844C102.591 19.2844 101.569 18.9546 100.794 18.2951C100.028 17.6274 99.6443 16.6712 99.6443 15.4264C99.6443 14.0415 100.168 13.0152 101.215 12.3475C102.27 11.6797 103.787 11.2634 105.765 11.0986C106.037 11.0738 106.445 11.0409 106.989 10.9996C107.542 10.9502 107.954 10.9131 108.226 10.8884V9.68893C108.226 8.73268 108.003 8.02374 107.558 7.5621C107.113 7.10047 106.412 6.86965 105.456 6.86965C104.121 6.86965 102.773 7.19939 101.413 7.85887C101.371 7.75995 101.264 7.47555 101.091 7.00567C100.918 6.52754 100.827 6.28024 100.819 6.26375C101.421 5.92577 102.134 5.65785 102.958 5.46001C103.791 5.25392 104.636 5.15088 105.493 5.15088C107.183 5.15088 108.399 5.52184 109.141 6.26375C109.891 6.99742 110.266 8.25043 110.266 10.0228V19H108.659Z" fill="white"/>
<path d="M95.539 19V11.9394C95.539 11.2799 95.5225 10.7276 95.4895 10.2825C95.4648 9.83731 95.3989 9.38392 95.2917 8.92228C95.1928 8.46064 95.0485 8.09793 94.8589 7.83414C94.6776 7.5621 94.422 7.34365 94.0923 7.17878C93.7625 7.00567 93.3668 6.91911 92.9052 6.91911C91.9984 6.91911 91.2235 7.16229 90.5805 7.64866C89.9458 8.13503 89.4924 8.81924 89.2204 9.70129C89.1462 10.2948 89.1091 10.9296 89.1091 11.6055V19H87.0441V11.7168C87.0441 11.1068 87.0235 10.5792 86.9822 10.1341C86.941 9.68068 86.8627 9.24378 86.7473 8.82336C86.6319 8.3947 86.4753 8.04847 86.2774 7.78468C86.0878 7.52089 85.8323 7.31068 85.5108 7.15405C85.1893 6.99742 84.806 6.91911 84.3608 6.91911C83.3716 6.91911 82.539 7.17054 81.863 7.67339C81.1953 8.17624 80.746 8.84397 80.5152 9.67656C80.441 10.3113 80.4039 10.9996 80.4039 11.7416V19H78.3389C78.3224 10.5174 78.3142 5.99584 78.3142 5.43528H80.0453L80.305 7.37662C80.7172 6.75012 81.3025 6.22253 82.0609 5.79387C82.8193 5.36521 83.6807 5.15088 84.6452 5.15088C85.1481 5.15088 85.6097 5.20446 86.0301 5.31163C86.4588 5.41055 86.8133 5.53832 87.0935 5.69495C87.3821 5.85158 87.6376 6.04118 87.8602 6.26375C88.0828 6.47808 88.2559 6.69241 88.3795 6.90674C88.5032 7.11283 88.6062 7.33129 88.6887 7.5621C89.6779 5.95462 91.1906 5.15088 93.2267 5.15088C94.7353 5.15088 95.8399 5.58366 96.5406 6.44923C97.2495 7.30655 97.604 8.58017 97.604 10.2701V19H95.539Z" fill="white"/>
<path d="M68.8919 17.2317C69.5926 17.2317 70.2068 17.1081 70.7344 16.8608C71.2619 16.6135 71.6741 16.2714 71.9709 15.8345C72.2677 15.3975 72.4861 14.9112 72.6262 14.3754C72.7746 13.8395 72.8488 13.2542 72.8488 12.6195V11.6179C72.8488 10.9584 72.7746 10.3525 72.6262 9.80021C72.4779 9.23966 72.247 8.74092 71.9338 8.30402C71.6288 7.85887 71.2166 7.51264 70.6973 7.26534C70.1862 7.01803 69.5885 6.89438 68.9043 6.89438C68.3355 6.89438 67.8162 7.00154 67.3463 7.21588C66.8846 7.43021 66.5013 7.71461 66.1963 8.06908C65.8996 8.41531 65.644 8.82336 65.4297 9.29324C65.2236 9.75487 65.0752 10.2248 64.9845 10.7029C64.8938 11.181 64.8485 11.6632 64.8485 12.1496C64.8485 12.6277 64.898 13.1017 64.9969 13.5716C65.0958 14.0415 65.2524 14.499 65.4668 14.9442C65.6811 15.3893 65.9408 15.7809 66.2458 16.1189C66.5508 16.4486 66.93 16.7165 67.3834 16.9226C67.845 17.1287 68.3479 17.2317 68.8919 17.2317ZM65.7141 25.2073L65.5286 23.3402H68.0511C68.7518 23.3402 69.3618 23.2907 69.8812 23.1918C70.4005 23.0929 70.8333 22.928 71.1795 22.6972C71.5257 22.4746 71.806 22.2232 72.0203 21.9429C72.2347 21.6709 72.3954 21.3123 72.5026 20.8671C72.618 20.4302 72.6922 19.9933 72.7252 19.5564C72.7664 19.1277 72.787 18.6002 72.787 17.9736V16.7742C72.2924 17.4832 71.7195 18.0313 71.0682 18.4188C70.417 18.798 69.5885 18.9876 68.5828 18.9876C67.8079 18.9876 67.0907 18.8557 66.4313 18.5919C65.78 18.3199 65.2277 17.9613 64.7743 17.5161C64.3292 17.071 63.9458 16.5558 63.6243 15.9705C63.3111 15.3852 63.0803 14.7793 62.9319 14.1528C62.7918 13.5263 62.7217 12.8956 62.7217 12.2609C62.7217 11.2717 62.8412 10.3566 63.0803 9.51581C63.3276 8.67497 63.6903 7.92482 64.1684 7.26534C64.6465 6.60586 65.273 6.09064 66.0479 5.71968C66.8311 5.34048 67.7255 5.15088 68.7312 5.15088C69.6215 5.15088 70.3964 5.32399 71.0559 5.67022C71.7236 6.0082 72.3212 6.53167 72.8488 7.24061V5.43528H74.8644V18.0231C74.8644 18.6002 74.8479 19.103 74.8149 19.5317C74.7902 19.9686 74.7201 20.4508 74.6047 20.9784C74.4975 21.506 74.3491 21.9594 74.1595 22.3386C73.9699 22.7178 73.702 23.097 73.3558 23.4762C73.0178 23.8636 72.6098 24.1728 72.1316 24.4036C71.6618 24.6426 71.0765 24.8364 70.3758 24.9847C69.6751 25.1331 68.8837 25.2073 68.0016 25.2073H65.7141Z" fill="white"/>
<path d="M60.4836 9.30562C60.4836 10.2701 60.3352 11.1687 60.0384 12.0012C59.7499 12.8338 59.3625 13.5222 58.8761 14.0662C58.398 14.6103 57.8539 15.0349 57.2439 15.3399C56.6339 15.6449 56.0115 15.7974 55.3767 15.7974C54.709 15.7974 54.1526 15.6119 53.7074 15.2409C53.2623 14.87 52.9944 14.3506 52.9037 13.6829C52.5327 14.2105 52.067 14.6763 51.5064 15.0802C50.9458 15.4841 50.307 15.6861 49.5898 15.6861C48.5181 15.6861 47.6649 15.3028 47.0302 14.5361C46.3954 13.7612 46.0781 12.7102 46.0781 11.383C46.0781 9.67658 46.5356 8.25458 47.4506 7.11697C48.3739 5.97937 49.6392 5.41057 51.2467 5.41057C52.4256 5.41057 53.6786 5.63727 55.0058 6.09066C54.9481 6.50283 54.8574 7.10049 54.7337 7.88362C54.6183 8.65851 54.5276 9.26853 54.4617 9.71368C54.404 10.1588 54.3463 10.6534 54.2886 11.1975C54.2309 11.7416 54.202 12.1867 54.202 12.533C54.202 13.7035 54.6595 14.2888 55.5746 14.2888C56.4072 14.2888 57.1614 13.7942 57.8374 12.805C58.5216 11.8075 58.8637 10.6122 58.8637 9.21906C58.8637 7.03454 58.1383 5.29928 56.6874 4.0133C55.2448 2.72731 53.3736 2.08432 51.0736 2.08432C49.4167 2.08432 47.9287 2.46764 46.6098 3.23428C45.299 4.00093 44.2769 5.06022 43.5432 6.41215C42.8178 7.76409 42.455 9.28501 42.455 10.9749C42.455 13.4974 43.1722 15.4759 44.6066 16.9103C46.0492 18.3446 47.9741 19.0618 50.3812 19.0618C52.4338 19.0618 54.2721 18.596 55.8961 17.6645L56.3288 19.0371C54.7626 20.0922 52.7759 20.6198 50.3688 20.6198C47.4836 20.6198 45.1672 19.7584 43.4195 18.0355C41.6719 16.3126 40.7981 13.9756 40.7981 11.0244C40.7981 9.55705 41.0536 8.17626 41.5647 6.88203C42.0841 5.5878 42.793 4.47905 43.6916 3.55578C44.5983 2.62427 45.6989 1.89059 46.9931 1.35477C48.2873 0.818939 49.6846 0.551025 51.1849 0.551025C52.949 0.551025 54.5318 0.905496 55.9332 1.61444C57.3346 2.32338 58.4433 3.34557 59.2594 4.68102C60.0755 6.01647 60.4836 7.558 60.4836 9.30562ZM47.8339 11.4695C47.8339 12.2856 47.9988 12.9286 48.3285 13.3985C48.6665 13.8684 49.1652 14.1033 49.8247 14.1033C50.6985 14.1033 51.3621 13.7447 51.8155 13.0276C52.2689 12.3021 52.5781 11.2841 52.7429 9.97335C52.8171 9.38806 52.9243 8.4483 53.0644 7.15407C52.5945 6.9892 51.9928 6.90676 51.2591 6.90676C50.5007 6.90676 49.8577 7.11697 49.3301 7.53739C48.8108 7.95781 48.4316 8.506 48.1925 9.18197C47.9535 9.84969 47.8339 10.6122 47.8339 11.4695Z" fill="white"/>
<path d="M34.9616 19.2844C32.9667 19.2844 31.4045 18.6372 30.2752 17.343C29.1541 16.0488 28.5935 14.3547 28.5935 12.2609C28.6017 10.1506 29.1747 8.44004 30.3123 7.12932C31.4581 5.81036 33.0244 5.15088 35.0111 5.15088C35.7118 5.15088 36.3877 5.23744 37.039 5.41055C37.6985 5.58366 38.2178 5.81036 38.597 6.09064L38.0282 7.69812C37.0637 7.17878 36.0456 6.91911 34.974 6.91911C33.6633 6.91911 32.6246 7.39723 31.8579 8.35348C31.0995 9.30973 30.7203 10.6163 30.7203 12.2733C30.7203 13.889 31.0954 15.1709 31.8456 16.1189C32.604 17.0586 33.6509 17.5285 34.9863 17.5285C36.0498 17.5285 37.1379 17.24 38.2508 16.6629L38.5104 18.3075C37.6119 18.9587 36.429 19.2844 34.9616 19.2844Z" fill="white"/>
<path d="M20.3584 6.86969C19.0477 6.86969 18.042 7.32308 17.3413 8.22986C16.6489 9.12841 16.3026 10.4515 16.3026 12.1991C16.3026 15.7768 17.6504 17.5656 20.3461 17.5656C21.0138 17.5656 21.5991 17.4296 22.1019 17.1576C22.613 16.8773 23.0128 16.4899 23.3014 15.9952C23.5981 15.4924 23.8166 14.9277 23.9567 14.3012C24.1051 13.6747 24.1793 12.9781 24.1793 12.2115C24.1793 11.1728 24.0556 10.266 23.8083 9.49112C23.5693 8.71623 23.1571 8.0856 22.5718 7.59924C21.9865 7.11287 21.2487 6.86969 20.3584 6.86969ZM20.5686 5.15092C21.7722 5.15092 22.8109 5.45593 23.6847 6.06594C24.5585 6.67596 25.2139 7.50444 25.6508 8.55136C26.0877 9.59828 26.3061 10.7977 26.3061 12.1496C26.3061 13.551 26.0877 14.7834 25.6508 15.8469C25.2221 16.9103 24.5667 17.7511 23.6847 18.3694C22.8109 18.9794 21.764 19.2844 20.5439 19.2844C19.6454 19.2844 18.8251 19.0907 18.0832 18.7032C17.3413 18.3158 16.723 17.7882 16.2284 17.1205L16.0182 19H14.25V0.16772L16.315 0.0440674V4.53265C16.315 5.63728 16.2985 6.58529 16.2655 7.37666C16.7437 6.69245 17.3619 6.1525 18.1203 5.75681C18.887 5.35288 19.7031 5.15092 20.5686 5.15092Z" fill="white"/>
<path d="M4.53081 17.6151C5.51179 17.6151 6.37323 17.3471 7.11515 16.8113C7.8653 16.2672 8.34755 15.5377 8.56188 14.6227V12.3351C8.52066 12.3351 8.26924 12.3557 7.8076 12.3969C7.35421 12.4381 7.05744 12.4629 6.9173 12.4711C5.12846 12.6277 3.87957 12.9204 3.17063 13.349C2.46993 13.7777 2.11959 14.466 2.11959 15.414C2.11959 16.1395 2.33392 16.6877 2.76258 17.0586C3.19124 17.4296 3.78065 17.6151 4.53081 17.6151ZM9.01939 19C8.89574 18.4724 8.77621 17.9036 8.6608 17.2936C7.91064 18.0437 7.20582 18.5631 6.54634 18.8516C5.88686 19.1401 5.11198 19.2844 4.22168 19.2844C2.95218 19.2844 1.92998 18.9546 1.1551 18.2951C0.38845 17.6274 0.00512695 16.6712 0.00512695 15.4264C0.00512695 14.0415 0.528589 13.0152 1.57551 12.3475C2.63068 11.6797 4.14749 11.2634 6.12593 11.0986C6.39796 11.0738 6.80602 11.0409 7.35009 10.9996C7.9024 10.9502 8.31458 10.9131 8.58661 10.8884V9.68893C8.58661 8.73268 8.36404 8.02374 7.91889 7.5621C7.47374 7.10047 6.77304 6.86965 5.81679 6.86965C4.48135 6.86965 3.13354 7.19939 1.77336 7.85887C1.73214 7.75995 1.62497 7.47555 1.45186 7.00567C1.27875 6.52754 1.18807 6.28024 1.17983 6.26375C1.7816 5.92577 2.49466 5.65785 3.31901 5.46001C4.15161 5.25392 4.99657 5.15088 5.85389 5.15088C7.54381 5.15088 8.75972 5.52184 9.50164 6.26375C10.2518 6.99742 10.6269 8.25043 10.6269 10.0228V19H9.01939Z" fill="white"/>
</svg>
