<svg width="29" height="29" viewBox="0 0 29 29" fill="none" xmlns="http://www.w3.org/2000/svg">
<g clip-path="url(#clip0_103_144)">
<path d="M14.5 29C22.5081 29 29 22.5081 29 14.5C29 6.49187 22.5081 0 14.5 0C6.49187 0 0 6.49187 0 14.5C0 22.5081 6.49187 29 14.5 29Z" fill="white"/>
<path d="M20.1443 18.6924L20.7866 14.5H16.7655V11.7798C16.7655 10.6338 17.3262 9.51439 19.1288 9.51439H20.9579V5.94597C20.9579 5.94597 19.298 5.66254 17.7116 5.66254C14.4001 5.66254 12.2346 7.66901 12.2346 11.3047V14.5H8.552V18.6924H12.2346V28.8246C12.9728 28.9408 13.7293 29 14.5 29C15.2708 29 16.0273 28.9388 16.7655 28.8246V18.6924H20.1443Z" fill="#3B5998"/>
</g>
<defs>
<clipPath id="clip0_103_144">
<rect width="29" height="29" fill="white"/>
</clipPath>
</defs>
</svg>
