<svg width="35" height="45" viewBox="0 0 35 45" fill="none" xmlns="http://www.w3.org/2000/svg">
<g clip-path="url(#clip0_107_1586)">
<path d="M31.1999 6.98608H4.48563C3.51948 6.98608 2.59291 7.41384 1.90974 8.17526C1.22657 8.93668 0.842773 9.96939 0.842773 11.0462L0.842773 40.8204C0.842773 41.8972 1.22657 42.9299 1.90974 43.6913C2.59291 44.4527 3.51948 44.8805 4.48563 44.8805H14.9019V31.9972H10.1207V25.9333H14.9019V21.3115C14.9019 16.0545 17.71 13.1507 22.0108 13.1507C24.0705 13.1507 26.2244 13.5601 26.2244 13.5601V18.7198H23.8512C21.513 18.7198 20.7836 20.3371 20.7836 21.9958V25.9333H26.0035L25.1687 31.9972H20.7836V44.8805H31.1999C32.1661 44.8805 33.0926 44.4527 33.7758 43.6913C34.459 42.9299 34.8428 41.8972 34.8428 40.8204V11.0462C34.8428 9.96939 34.459 8.93668 33.7758 8.17526C33.0926 7.41384 32.1661 6.98608 31.1999 6.98608Z" fill="#FFFBFB"/>
</g>
<defs>
<clipPath id="clip0_107_1586">
<rect width="34" height="44.1945" fill="white" transform="translate(0.842773 0.685913)"/>
</clipPath>
</defs>
</svg>
