<svg width="160" height="160" viewBox="0 0 160 160" fill="none" xmlns="http://www.w3.org/2000/svg">
<rect width="160" height="160" rx="22.005" fill="url(#paint0_linear_45_62)"/>
<path d="M131.333 33.3333V21.6667C131.333 18 128.333 15 124.667 15H113M131.333 126.667V138.333C131.333 142 128.333 145 124.667 145H113" stroke="black" stroke-width="3.39583" stroke-linecap="round" stroke-linejoin="round"/>
<path d="M119.41 58.2067H96.333C93.4996 58.2067 91.2063 55.9067 91.2063 53.0767V30M119.41 58.2067V124.873C119.41 127.703 117.116 130 114.283 130H45.0496C42.2196 130 39.923 127.707 39.923 124.873V35.1267C39.923 32.2967 42.2163 30 45.0496 30H91.2063M119.41 58.2067L91.2063 30M106.413 81.37H94.8963V104.36M94.8963 92.8667H102.41" stroke="black" stroke-width="3.39583" stroke-linecap="round" stroke-linejoin="round"/>
<path d="M52.9197 104.313V81.3267H60.6563C61.6695 81.3262 62.6728 81.5253 63.609 81.9126C64.5452 82.3 65.3959 82.8679 66.1126 83.584C66.8294 84.3001 67.398 85.1503 67.7861 86.0862C68.1743 87.022 68.3742 88.0252 68.3747 89.0383C68.3751 90.0515 68.176 91.0548 67.7887 91.991C67.4014 92.9272 66.8335 93.7779 66.1174 94.4946C65.4013 95.2113 64.551 95.78 63.6152 96.1681C62.6793 96.5562 61.6762 96.7562 60.663 96.7567H52.9197M73.9097 104.36V81.2833H77.823C80.8827 81.2833 83.8171 82.4988 85.9807 84.6623C88.1442 86.8259 89.3597 89.7603 89.3597 92.82C89.3601 94.3356 89.0619 95.8364 88.4821 97.2367C87.9024 98.637 87.0523 99.9093 85.9807 100.981C84.909 102.053 83.6367 102.903 82.2364 103.482C80.8361 104.062 79.3353 104.36 77.8197 104.36H73.9097Z" stroke="black" stroke-width="3.39583" stroke-linecap="round" stroke-linejoin="round"/>
<path d="M28 33.3333V21.6667C28 18 31 15 34.6667 15H46.3333M46.3333 145H34.6667C31 145 28 142 28 138.333V126.667" stroke="black" stroke-width="3.39583" stroke-linecap="round" stroke-linejoin="round"/>
<defs>
<linearGradient id="paint0_linear_45_62" x1="0" y1="0" x2="148.4" y2="0" gradientUnits="userSpaceOnUse">
<stop stop-color="#76BA1B"/>
<stop offset="1" stop-color="#00C2FF"/>
</linearGradient>
</defs>
</svg>
