<svg width="35" height="35" viewBox="0 0 35 35" fill="none" xmlns="http://www.w3.org/2000/svg">
<path fill-rule="evenodd" clip-rule="evenodd" d="M17.5001 5.83335C15.4595 5.83298 13.4546 6.36782 11.6853 7.38448C9.91605 8.40114 8.44438 9.86407 7.4172 11.6272C6.39003 13.3904 5.84326 15.3922 5.83149 17.4327C5.81971 19.4732 6.34334 21.4811 7.3501 23.2561C8.03057 22.3717 8.90531 21.6557 9.90668 21.1633C10.9081 20.671 12.0092 20.4155 13.1251 20.4167H21.8751C22.991 20.4155 24.0921 20.671 25.0935 21.1633C26.0949 21.6557 26.9696 22.3717 27.6501 23.2561C28.6569 21.4811 29.1805 19.4732 29.1687 17.4327C29.1569 15.3922 28.6102 13.3904 27.583 11.6272C26.5558 9.86407 25.0842 8.40114 23.3149 7.38448C21.5456 6.36782 19.5407 5.83298 17.5001 5.83335ZM29.0836 26.3609C31.0335 23.8189 32.0881 20.7036 32.0834 17.5C32.0834 9.44565 25.5545 2.91669 17.5001 2.91669C9.44572 2.91669 2.91676 9.44565 2.91676 17.5C2.91195 20.7037 3.96663 23.819 5.91656 26.3609L5.90926 26.3871L6.42697 26.9894C7.79472 28.5885 9.49295 29.872 11.4046 30.7514C13.3163 31.6308 15.3959 32.0852 17.5001 32.0834C20.4566 32.0888 23.3442 31.1907 25.7761 29.5094C26.8129 28.7931 27.753 27.9461 28.5732 26.9894L29.0909 26.3871L29.0836 26.3609ZM17.5001 8.75002C16.3398 8.75002 15.227 9.21096 14.4065 10.0314C13.586 10.8519 13.1251 11.9647 13.1251 13.125C13.1251 14.2853 13.586 15.3981 14.4065 16.2186C15.227 17.0391 16.3398 17.5 17.5001 17.5C18.6604 17.5 19.7732 17.0391 20.5937 16.2186C21.4142 15.3981 21.8751 14.2853 21.8751 13.125C21.8751 11.9647 21.4142 10.8519 20.5937 10.0314C19.7732 9.21096 18.6604 8.75002 17.5001 8.75002Z" fill="#D9D9D9"/>
</svg>
