<svg width="959" height="65" viewBox="0 0 959 65" fill="none" xmlns="http://www.w3.org/2000/svg">
<g clip-path="url(#clip0_88_173)">
<g clip-path="url(#clip1_88_173)">
<path d="M192.501 64.694H121.543C120.691 64.694 120 64.0041 120 63.1539V29.2717C120 28.862 120.163 28.4709 120.45 28.1813L138.961 9.70011C139.251 9.4105 139.643 9.24731 140.053 9.24731H192.501C193.352 9.24731 194.043 9.93722 194.043 10.7874V63.1508C194.043 64.0072 193.355 64.694 192.501 64.694ZM123.085 61.6139H190.958V12.3305H140.692L123.085 29.9093V61.6139Z" fill="url(#paint0_linear_88_173)"/>
<path d="M140.053 30.8122H121.543C120.691 30.8122 120 30.1223 120 29.2722C120 28.4221 120.691 27.7322 121.543 27.7322H138.511V10.791C138.511 9.94082 139.202 9.25092 140.053 9.25092C140.905 9.25092 141.596 9.94082 141.596 10.791V29.2722C141.596 30.1253 140.908 30.8122 140.053 30.8122Z" fill="url(#paint1_linear_88_173)"/>
<path d="M186.331 58.5337H127.713C126.861 58.5337 126.17 57.8438 126.17 56.9937V29.2718C126.17 28.4217 126.861 27.7318 127.713 27.7318C128.564 27.7318 129.255 28.4217 129.255 29.2718V55.4536H184.788V18.4912H140.053C139.202 18.4912 138.511 17.8012 138.511 16.9511C138.511 16.101 139.202 15.4111 140.053 15.4111H186.331C187.182 15.4111 187.873 16.101 187.873 16.9511V56.9939C187.873 57.8468 187.185 58.5337 186.331 58.5337Z" fill="url(#paint2_linear_88_173)"/>
<path d="M127.713 52.3732C127.318 52.3732 126.923 52.2222 126.621 51.9236C126.019 51.323 126.019 50.3466 126.621 49.7459L148.217 28.1844C148.525 27.8764 148.97 27.6854 149.392 27.7348C149.833 27.7594 150.238 27.9658 150.512 28.3109L162.026 42.6832L171.679 37.1757C172.25 36.8523 172.975 36.9231 173.469 37.3637L187.352 49.6846C187.987 50.2514 188.049 51.2246 187.481 51.8593C186.911 52.4969 185.933 52.5462 185.303 51.9886L172.247 40.4009L162.412 46.0131C161.754 46.3827 160.915 46.2288 160.44 45.6374L149.179 31.5824L128.805 51.9234C128.502 52.2254 128.108 52.3732 127.713 52.3732Z" fill="url(#paint3_linear_88_173)"/>
<path d="M172.447 33.8921C169.044 33.8921 166.277 31.126 166.277 27.7318C166.277 24.3375 169.044 21.5714 172.447 21.5714C175.847 21.5714 178.617 24.3375 178.617 27.7318C178.617 31.126 175.85 33.8921 172.447 33.8921ZM172.447 24.6515C170.744 24.6515 169.362 26.0315 169.362 27.7318C169.362 29.432 170.744 30.812 172.447 30.812C174.15 30.812 175.532 29.432 175.532 27.7318C175.532 26.0344 174.15 24.6515 172.447 24.6515Z" fill="url(#paint4_linear_88_173)"/>
<path d="M928.022 40.9489C929.217 40.8616 930.307 40.2891 931.014 39.3759L941.767 25.4206C942.097 24.9926 942.047 24.4018 941.648 24.0266C941.248 23.6525 940.619 23.6061 940.163 23.9145L925.295 34.0122C924.326 34.6742 923.716 35.6974 923.623 36.8197C923.53 37.942 923.963 39.0406 924.81 39.8352C925.58 40.5597 926.619 40.9608 927.7 40.9608C927.807 40.9608 927.914 40.9565 928.022 40.9489ZM925.913 36.9879C925.953 36.4952 926.222 36.0456 926.645 35.7567L935.714 29.5973L929.155 38.1091C928.845 38.5091 928.366 38.7603 927.841 38.7991C927.319 38.8315 926.806 38.6611 926.432 38.3108C926.062 37.9625 925.872 37.4795 925.913 36.9879Z" fill="url(#paint5_linear_88_173)"/>
<path d="M953.746 21.0845C953.735 21.0618 953.735 21.0381 953.722 21.0155C953.708 20.9939 953.686 20.982 953.671 20.9616C952.51 19.0921 951.137 17.3531 949.577 15.7768L952.044 13.4621L953.668 14.9866L958.54 10.4121L953.668 5.83864L948.795 10.4121L950.42 11.9376L947.954 14.2524C946.275 12.7883 944.423 11.4977 942.431 10.4078C942.409 10.3937 942.396 10.3733 942.373 10.3603C942.349 10.3474 942.324 10.3485 942.3 10.3366C938.748 8.41537 934.757 7.13563 930.502 6.66664V5.38259H932.225C933.808 5.38259 935.096 4.17401 935.096 2.68727C935.096 1.20053 933.807 -0.00805664 932.224 -0.00805664H921.888C920.304 -0.00805664 919.017 1.20053 919.017 2.68727C919.017 4.17401 920.304 5.38259 921.888 5.38259H923.611V6.62891C922.37 6.75289 921.132 6.94264 919.908 7.20571C919.29 7.33832 918.903 7.91727 919.046 8.49731C919.187 9.07734 919.804 9.44175 920.421 9.30698C921.478 9.0795 922.545 8.90807 923.614 8.79272L924.846 8.70323C925.223 8.67628 925.57 8.65687 925.907 8.64178V10.7732C925.907 11.3694 926.421 11.8514 927.056 11.8514C927.691 11.8514 928.204 11.3694 928.204 10.7732V8.64932C932.523 8.83584 936.593 9.92475 940.212 11.7166L939.08 13.557C938.763 14.0734 938.951 14.7321 939.5 15.0297C939.68 15.1278 939.878 15.1742 940.073 15.1742C940.47 15.1742 940.856 14.9812 941.069 14.6351L942.198 12.799C945.791 14.9391 948.844 17.8048 951.123 21.1783L949.167 22.2381C948.62 22.5356 948.431 23.1944 948.749 23.7108C948.963 24.0569 949.348 24.2499 949.745 24.2499C949.94 24.2499 950.138 24.2035 950.318 24.1054L952.278 23.0424C954.214 26.4881 955.377 30.3715 955.55 34.491H953.282C952.647 34.491 952.134 34.9729 952.134 35.5691C952.134 36.1653 952.647 36.6473 953.282 36.6473H955.55C955.377 40.7668 954.214 44.6502 952.278 48.0959L950.318 47.0329C949.769 46.7353 949.066 46.91 948.749 47.4275C948.432 47.9439 948.621 48.6026 949.17 48.9002L951.125 49.96C948.846 53.3335 945.793 56.1991 942.2 58.3392L941.071 56.5032C940.753 55.9857 940.049 55.8099 939.502 56.1086C938.952 56.4061 938.764 57.066 939.082 57.5813L940.214 59.4217C936.596 61.2135 932.526 62.3024 928.207 62.489V60.3672C928.207 59.771 927.693 59.2891 927.058 59.2891C926.423 59.2891 925.91 59.771 925.91 60.3672V62.4976C924.076 62.4383 922.236 62.2227 920.425 61.8324C919.807 61.6933 919.19 62.062 919.049 62.6421C918.907 63.2221 919.294 63.801 919.912 63.9336C922.204 64.4296 924.545 64.6797 926.869 64.6797C926.925 64.6797 926.979 64.6765 927.035 64.6754C927.043 64.6754 927.049 64.6797 927.056 64.6797C927.065 64.6797 927.073 64.6743 927.082 64.6743C932.603 64.6387 937.782 63.2393 942.263 60.8222C942.299 60.8071 942.337 60.7995 942.371 60.7801C942.394 60.7672 942.407 60.7467 942.428 60.7327C947.067 58.1948 950.943 54.5604 953.652 50.2091C953.674 50.18 953.701 50.1573 953.721 50.125C953.735 50.1023 953.733 50.0786 953.745 50.056C956.368 45.7866 957.876 40.8423 957.876 35.5702C957.876 30.2982 956.368 25.3539 953.746 21.0845ZM953.667 8.88759L955.291 10.4121L953.667 11.9376L952.042 10.4121L953.667 8.88759ZM925.907 6.48336V3.22633H921.888C921.572 3.22633 921.314 2.98375 921.314 2.68727C921.314 2.39078 921.572 2.1482 921.888 2.1482H932.224C932.539 2.1482 932.798 2.39078 932.798 2.68727C932.798 2.98375 932.539 3.22633 932.224 3.22633H928.204V6.48336C927.805 6.46827 927.423 6.46072 927.056 6.46072C927.024 6.46072 926.987 6.46288 926.955 6.46288C926.926 6.46288 926.897 6.46072 926.869 6.46072C926.68 6.46072 926.492 6.47258 926.304 6.47581C926.17 6.47905 926.045 6.47797 925.907 6.48336Z" fill="url(#paint6_linear_88_173)"/>
<path d="M916.72 15.0857H910.978C910.343 15.0857 909.83 15.5676 909.83 16.1638C909.83 16.76 910.343 17.242 910.978 17.242H916.72C917.355 17.242 917.868 16.76 917.868 16.1638C917.868 15.5676 917.355 15.0857 916.72 15.0857Z" fill="url(#paint7_linear_88_173)"/>
<path d="M916.72 22.6326H905.236C904.601 22.6326 904.088 23.1146 904.088 23.7108C904.088 24.307 904.601 24.7889 905.236 24.7889H916.72C917.356 24.7889 917.869 24.307 917.869 23.7108C917.869 23.1146 917.356 22.6326 916.72 22.6326Z" fill="url(#paint8_linear_88_173)"/>
<path d="M916.72 30.1795H899.494C898.859 30.1795 898.346 30.6614 898.346 31.2576C898.346 31.8538 898.859 32.3358 899.494 32.3358H916.72C917.355 32.3358 917.869 31.8538 917.869 31.2576C917.869 30.6614 917.355 30.1795 916.72 30.1795Z" fill="url(#paint9_linear_88_173)"/>
<path d="M916.72 37.7264H894.9C894.265 37.7264 893.752 38.2084 893.752 38.8046C893.752 39.4008 894.265 39.8827 894.9 39.8827H916.72C917.355 39.8827 917.869 39.4008 917.869 38.8046C917.869 38.2084 917.355 37.7264 916.72 37.7264Z" fill="url(#paint10_linear_88_173)"/>
<path d="M916.72 45.2733H901.791C901.156 45.2733 900.643 45.7552 900.643 46.3514C900.643 46.9477 901.156 47.4296 901.791 47.4296H916.72C917.355 47.4296 917.869 46.9477 917.869 46.3514C917.869 45.7552 917.355 45.2733 916.72 45.2733Z" fill="url(#paint11_linear_88_173)"/>
<path d="M916.72 52.8203H908.681C908.046 52.8203 907.533 53.3022 907.533 53.8984C907.533 54.4946 908.046 54.9765 908.681 54.9765H916.72C917.355 54.9765 917.868 54.4946 917.868 53.8984C917.868 53.3022 917.355 52.8203 916.72 52.8203Z" fill="url(#paint12_linear_88_173)"/>
</g>
</g>
<defs>
<linearGradient id="paint0_linear_88_173" x1="125.61" y1="9.24732" x2="229.398" y2="11.1573" gradientUnits="userSpaceOnUse">
<stop stop-color="#76BA1B"/>
<stop offset="0.622396" stop-color="#00C2FF"/>
</linearGradient>
<linearGradient id="paint1_linear_88_173" x1="121.636" y1="9.25092" x2="151.912" y2="9.66881" gradientUnits="userSpaceOnUse">
<stop stop-color="#76BA1B"/>
<stop offset="0.622396" stop-color="#00C2FF"/>
</linearGradient>
<linearGradient id="paint2_linear_88_173" x1="130.846" y1="15.4111" x2="217.331" y2="17.1164" gradientUnits="userSpaceOnUse">
<stop stop-color="#76BA1B"/>
<stop offset="0.622396" stop-color="#00C2FF"/>
</linearGradient>
<linearGradient id="paint3_linear_88_173" x1="130.845" y1="27.7271" x2="217.259" y2="30.7082" gradientUnits="userSpaceOnUse">
<stop stop-color="#76BA1B"/>
<stop offset="0.622396" stop-color="#00C2FF"/>
</linearGradient>
<linearGradient id="paint4_linear_88_173" x1="167.212" y1="21.5714" x2="184.512" y2="21.8102" gradientUnits="userSpaceOnUse">
<stop stop-color="#76BA1B"/>
<stop offset="0.622396" stop-color="#00C2FF"/>
</linearGradient>
<linearGradient id="paint5_linear_88_173" x1="921.331" y1="22.705" x2="944.612" y2="21.9672" gradientUnits="userSpaceOnUse">
<stop stop-color="#76BA1B"/>
<stop offset="1" stop-color="#00C2FF"/>
</linearGradient>
<linearGradient id="paint6_linear_88_173" x1="914.112" y1="-3.78151" x2="964.226" y2="-4.69242" gradientUnits="userSpaceOnUse">
<stop stop-color="#76BA1B"/>
<stop offset="1" stop-color="#00C2FF"/>
</linearGradient>
<linearGradient id="paint7_linear_88_173" x1="908.832" y1="14.9599" x2="918.905" y2="13.8428" gradientUnits="userSpaceOnUse">
<stop stop-color="#76BA1B"/>
<stop offset="1" stop-color="#00C2FF"/>
</linearGradient>
<linearGradient id="paint8_linear_88_173" x1="902.378" y1="22.5068" x2="919.248" y2="19.2993" gradientUnits="userSpaceOnUse">
<stop stop-color="#76BA1B"/>
<stop offset="1" stop-color="#00C2FF"/>
</linearGradient>
<linearGradient id="paint9_linear_88_173" x1="895.923" y1="30.0537" x2="919.011" y2="23.8349" gradientUnits="userSpaceOnUse">
<stop stop-color="#76BA1B"/>
<stop offset="1" stop-color="#00C2FF"/>
</linearGradient>
<linearGradient id="paint10_linear_88_173" x1="890.76" y1="37.6007" x2="918.3" y2="28.4371" gradientUnits="userSpaceOnUse">
<stop stop-color="#76BA1B"/>
<stop offset="1" stop-color="#00C2FF"/>
</linearGradient>
<linearGradient id="paint11_linear_88_173" x1="898.505" y1="45.1475" x2="919.186" y2="40.2323" gradientUnits="userSpaceOnUse">
<stop stop-color="#76BA1B"/>
<stop offset="1" stop-color="#00C2FF"/>
</linearGradient>
<linearGradient id="paint12_linear_88_173" x1="906.25" y1="52.6945" x2="919.099" y2="50.8623" gradientUnits="userSpaceOnUse">
<stop stop-color="#76BA1B"/>
<stop offset="1" stop-color="#00C2FF"/>
</linearGradient>
<clipPath id="clip0_88_173">
<rect width="958.54" height="64.702" fill="white" transform="translate(0 -0.00805664)"/>
</clipPath>
<clipPath id="clip1_88_173">
<rect width="838.54" height="64.702" fill="white" transform="translate(120 -0.00805664)"/>
</clipPath>
</defs>
</svg>
