<svg width="35" height="35" viewBox="0 0 35 35" fill="none" xmlns="http://www.w3.org/2000/svg">
<path d="M8.75016 32.0833C7.94808 32.0833 7.26121 31.7975 6.68954 31.2258C6.11787 30.6541 5.83253 29.9678 5.8335 29.1666V14.5833C5.8335 13.7812 6.11933 13.0944 6.691 12.5227C7.26266 11.951 7.94905 11.6657 8.75016 11.6666H10.2085V8.74998C10.2085 6.73262 10.9197 5.01276 12.342 3.5904C13.7644 2.16804 15.4838 1.45734 17.5002 1.45831C19.5175 1.45831 21.2374 2.16949 22.6597 3.59186C24.0821 5.01422 24.7928 6.73359 24.7918 8.74998V11.6666H26.2502C27.0522 11.6666 27.7391 11.9525 28.3108 12.5241C28.8825 13.0958 29.1678 13.7822 29.1668 14.5833V29.1666C29.1668 29.9687 28.881 30.6556 28.3093 31.2273C27.7377 31.7989 27.0513 32.0843 26.2502 32.0833H8.75016ZM17.5002 24.7916C18.3022 24.7916 18.9891 24.5058 19.5608 23.9341C20.1325 23.3625 20.4178 22.6761 20.4168 21.875C20.4168 21.0729 20.131 20.386 19.5593 19.8144C18.9877 19.2427 18.3013 18.9573 17.5002 18.9583C16.6981 18.9583 16.0112 19.2441 15.4395 19.8158C14.8679 20.3875 14.5825 21.0739 14.5835 21.875C14.5835 22.6771 14.8693 23.3639 15.441 23.9356C16.0127 24.5073 16.6991 24.7926 17.5002 24.7916ZM13.1252 11.6666H21.8752V8.74998C21.8752 7.5347 21.4498 6.50172 20.5991 5.65102C19.7484 4.80033 18.7154 4.37498 17.5002 4.37498C16.2849 4.37498 15.2519 4.80033 14.4012 5.65102C13.5505 6.50172 13.1252 7.5347 13.1252 8.74998V11.6666Z" fill="#D9D9D9"/>
</svg>
