<svg width="189" height="91" viewBox="0 0 189 91" fill="none" xmlns="http://www.w3.org/2000/svg">
<g clip-path="url(#clip0_107_1592)">
<path d="M169.136 84.9681C172.198 86.4796 175.48 87.2353 178.98 87.2353C183.289 87.2353 185.443 85.2731 185.443 81.3486C185.443 80.0758 185.099 79.0483 184.409 78.2661C183.733 77.4706 182.493 76.8474 180.69 76.3966L174.843 74.925C170.375 73.798 168.141 71.4115 168.141 67.7655C168.141 64.968 169.103 62.8931 171.025 61.5407C172.947 60.1751 175.606 59.4923 179 59.4923C180.777 59.4923 182.44 59.6846 183.992 60.069C185.543 60.4535 186.842 60.9706 187.89 61.6203L186.895 64.4244C186.007 63.9338 184.827 63.4963 183.355 63.1118C181.897 62.7273 180.419 62.5351 178.92 62.5351C174.121 62.5351 171.721 64.199 171.721 67.5268C171.721 68.6538 172.086 69.562 172.815 70.2514C173.557 70.9276 174.664 71.4447 176.136 71.8026L181.724 73.155C184.111 73.7251 185.921 74.6399 187.154 75.8995C188.387 77.1457 189.003 78.9223 189.003 81.2293C189.003 84.2257 188.082 86.4862 186.239 88.0109C184.409 89.5224 181.917 90.2781 178.761 90.2781C176.401 90.2781 174.3 90.0394 172.457 89.5621C170.627 89.0716 169.175 88.4948 168.102 87.8319L169.136 84.9681Z" fill="url(#paint0_linear_107_1592)"/>
<path d="M144.714 84.9681C147.777 86.4796 151.058 87.2353 154.558 87.2353C158.867 87.2353 161.022 85.2731 161.022 81.3486C161.022 80.0758 160.677 79.0483 159.987 78.2661C159.311 77.4706 158.072 76.8474 156.268 76.3966L150.422 74.925C145.953 73.798 143.719 71.4115 143.719 67.7655C143.719 64.968 144.681 62.8931 146.603 61.5407C148.526 60.1751 151.184 59.4923 154.578 59.4923C156.355 59.4923 158.019 59.6846 159.57 60.069C161.121 60.4535 162.42 60.9706 163.468 61.6203L162.473 64.4244C161.585 63.9338 160.405 63.4963 158.933 63.1118C157.475 62.7273 155.997 62.5351 154.498 62.5351C149.699 62.5351 147.299 64.199 147.299 67.5268C147.299 68.6538 147.664 69.562 148.393 70.2514C149.135 70.9276 150.243 71.4447 151.714 71.8026L157.303 73.155C159.689 73.7251 161.499 74.6399 162.732 75.8995C163.965 77.1457 164.581 78.9223 164.581 81.2293C164.581 84.2257 163.66 86.4862 161.817 88.0109C159.987 89.5224 157.495 90.2781 154.339 90.2781C151.979 90.2781 149.878 90.0394 148.035 89.5621C146.205 89.0716 144.754 88.4948 143.68 87.8319L144.714 84.9681Z" fill="url(#paint1_linear_107_1592)"/>
<path d="M122.52 89.8206V60.4071H139.384L139.245 63.4499H125.96V73.0754H138.589V76.0784H125.96V86.7779H139.682L139.523 89.8206H122.52Z" fill="url(#paint2_linear_107_1592)"/>
<path d="M98.8536 63.1516V73.0954C99.3972 73.0954 100.517 73.1086 102.215 73.1351C103.925 73.1617 105.244 73.1749 106.172 73.1749C108.704 73.1749 110.468 72.7573 111.462 71.922C112.457 71.0735 112.954 69.7344 112.954 67.9047C112.954 66.3005 112.476 65.1072 111.522 64.325C110.567 63.5428 108.97 63.1516 106.729 63.1516H98.8536ZM117.707 89.8207H113.729L109.672 80.5929C108.572 78.1136 107.869 76.6221 107.564 76.1183C106.596 76.1846 105.45 76.2177 104.124 76.2177L98.8536 76.0586V89.8207H95.3335V60.0691H104.74C105.827 60.0691 106.789 60.0956 107.624 60.1486C108.459 60.2017 109.288 60.3011 110.11 60.447C110.945 60.5795 111.668 60.7718 112.278 61.0237C112.887 61.2623 113.458 61.5805 113.988 61.9783C114.518 62.3628 114.943 62.8268 115.261 63.3704C115.592 63.914 115.851 64.5637 116.036 65.3194C116.222 66.0618 116.315 66.9037 116.315 67.8451C116.315 69.7012 115.824 71.2989 114.843 72.638C113.875 73.977 112.496 74.9051 110.706 75.4222C110.706 75.4487 110.839 75.6874 111.104 76.1381C111.369 76.5889 111.681 77.1458 112.039 77.8087C112.41 78.4583 112.695 79.0019 112.894 79.4395L117.707 89.8207Z" fill="url(#paint3_linear_107_1592)"/>
<path d="M75.7642 89.8207H72.2441V60.0691H81.8299C83.2883 60.0691 84.6075 60.2216 85.7875 60.5265C86.9675 60.8314 88.0149 61.2955 88.9297 61.9186C89.8445 62.5418 90.5538 63.377 91.0577 64.4244C91.5615 65.4718 91.8134 66.6916 91.8134 68.0837C91.8134 69.2372 91.7073 70.2713 91.4952 71.1862C91.2831 72.0877 90.9185 72.9363 90.4014 73.7318C89.8843 74.5273 89.2081 75.1902 88.3729 75.7205C87.5376 76.2376 86.4637 76.6486 85.1511 76.9535C83.8518 77.2452 82.3403 77.3911 80.6168 77.3911C79.2512 77.3911 77.6336 77.3049 75.7642 77.1325V89.8207ZM80.9548 74.3483C82.2542 74.3483 83.3679 74.2223 84.2959 73.9704C85.224 73.7185 85.9333 73.4069 86.4239 73.0357C86.9277 72.6645 87.3188 72.1805 87.5973 71.5839C87.8889 70.9873 88.0679 70.4437 88.1342 69.9532C88.2005 69.4493 88.2337 68.8461 88.2337 68.1434C88.2337 66.4596 87.6635 65.2199 86.5233 64.4244C85.3964 63.6289 83.8584 63.2312 81.9094 63.2312H75.7642V74.3085C78.3231 74.335 80.0533 74.3483 80.9548 74.3483Z" fill="url(#paint4_linear_107_1592)"/>
<path d="M69.1613 89.8206H65.2037L57.0101 76.675L48.5977 89.8206H44.8589L54.9219 74.4675L45.5152 60.4071H49.5126L57.1294 72.1805L65.0446 60.4071H68.7238L59.2574 74.4079L69.1613 89.8206Z" fill="url(#paint5_linear_107_1592)"/>
<path d="M25.3892 89.8206V60.4071H42.2537L42.1145 63.4499H28.8297V73.0754H41.4582V76.0784H28.8297V86.7779H42.552L42.3929 89.8206H25.3892Z" fill="url(#paint6_linear_107_1592)"/>
<path d="M12.7011 89.8206H9.24068V63.4499H0.191895V60.4071H21.7499V63.4499H12.7011V89.8206Z" fill="url(#paint7_linear_107_1592)"/>
</g>
<defs>
<linearGradient id="paint0_linear_107_1592" x1="0.0526663" y1="98.8207" x2="216.937" y2="98.8207" gradientUnits="userSpaceOnUse">
<stop offset="0.38237" stop-color="#76BA1B"/>
<stop offset="0.627171" stop-color="#00A3C7"/>
</linearGradient>
<linearGradient id="paint1_linear_107_1592" x1="0.0525737" y1="98.8207" x2="216.937" y2="98.8207" gradientUnits="userSpaceOnUse">
<stop offset="0.38237" stop-color="#76BA1B"/>
<stop offset="0.627171" stop-color="#00A3C7"/>
</linearGradient>
<linearGradient id="paint2_linear_107_1592" x1="0.0526428" y1="98.8206" x2="216.937" y2="98.8206" gradientUnits="userSpaceOnUse">
<stop offset="0.38237" stop-color="#76BA1B"/>
<stop offset="0.627171" stop-color="#00A3C7"/>
</linearGradient>
<linearGradient id="paint3_linear_107_1592" x1="0.0527634" y1="98.8207" x2="216.937" y2="98.8207" gradientUnits="userSpaceOnUse">
<stop offset="0.38237" stop-color="#76BA1B"/>
<stop offset="0.627171" stop-color="#00A3C7"/>
</linearGradient>
<linearGradient id="paint4_linear_107_1592" x1="0.0527199" y1="98.8207" x2="216.937" y2="98.8207" gradientUnits="userSpaceOnUse">
<stop offset="0.38237" stop-color="#76BA1B"/>
<stop offset="0.627171" stop-color="#00A3C7"/>
</linearGradient>
<linearGradient id="paint5_linear_107_1592" x1="0.0524738" y1="98.8206" x2="216.937" y2="98.8206" gradientUnits="userSpaceOnUse">
<stop offset="0.38237" stop-color="#76BA1B"/>
<stop offset="0.627171" stop-color="#00A3C7"/>
</linearGradient>
<linearGradient id="paint6_linear_107_1592" x1="0.0525518" y1="98.8206" x2="216.937" y2="98.8206" gradientUnits="userSpaceOnUse">
<stop offset="0.38237" stop-color="#76BA1B"/>
<stop offset="0.627171" stop-color="#00A3C7"/>
</linearGradient>
<linearGradient id="paint7_linear_107_1592" x1="0.0526886" y1="98.8206" x2="216.937" y2="98.8206" gradientUnits="userSpaceOnUse">
<stop offset="0.38237" stop-color="#76BA1B"/>
<stop offset="0.627171" stop-color="#00A3C7"/>
</linearGradient>
<clipPath id="clip0_107_1592">
<rect width="188.811" height="89.5922" fill="white" transform="translate(0.191895 0.685913)"/>
</clipPath>
</defs>
</svg>
