<svg width="959" height="74" viewBox="0 0 959 74" fill="none" xmlns="http://www.w3.org/2000/svg">
<g clip-path="url(#clip0_88_167)">
<g clip-path="url(#clip1_88_167)">
<path d="M956.997 73.9289H904.55C903.698 73.9289 903.007 73.239 903.007 72.3888V20.0223C903.007 19.6126 903.171 19.2215 903.461 18.935L921.972 0.452815C922.262 0.163198 922.653 0 923.061 0H956.997C957.849 0 958.54 0.689941 958.54 1.54012V72.3886C958.54 73.2389 957.852 73.9289 956.997 73.9289ZM906.093 70.8485H955.455V3.08043H923.7L906.093 20.6602V70.8485Z" fill="url(#paint0_linear_88_167)"/>
<path d="M923.061 21.5627H904.55C903.698 21.5627 903.007 20.8727 903.007 20.0225C903.007 19.1723 903.698 18.4824 904.55 18.4824H921.518V1.54012C921.518 0.689941 922.209 0 923.061 0C923.912 0 924.603 0.689941 924.603 1.54012V20.0223C924.603 20.8725 923.915 21.5627 923.061 21.5627Z" fill="url(#paint1_linear_88_167)"/>
<path d="M944.657 33.884C944.255 33.884 943.861 33.7269 943.564 33.4343L938.486 28.361L933.405 33.4343C932.964 33.8748 932.295 34.0042 931.724 33.767C931.147 33.5299 930.771 32.9662 930.771 32.3439V1.54012C930.771 0.689942 931.462 0 932.313 0C933.165 0 933.856 0.689942 933.856 1.54012V28.6258L937.391 25.0957C937.993 24.4951 938.971 24.4951 939.572 25.0957L943.111 28.6258V1.54012C943.111 0.689942 943.802 0 944.653 0C945.505 0 946.196 0.689942 946.196 1.54012V32.3439C946.196 32.9662 945.82 33.5299 945.243 33.767C945.058 33.8441 944.857 33.884 944.657 33.884Z" fill="url(#paint2_linear_88_167)"/>
<path d="M192.545 47.2428H138.256C137.375 47.2428 136.66 46.6499 136.66 45.9193V27.3897C136.66 27.0375 136.829 26.7015 137.129 26.4526L156.29 10.57C156.59 10.3212 156.996 10.1809 157.42 10.1809H192.549C193.43 10.1809 194.145 10.7738 194.145 11.5045V45.9166C194.142 46.6499 193.427 47.2428 192.545 47.2428ZM139.853 44.5958H190.949V12.8309H158.078L139.853 27.9378V44.5958Z" fill="url(#paint3_linear_88_167)"/>
<path d="M157.417 28.7135H138.256C137.375 28.7135 136.66 28.1206 136.66 27.3899C136.66 26.6593 137.375 26.0664 138.256 26.0664H155.82V11.5076C155.82 10.7769 156.536 10.184 157.417 10.184C158.299 10.184 159.014 10.7769 159.014 11.5076V27.3901C159.014 28.1206 158.299 28.7135 157.417 28.7135Z" fill="url(#paint4_linear_88_167)"/>
<path d="M192.545 73.7138H138.256C137.375 73.7138 136.66 73.1209 136.66 72.3902V45.9194C136.66 45.1887 137.375 44.5958 138.256 44.5958H192.545C193.427 44.5958 194.142 45.1887 194.142 45.9194V72.3902C194.142 73.1209 193.427 73.7138 192.545 73.7138ZM139.853 71.0667H190.949V47.2429H139.853V71.0667Z" fill="url(#paint5_linear_88_167)"/>
<path d="M166.997 41.9488C166.589 41.9488 166.18 41.819 165.867 41.5623L156.287 33.6211C155.83 33.2426 155.693 32.6735 155.942 32.1784C156.187 31.686 156.772 31.3604 157.417 31.3604H176.578C177.223 31.3604 177.807 31.6833 178.053 32.1784C178.299 32.6735 178.162 33.2426 177.708 33.6211L168.128 41.5623C167.812 41.8192 167.403 41.9488 166.997 41.9488ZM161.272 34.0075L166.997 38.7537L172.723 34.0075H161.272Z" fill="url(#paint6_linear_88_167)"/>
<path d="M176.578 60.4784H157.417C156.772 60.4784 156.188 60.1554 155.942 59.6604C155.696 59.1653 155.833 58.5962 156.287 58.2177L165.867 50.2764C166.49 49.7602 167.502 49.7602 168.125 50.2764L177.706 58.2177C178.162 58.5962 178.3 59.1653 178.05 59.6604C177.804 60.1554 177.223 60.4784 176.578 60.4784ZM161.272 57.8313H172.724L166.998 53.0851L161.272 57.8313Z" fill="url(#paint7_linear_88_167)"/>
</g>
</g>
<defs>
<linearGradient id="paint0_linear_88_167" x1="890.49" y1="-6.1051" x2="974.536" y2="-6.1051" gradientUnits="userSpaceOnUse">
<stop stop-color="#76BA1B"/>
<stop offset="1" stop-color="#00C2FF"/>
</linearGradient>
<linearGradient id="paint1_linear_88_167" x1="898.139" y1="-1.78066" x2="930.824" y2="-1.78066" gradientUnits="userSpaceOnUse">
<stop stop-color="#76BA1B"/>
<stop offset="1" stop-color="#00C2FF"/>
</linearGradient>
<linearGradient id="paint2_linear_88_167" x1="927.293" y1="-2.79817" x2="950.639" y2="-2.79817" gradientUnits="userSpaceOnUse">
<stop stop-color="#76BA1B"/>
<stop offset="1" stop-color="#00C2FF"/>
</linearGradient>
<linearGradient id="paint3_linear_88_167" x1="131.569" y1="8.02458" x2="207.839" y2="4.85013" gradientUnits="userSpaceOnUse">
<stop stop-color="#76BA1B"/>
<stop offset="0.991869" stop-color="#00C2FF"/>
</linearGradient>
<linearGradient id="paint4_linear_88_167" x1="134.68" y1="9.10595" x2="164.359" y2="8.14514" gradientUnits="userSpaceOnUse">
<stop stop-color="#76BA1B"/>
<stop offset="0.991869" stop-color="#00C2FF"/>
</linearGradient>
<linearGradient id="paint5_linear_88_167" x1="131.569" y1="42.9017" x2="207.753" y2="38.866" gradientUnits="userSpaceOnUse">
<stop stop-color="#76BA1B"/>
<stop offset="0.991869" stop-color="#00C2FF"/>
</linearGradient>
<linearGradient id="paint6_linear_88_167" x1="153.839" y1="30.7444" x2="183.455" y2="29.0665" gradientUnits="userSpaceOnUse">
<stop stop-color="#76BA1B"/>
<stop offset="0.991869" stop-color="#00C2FF"/>
</linearGradient>
<linearGradient id="paint7_linear_88_167" x1="153.842" y1="49.2732" x2="183.454" y2="47.5959" gradientUnits="userSpaceOnUse">
<stop stop-color="#76BA1B"/>
<stop offset="0.991869" stop-color="#00C2FF"/>
</linearGradient>
<clipPath id="clip0_88_167">
<rect width="958.54" height="73.9289" fill="white"/>
</clipPath>
<clipPath id="clip1_88_167">
<rect width="821.88" height="73.9289" fill="white" transform="translate(136.66)"/>
</clipPath>
</defs>
</svg>
