<svg width="40" height="43" viewBox="0 0 40 43" fill="none" xmlns="http://www.w3.org/2000/svg">
<g clip-path="url(#clip0_179_132)">
<rect width="40" height="42.8571" fill="white"/>
<path d="M33.3256 29.7203C33.3256 29.5704 33.3256 29.3706 33.2789 29.2707C33.1389 28.7712 29.3116 26.6733 28.6114 26.2238C28.098 25.9241 27.4912 25.3247 26.9312 25.3247C25.7643 25.3247 24.084 28.971 23.0572 28.971C22.5438 28.971 21.8903 28.4715 21.4236 28.1718C17.9697 26.1239 15.5893 23.5764 13.6756 19.9301C13.3956 19.4306 12.9288 18.7313 12.9288 18.1818C12.9288 17.0829 16.3361 15.2847 16.3361 14.036C16.3361 13.3866 15.776 12.7373 15.4959 12.2378C15.0758 11.4386 13.1622 7.39261 12.6954 7.19281C12.5554 7.14286 12.4154 7.14286 12.2754 7.14286C11.5753 7.14286 10.2684 7.49251 9.66161 7.74226C7.93466 8.59141 6.67445 12.0879 6.67445 14.036C6.67445 15.8841 7.37456 17.5824 7.98133 19.3307C10.035 25.4246 16.2427 32.0679 21.937 34.3157C23.5706 34.965 25.1575 35.7143 26.9312 35.7143C28.7048 35.7143 31.972 34.3656 32.7655 32.5175C33.0455 31.8681 33.3256 30.4196 33.3256 29.7203ZM40 8.04196V34.8152C40 39.2607 36.6394 42.8571 32.4854 42.8571H7.51459C3.36056 42.8571 0 39.2607 0 34.8152V8.04196C0 3.5964 3.36056 0 7.51459 0H32.4854C36.6394 0 40 3.5964 40 8.04196Z" fill="black"/>
<path d="M33.3256 29.7203C33.3256 29.5704 33.3256 29.3706 33.2789 29.2707C33.1389 28.7712 29.3116 26.6733 28.6114 26.2238C28.098 25.9241 27.4912 25.3247 26.9312 25.3247C25.7643 25.3247 24.084 28.971 23.0572 28.971C22.5438 28.971 21.8903 28.4715 21.4236 28.1718C17.9697 26.1239 15.5893 23.5764 13.6756 19.9301C13.3956 19.4306 12.9288 18.7313 12.9288 18.1818C12.9288 17.0829 16.3361 15.2847 16.3361 14.036C16.3361 13.3866 15.776 12.7373 15.4959 12.2378C15.0758 11.4386 13.1622 7.39261 12.6954 7.19281C12.5554 7.14286 12.4154 7.14286 12.2754 7.14286C11.5753 7.14286 10.2684 7.49251 9.66161 7.74226C7.93466 8.59141 6.67445 12.0879 6.67445 14.036C6.67445 15.8841 7.37456 17.5824 7.98133 19.3307C10.035 25.4246 16.2427 32.0679 21.937 34.3157C23.5706 34.965 25.1575 35.7143 26.9312 35.7143C28.7048 35.7143 31.972 34.3656 32.7655 32.5175C33.0455 31.8681 33.3256 30.4196 33.3256 29.7203ZM40 8.04196V34.8152C40 39.2607 36.6394 42.8571 32.4854 42.8571H7.51459C3.36056 42.8571 0 39.2607 0 34.8152V8.04196C0 3.5964 3.36056 0 7.51459 0H32.4854C36.6394 0 40 3.5964 40 8.04196Z" fill="black"/>
</g>
<defs>
<clipPath id="clip0_179_132">
<rect width="40" height="42.8571" fill="white"/>
</clipPath>
</defs>
</svg>
