<svg width="160" height="160" viewBox="0 0 160 160" fill="none" xmlns="http://www.w3.org/2000/svg">
<rect width="160" height="160" rx="22.005" fill="url(#paint0_linear_45_86)"/>
<path d="M45.3846 72.6667V69H41.9231V72.6667H45.3846ZM73.0769 72.6667V69H69.6154V72.6667H73.0769ZM121.538 50.6667H125V49.1487L123.989 48.0707L121.538 50.6667ZM100.769 28.6667L103.22 26.0707L102.202 25H100.769V28.6667ZM45.3846 76.3333H52.3077V69H45.3846V76.3333ZM48.8462 105.667V87.3333H41.9231V105.667H48.8462ZM48.8462 87.3333V72.6667H41.9231V87.3333H48.8462ZM52.3077 83.6667H45.3846V91H52.3077V83.6667ZM55.7692 80C55.7692 80.9725 55.4045 81.9051 54.7554 82.5927C54.1062 83.2804 53.2257 83.6667 52.3077 83.6667V91C55.0619 91 57.7032 89.8411 59.6507 87.7782C61.5982 85.7153 62.6923 82.9174 62.6923 80H55.7692ZM52.3077 76.3333C53.2257 76.3333 54.1062 76.7196 54.7554 77.4073C55.4045 78.0949 55.7692 79.0275 55.7692 80H62.6923C62.6923 77.0826 61.5982 74.2847 59.6507 72.2218C57.7032 70.1589 55.0619 69 52.3077 69V76.3333ZM73.0769 76.3333H80V69H73.0769V76.3333ZM76.5385 105.667V87.3333H69.6154V105.667H76.5385ZM76.5385 87.3333V72.6667H69.6154V87.3333H76.5385ZM80 83.6667H73.0769V91H80V83.6667ZM83.4615 80C83.4615 80.9725 83.0968 81.9051 82.4477 82.5927C81.7985 83.2804 80.9181 83.6667 80 83.6667V91C82.7542 91 85.3955 89.8411 87.343 87.7782C89.2905 85.7153 90.3846 82.9174 90.3846 80H83.4615ZM80 76.3333C80.9181 76.3333 81.7985 76.7196 82.4477 77.4073C83.0968 78.0949 83.4615 79.0275 83.4615 80H90.3846C90.3846 77.0826 89.2905 74.2847 87.343 72.2218C85.3955 70.1589 82.7542 69 80 69V76.3333ZM104.231 69V105.667H111.154V69H104.231ZM97.3077 76.3333H118.077V69H97.3077V76.3333ZM41.9231 61.6667V49.1487V36H35V61.6667H41.9231ZM118.077 50.6667V61.6667H125V50.6667H118.077ZM45.3846 32.3333H100.769V25H45.3846V32.3333ZM98.3185 31.2627L119.088 53.2627L123.989 48.0707L103.22 26.0707L98.3185 31.2627ZM41.9231 36C41.9231 35.0275 42.2878 34.0949 42.9369 33.4073C43.5861 32.7196 44.4666 32.3333 45.3846 32.3333V25C42.6304 25 39.9891 26.1589 38.0416 28.2218C36.0941 30.2847 35 33.0826 35 36H41.9231ZM35 113V124H41.9231V113H35ZM45.3846 135H114.615V127.667H45.3846V135ZM125 124V113H118.077V124H125ZM114.615 135C117.37 135 120.011 133.841 121.958 131.778C123.906 129.715 125 126.917 125 124H118.077C118.077 124.972 117.712 125.905 117.063 126.593C116.414 127.28 115.533 127.667 114.615 127.667V135ZM35 124C35 126.917 36.0941 129.715 38.0416 131.778C39.9891 133.841 42.6304 135 45.3846 135V127.667C44.4666 127.667 43.5861 127.28 42.9369 126.593C42.2878 125.905 41.9231 124.972 41.9231 124H35Z" fill="black"/>
<defs>
<linearGradient id="paint0_linear_45_86" x1="0" y1="0" x2="148.4" y2="0" gradientUnits="userSpaceOnUse">
<stop stop-color="#76BA1B"/>
<stop offset="1" stop-color="#00C2FF"/>
</linearGradient>
</defs>
</svg>
