<svg width="1912" height="23" viewBox="0 0 1912 23" fill="none" xmlns="http://www.w3.org/2000/svg">
<g clip-path="url(#clip0_107_329)">
<g clip-path="url(#clip1_107_329)">
<path d="M1906.18 15.4787C1906.8 15.4787 1907.35 15.3691 1907.81 15.1498C1908.28 14.9306 1908.65 14.6274 1908.91 14.2401C1909.17 13.8528 1909.37 13.4217 1909.49 12.9467C1909.62 12.4718 1909.69 11.953 1909.69 11.3903V10.5025C1909.69 9.91792 1909.62 9.38084 1909.49 8.89126C1909.36 8.39437 1909.16 7.95229 1908.88 7.56501C1908.61 7.17042 1908.24 6.86352 1907.78 6.64431C1907.33 6.42509 1906.8 6.31549 1906.19 6.31549C1905.69 6.31549 1905.23 6.41048 1904.81 6.60046C1904.4 6.79045 1904.06 7.04255 1903.79 7.35676C1903.53 7.66366 1903.3 8.02536 1903.11 8.44187C1902.93 8.85107 1902.8 9.26758 1902.72 9.6914C1902.64 10.1152 1902.6 10.5427 1902.6 10.9738C1902.6 11.3976 1902.64 11.8178 1902.73 12.2343C1902.82 12.6508 1902.96 13.0563 1903.15 13.4509C1903.34 13.8455 1903.57 14.1926 1903.84 14.4922C1904.11 14.7845 1904.44 15.022 1904.84 15.2047C1905.25 15.3873 1905.7 15.4787 1906.18 15.4787ZM1903.36 22.5484L1903.2 20.8933H1905.44C1906.06 20.8933 1906.6 20.8494 1907.06 20.7618C1907.52 20.6741 1907.9 20.5279 1908.21 20.3233C1908.52 20.126 1908.76 19.9032 1908.95 19.6547C1909.14 19.4136 1909.29 19.0957 1909.38 18.7011C1909.48 18.3139 1909.55 17.9266 1909.58 17.5393C1909.62 17.1593 1909.63 16.6917 1909.63 16.1363V15.0731C1909.2 15.7015 1908.69 16.1875 1908.11 16.5309C1907.53 16.867 1906.8 17.0351 1905.91 17.0351C1905.22 17.0351 1904.59 16.9182 1904 16.6844C1903.42 16.4432 1902.93 16.1254 1902.53 15.7308C1902.14 15.3362 1901.8 14.8795 1901.51 14.3607C1901.23 13.8419 1901.03 13.3048 1900.9 12.7494C1900.77 12.1941 1900.71 11.6351 1900.71 11.0724C1900.71 10.1956 1900.82 9.38449 1901.03 8.63916C1901.25 7.89383 1901.57 7.22888 1901.99 6.64431C1902.42 6.05973 1902.97 5.60304 1903.66 5.27421C1904.36 4.93808 1905.15 4.77002 1906.04 4.77002C1906.83 4.77002 1907.52 4.92347 1908.1 5.23037C1908.69 5.52996 1909.22 5.99397 1909.69 6.62239V5.02212H1911.48V16.1802C1911.48 16.6917 1911.46 17.1374 1911.43 17.5174C1911.41 17.9046 1911.35 18.3321 1911.25 18.7998C1911.15 19.2674 1911.02 19.6693 1910.85 20.0055C1910.68 20.3416 1910.45 20.6777 1910.14 21.0138C1909.84 21.3573 1909.48 21.6313 1909.05 21.8359C1908.64 22.0478 1908.12 22.2195 1907.5 22.3511C1906.88 22.4826 1906.17 22.5484 1905.39 22.5484H1903.36Z" fill="#76BA1B"/>
<path d="M1888.53 17.0461V5.02212H1890.07L1890.3 6.74295C1890.77 6.15107 1891.37 5.67611 1892.08 5.31806C1892.79 4.9527 1893.56 4.77002 1894.39 4.77002C1895.78 4.77002 1896.8 5.16095 1897.47 5.94282C1898.13 6.71738 1898.47 7.9121 1898.47 9.52698V17.0461H1896.63C1896.63 12.2233 1896.63 9.64025 1896.62 9.29681C1896.59 8.27381 1896.39 7.52482 1896 7.04986C1895.62 6.57489 1894.98 6.33741 1894.08 6.33741C1893.14 6.33741 1892.35 6.56393 1891.72 7.01697C1891.1 7.47002 1890.69 8.05824 1890.5 8.78165C1890.42 9.27123 1890.39 9.83389 1890.39 10.4696V17.0461H1888.53Z" fill="#76BA1B"/>
<path d="M1885.08 5.02214V17.0461H1883.24V5.02214H1885.08ZM1885.08 0.648804V2.81903H1883.24V0.648804H1885.08Z" fill="#76BA1B"/>
<path d="M1877.4 17.2982C1875.63 17.2982 1874.25 16.7245 1873.24 15.5773C1872.25 14.4301 1871.75 12.9285 1871.75 11.0724C1871.76 9.20182 1872.27 7.68558 1873.28 6.52374C1874.29 5.35459 1875.68 4.77002 1877.44 4.77002C1878.06 4.77002 1878.66 4.84675 1879.24 5.0002C1879.82 5.15365 1880.29 5.35459 1880.62 5.60304L1880.12 7.02793C1879.26 6.56758 1878.36 6.33741 1877.41 6.33741C1876.25 6.33741 1875.33 6.76122 1874.65 7.60885C1873.98 8.45648 1873.64 9.61467 1873.64 11.0834C1873.64 12.5156 1873.97 13.6519 1874.64 14.4922C1875.31 15.3252 1876.24 15.7417 1877.42 15.7417C1878.36 15.7417 1879.33 15.486 1880.31 14.9745L1880.54 16.4323C1879.75 17.0095 1878.7 17.2982 1877.4 17.2982Z" fill="#76BA1B"/>
<path d="M1868.86 5.02214V17.0461H1867.02V5.02214H1868.86ZM1868.86 0.648804V2.81903H1867.02V0.648804H1868.86Z" fill="#76BA1B"/>
<path d="M1863.92 4.9126C1864.25 4.9126 1864.55 4.93452 1864.82 4.97836L1864.75 6.66632C1864.41 6.60786 1864.12 6.57863 1863.87 6.57863C1862.85 6.57863 1862.02 6.93668 1861.37 7.65279C1860.74 8.36158 1860.42 9.24209 1860.42 10.2943V17.0461H1858.59C1858.58 9.66591 1858.58 5.65793 1858.58 5.02221H1860.1L1860.28 7.18147C1860.69 6.50191 1861.22 5.95387 1861.87 5.53736C1862.51 5.12085 1863.19 4.9126 1863.92 4.9126Z" fill="#76BA1B"/>
<path d="M1847.78 17.0461H1845.84V0.648804H1851.13C1851.93 0.648804 1852.66 0.732836 1853.31 0.900901C1853.96 1.06897 1854.53 1.32472 1855.04 1.66815C1855.54 2.01159 1855.93 2.47194 1856.21 3.04921C1856.49 3.62647 1856.63 4.29873 1856.63 5.06599C1856.63 5.70171 1856.57 6.27167 1856.45 6.77586C1856.34 7.27275 1856.13 7.74041 1855.85 8.17884C1855.56 8.61727 1855.19 8.98263 1854.73 9.27491C1854.27 9.55989 1853.68 9.78641 1852.96 9.95448C1852.24 10.1152 1851.41 10.1956 1850.46 10.1956C1849.7 10.1956 1848.81 10.1481 1847.78 10.0531V17.0461ZM1850.64 8.51862C1851.36 8.51862 1851.97 8.4492 1852.48 8.31037C1853 8.17153 1853.39 7.99981 1853.66 7.79521C1853.94 7.59061 1854.15 7.3239 1854.3 6.99508C1854.47 6.66625 1854.56 6.36666 1854.6 6.0963C1854.64 5.81862 1854.66 5.48615 1854.66 5.09887C1854.66 4.17086 1854.34 3.48764 1853.71 3.04921C1853.09 2.61078 1852.24 2.39156 1851.17 2.39156H1847.78V8.4967C1849.19 8.51131 1850.15 8.51862 1850.64 8.51862Z" fill="#76BA1B"/>
<path d="M1790.6 22.2634V5.02212H1792.21L1792.38 6.65527C1793.44 5.39844 1794.7 4.77002 1796.18 4.77002C1797.27 4.77002 1798.2 5.04404 1798.96 5.59208C1799.72 6.14011 1800.28 6.88179 1800.64 7.81711C1801 8.75242 1801.18 9.84485 1801.18 11.0944C1801.18 12.2927 1800.99 13.3596 1800.59 14.2949C1800.2 15.2229 1799.62 15.9573 1798.85 16.498C1798.09 17.0314 1797.2 17.2982 1796.18 17.2982C1795.4 17.2982 1794.67 17.1264 1793.99 16.783C1793.31 16.4323 1792.77 15.9719 1792.36 15.4019C1792.4 16.1911 1792.43 16.9584 1792.43 17.7037V22.1428L1790.6 22.2634ZM1795.92 15.7527C1796.48 15.7527 1796.98 15.6285 1797.41 15.38C1797.85 15.1243 1798.21 14.7772 1798.48 14.3388C1798.75 13.9003 1798.95 13.4034 1799.09 12.8481C1799.23 12.2854 1799.3 11.6789 1799.3 11.0286C1799.3 9.65486 1799.01 8.52956 1798.43 7.6527C1797.86 6.76853 1797.01 6.32645 1795.9 6.32645C1793.58 6.32645 1792.42 7.82807 1792.42 10.8313C1792.42 12.4608 1792.69 13.6884 1793.23 14.5141C1793.77 15.3398 1794.67 15.7527 1795.92 15.7527Z" fill="black"/>
<path d="M1778.12 13.0344V5.02209H1779.96V13.0563C1779.96 13.5824 1780.04 14.0282 1780.18 14.3935C1780.34 14.7589 1780.55 15.0439 1780.83 15.2485C1781.12 15.4458 1781.43 15.5883 1781.78 15.6759C1782.14 15.7636 1782.55 15.8075 1783.01 15.8075C1783.96 15.8075 1784.7 15.5992 1785.23 15.1827C1785.76 14.7662 1786.03 14.0574 1786.03 13.0563V5.02209H1787.87V13.0344C1787.87 13.6482 1787.78 14.1999 1787.6 14.6895C1787.43 15.1791 1787.19 15.5883 1786.89 15.9171C1786.6 16.2386 1786.24 16.5053 1785.83 16.7172C1785.41 16.9291 1784.97 17.0826 1784.5 17.1776C1784.04 17.2726 1783.54 17.3201 1783.01 17.3201C1782.49 17.3201 1781.99 17.2726 1781.52 17.1776C1781.05 17.0826 1780.61 16.9291 1780.18 16.7172C1779.77 16.498 1779.41 16.2276 1779.1 15.9061C1778.8 15.5773 1778.56 15.1681 1778.39 14.6785C1778.21 14.1889 1778.12 13.6409 1778.12 13.0344Z" fill="black"/>
<path d="M1765.56 17.0461V5.02212H1767.1L1767.33 6.74295C1767.8 6.15107 1768.39 5.67611 1769.1 5.31806C1769.82 4.9527 1770.59 4.77002 1771.42 4.77002C1772.8 4.77002 1773.83 5.16095 1774.5 5.94282C1775.16 6.71738 1775.49 7.9121 1775.49 9.52698V17.0461H1773.66C1773.66 12.2233 1773.66 9.64024 1773.65 9.29681C1773.62 8.27381 1773.41 7.52482 1773.03 7.04986C1772.65 6.57489 1772.01 6.33741 1771.11 6.33741C1770.17 6.33741 1769.38 6.56393 1768.75 7.01697C1768.12 7.47002 1767.71 8.05824 1767.52 8.78165C1767.45 9.27123 1767.41 9.83389 1767.41 10.4696V17.0461H1765.56Z" fill="black"/>
<path d="M1757.21 15.4787C1757.83 15.4787 1758.38 15.3691 1758.84 15.1498C1759.31 14.9306 1759.68 14.6274 1759.94 14.2401C1760.2 13.8528 1760.4 13.4217 1760.52 12.9467C1760.65 12.4718 1760.72 11.953 1760.72 11.3903V10.5025C1760.72 9.91792 1760.65 9.38084 1760.52 8.89126C1760.39 8.39437 1760.18 7.95229 1759.91 7.56501C1759.64 7.17042 1759.27 6.86352 1758.81 6.64431C1758.36 6.42509 1757.83 6.31549 1757.22 6.31549C1756.72 6.31549 1756.26 6.41048 1755.84 6.60046C1755.43 6.79045 1755.09 7.04255 1754.82 7.35676C1754.56 7.66366 1754.33 8.02536 1754.14 8.44187C1753.96 8.85107 1753.83 9.26758 1753.75 9.6914C1753.67 10.1152 1753.63 10.5427 1753.63 10.9738C1753.63 11.3976 1753.67 11.8178 1753.76 12.2343C1753.84 12.6508 1753.98 13.0563 1754.17 13.4509C1754.36 13.8455 1754.59 14.1926 1754.86 14.4922C1755.13 14.7845 1755.47 15.022 1755.87 15.2047C1756.28 15.3873 1756.73 15.4787 1757.21 15.4787ZM1754.39 22.5484L1754.23 20.8933H1756.46C1757.09 20.8933 1757.63 20.8494 1758.09 20.7618C1758.55 20.6741 1758.93 20.5279 1759.24 20.3233C1759.54 20.126 1759.79 19.9032 1759.98 19.6547C1760.17 19.4136 1760.32 19.0957 1760.41 18.7011C1760.51 18.3139 1760.58 17.9266 1760.61 17.5393C1760.64 17.1593 1760.66 16.6917 1760.66 16.1363V15.0731C1760.22 15.7015 1759.72 16.1875 1759.14 16.5309C1758.56 16.867 1757.83 17.0351 1756.94 17.0351C1756.25 17.0351 1755.61 16.9182 1755.03 16.6844C1754.45 16.4432 1753.96 16.1254 1753.56 15.7308C1753.17 15.3362 1752.83 14.8795 1752.54 14.3607C1752.26 13.8419 1752.06 13.3048 1751.93 12.7494C1751.8 12.1941 1751.74 11.6351 1751.74 11.0724C1751.74 10.1956 1751.85 9.38449 1752.06 8.63916C1752.28 7.89383 1752.6 7.22888 1753.02 6.64431C1753.45 6.05973 1754 5.60304 1754.69 5.27421C1755.38 4.93808 1756.18 4.77002 1757.07 4.77002C1757.86 4.77002 1758.54 4.92347 1759.13 5.23037C1759.72 5.52996 1760.25 5.99397 1760.72 6.62239V5.02212H1762.5V16.1802C1762.5 16.6917 1762.49 17.1374 1762.46 17.5174C1762.44 17.9046 1762.38 18.3321 1762.27 18.7998C1762.18 19.2674 1762.05 19.6693 1761.88 20.0055C1761.71 20.3416 1761.47 20.6777 1761.17 21.0138C1760.87 21.3573 1760.51 21.6313 1760.08 21.8359C1759.66 22.0478 1759.15 22.2195 1758.52 22.3511C1757.9 22.4826 1757.2 22.5484 1756.42 22.5484H1754.39Z" fill="black"/>
<path d="M1749.09 5.02202V17.046H1747.25V5.02202H1749.09ZM1749.09 0.648682V2.81891H1747.25V0.648682H1749.09Z" fill="black"/>
<path d="M1740.06 17.2982C1739.24 17.2982 1738.48 17.2105 1737.79 17.0351C1737.1 16.8597 1736.54 16.6332 1736.11 16.3555L1736.34 14.8101C1737.56 15.4604 1738.76 15.7856 1739.94 15.7856C1741.72 15.7856 1742.64 15.1572 1742.69 13.9003C1742.69 13.3669 1742.5 12.9467 1742.12 12.6398C1741.74 12.3329 1740.99 11.9895 1739.88 11.6095L1738.97 11.2917C1737.92 10.9409 1737.17 10.5061 1736.71 9.98734C1736.27 9.46853 1736.04 8.82184 1736.03 8.04728C1736.03 7.10466 1736.41 6.32279 1737.16 5.70168C1737.92 5.08057 1738.96 4.77002 1740.28 4.77002C1741.63 4.77002 1742.87 5.03308 1743.99 5.55919L1743.45 6.96217C1742.32 6.49451 1741.26 6.26068 1740.28 6.26068C1739.51 6.26068 1738.91 6.41413 1738.47 6.72103C1738.04 7.02063 1737.82 7.44444 1737.82 7.99248C1737.82 8.46014 1737.98 8.81819 1738.29 9.06663C1738.61 9.31508 1739.23 9.60006 1740.18 9.92157C1740.42 10.0093 1740.72 10.1116 1741.09 10.2285C1742.3 10.6231 1743.16 11.0907 1743.66 11.6314C1744.17 12.1649 1744.42 12.8883 1744.42 13.8017C1744.4 14.9124 1744.01 15.7746 1743.22 16.3884C1742.44 16.9949 1741.39 17.2982 1740.06 17.2982Z" fill="black"/>
<path d="M1726.6 19.4354H1725.02L1732.43 0.977539H1734.03L1726.6 19.4354Z" fill="black"/>
<path d="M1713.06 17.0461V5.02212H1714.59L1714.82 6.74295C1715.3 6.15107 1715.89 5.67611 1716.6 5.31806C1717.32 4.9527 1718.09 4.77002 1718.91 4.77002C1720.3 4.77002 1721.33 5.16095 1721.99 5.94282C1722.66 6.71738 1722.99 7.9121 1722.99 9.52698V17.0461H1721.16C1721.16 12.2233 1721.16 9.64024 1721.15 9.29681C1721.12 8.27381 1720.91 7.52482 1720.52 7.04986C1720.14 6.57489 1719.5 6.33741 1718.61 6.33741C1717.66 6.33741 1716.88 6.56393 1716.25 7.01697C1715.62 7.47002 1715.21 8.05824 1715.02 8.78165C1714.95 9.27123 1714.91 9.83389 1714.91 10.4696V17.0461H1713.06Z" fill="black"/>
<path d="M1709.61 5.02202V17.046H1707.77V5.02202H1709.61ZM1709.61 0.648682V2.81891H1707.77V0.648682H1709.61Z" fill="black"/>
<path d="M1699.1 15.4787C1699.72 15.4787 1700.26 15.3691 1700.73 15.1498C1701.2 14.9306 1701.56 14.6274 1701.83 14.2401C1702.09 13.8528 1702.28 13.4217 1702.41 12.9467C1702.54 12.4718 1702.6 11.953 1702.6 11.3903V10.5025C1702.6 9.91792 1702.54 9.38084 1702.41 8.89126C1702.27 8.39437 1702.07 7.95229 1701.79 7.56501C1701.52 7.17042 1701.16 6.86352 1700.7 6.64431C1700.24 6.42509 1699.71 6.31549 1699.11 6.31549C1698.6 6.31549 1698.14 6.41048 1697.73 6.60046C1697.32 6.79045 1696.98 7.04255 1696.71 7.35676C1696.44 7.66366 1696.22 8.02536 1696.03 8.44187C1695.84 8.85107 1695.71 9.26758 1695.63 9.6914C1695.55 10.1152 1695.51 10.5427 1695.51 10.9738C1695.51 11.3976 1695.56 11.8178 1695.64 12.2343C1695.73 12.6508 1695.87 13.0563 1696.06 13.4509C1696.25 13.8455 1696.48 14.1926 1696.75 14.4922C1697.02 14.7845 1697.36 15.022 1697.76 15.2047C1698.17 15.3873 1698.61 15.4787 1699.1 15.4787ZM1696.28 22.5484L1696.11 20.8933H1698.35C1698.97 20.8933 1699.51 20.8494 1699.97 20.7618C1700.43 20.6741 1700.82 20.5279 1701.12 20.3233C1701.43 20.126 1701.68 19.9032 1701.87 19.6547C1702.06 19.4136 1702.2 19.0957 1702.3 18.7011C1702.4 18.3139 1702.46 17.9266 1702.49 17.5393C1702.53 17.1593 1702.55 16.6917 1702.55 16.1363V15.0731C1702.11 15.7015 1701.6 16.1875 1701.02 16.5309C1700.45 16.867 1699.71 17.0351 1698.82 17.0351C1698.13 17.0351 1697.5 16.9182 1696.91 16.6844C1696.34 16.4432 1695.85 16.1254 1695.45 15.7308C1695.05 15.3362 1694.71 14.8795 1694.43 14.3607C1694.15 13.8419 1693.94 13.3048 1693.81 12.7494C1693.69 12.1941 1693.63 11.6351 1693.63 11.0724C1693.63 10.1956 1693.73 9.38449 1693.94 8.63916C1694.16 7.89383 1694.49 7.22888 1694.91 6.64431C1695.33 6.05973 1695.89 5.60304 1696.57 5.27421C1697.27 4.93808 1698.06 4.77002 1698.95 4.77002C1699.74 4.77002 1700.43 4.92347 1701.01 5.23037C1701.61 5.52996 1702.14 5.99397 1702.6 6.62239V5.02212H1704.39V16.1802C1704.39 16.6917 1704.38 17.1374 1704.35 17.5174C1704.32 17.9046 1704.26 18.3321 1704.16 18.7998C1704.06 19.2674 1703.93 19.6693 1703.77 20.0055C1703.6 20.3416 1703.36 20.6777 1703.05 21.0138C1702.75 21.3573 1702.39 21.6313 1701.97 21.8359C1701.55 22.0478 1701.03 22.2195 1700.41 22.3511C1699.79 22.4826 1699.09 22.5484 1698.31 22.5484H1696.28Z" fill="black"/>
<path d="M1682.59 11.0615C1682.59 12.4864 1682.9 13.63 1683.53 14.4922C1684.17 15.3471 1685.09 15.7746 1686.3 15.7746C1687.5 15.7746 1688.41 15.3471 1689.01 14.4922C1689.63 13.6373 1689.93 12.4864 1689.93 11.0396C1689.93 9.57083 1689.63 8.41629 1689.02 7.57597C1688.42 6.72834 1687.51 6.30452 1686.27 6.30452C1685.07 6.30452 1684.16 6.73565 1683.53 7.59789C1682.9 8.46014 1682.59 9.61467 1682.59 11.0615ZM1691.83 11.0286C1691.83 12.8919 1691.33 14.4045 1690.34 15.5664C1689.34 16.7209 1687.97 17.2982 1686.22 17.2982C1684.53 17.2982 1683.18 16.7136 1682.18 15.5444C1681.19 14.3753 1680.69 12.8737 1680.69 11.0396C1680.69 9.16893 1681.19 7.65635 1682.19 6.50182C1683.2 5.34729 1684.57 4.77002 1686.32 4.77002C1688.03 4.77002 1689.38 5.35094 1690.36 6.51278C1691.34 7.66731 1691.83 9.17259 1691.83 11.0286Z" fill="black"/>
<path d="M1678.24 17.2652C1677.07 17.2652 1676.24 16.951 1675.75 16.3226C1675.27 15.6942 1675.03 14.6017 1675.03 13.0453V0.352772L1676.85 0.243164V12.3219C1676.85 12.8188 1676.85 13.217 1676.86 13.5166C1676.87 13.8162 1676.9 14.1122 1676.94 14.4045C1676.99 14.6894 1677.05 14.905 1677.12 15.0511C1677.19 15.1973 1677.3 15.3325 1677.44 15.4567C1677.58 15.5736 1677.74 15.654 1677.93 15.6978C1678.13 15.7344 1678.37 15.7526 1678.65 15.7526C1678.89 15.7526 1679.35 15.7088 1680.04 15.6211L1680.13 17.0789C1679.38 17.2031 1678.75 17.2652 1678.24 17.2652Z" fill="black"/>
<path d="M1625.92 17.2982C1625.1 17.2982 1624.35 17.2105 1623.65 17.0351C1622.97 16.8597 1622.41 16.6332 1621.98 16.3555L1622.21 14.8101C1623.43 15.4604 1624.62 15.7856 1625.8 15.7856C1627.58 15.7856 1628.5 15.1572 1628.55 13.9003C1628.55 13.3669 1628.36 12.9467 1627.98 12.6398C1627.6 12.3329 1626.86 11.9895 1625.75 11.6095L1624.84 11.2917C1623.78 10.9409 1623.03 10.5061 1622.58 9.98734C1622.13 9.46853 1621.91 8.82184 1621.9 8.04728C1621.9 7.10466 1622.28 6.32279 1623.03 5.70168C1623.79 5.08057 1624.83 4.77002 1626.14 4.77002C1627.5 4.77002 1628.74 5.03308 1629.86 5.55919L1629.32 6.96217C1628.19 6.49451 1627.13 6.26068 1626.14 6.26068C1625.37 6.26068 1624.77 6.41413 1624.33 6.72103C1623.9 7.02063 1623.69 7.44444 1623.69 7.99248C1623.69 8.46014 1623.84 8.81819 1624.16 9.06663C1624.47 9.31508 1625.1 9.60006 1626.04 9.92157C1626.28 10.0093 1626.59 10.1116 1626.95 10.2285C1628.17 10.6231 1629.02 11.0907 1629.53 11.6314C1630.03 12.1649 1630.28 12.8883 1630.28 13.8017C1630.27 14.9124 1629.87 15.7746 1629.09 16.3884C1628.31 16.9949 1627.25 17.2982 1625.92 17.2982Z" fill="black"/>
<path d="M1619.32 17.2652C1618.15 17.2652 1617.32 16.951 1616.84 16.3226C1616.35 15.6942 1616.11 14.6017 1616.11 13.0453V0.352772L1617.93 0.243164V12.3219C1617.93 12.8188 1617.93 13.217 1617.94 13.5166C1617.96 13.8162 1617.99 14.1122 1618.03 14.4045C1618.07 14.6894 1618.13 14.905 1618.21 15.0511C1618.28 15.1973 1618.38 15.3325 1618.52 15.4567C1618.66 15.5736 1618.83 15.654 1619.02 15.6978C1619.21 15.7344 1619.45 15.7526 1619.74 15.7526C1619.97 15.7526 1620.43 15.7088 1621.12 15.6211L1621.22 17.0789C1620.47 17.2031 1619.83 17.2652 1619.32 17.2652Z" fill="black"/>
<path d="M1604.25 11.0615C1604.25 12.4864 1604.57 13.63 1605.2 14.4922C1605.83 15.3471 1606.76 15.7746 1607.97 15.7746C1609.17 15.7746 1610.07 15.3471 1610.68 14.4922C1611.29 13.6373 1611.6 12.4864 1611.6 11.0396C1611.6 9.57083 1611.29 8.41629 1610.69 7.57597C1610.09 6.72834 1609.17 6.30452 1607.94 6.30452C1606.74 6.30452 1605.82 6.73565 1605.2 7.59789C1604.57 8.46014 1604.25 9.61467 1604.25 11.0615ZM1613.49 11.0286C1613.49 12.8919 1613 14.4045 1612 15.5664C1611.01 16.7209 1609.63 17.2982 1607.88 17.2982C1606.19 17.2982 1604.85 16.7136 1603.85 15.5444C1602.85 14.3753 1602.36 12.8737 1602.36 11.0396C1602.36 9.16893 1602.86 7.65635 1603.86 6.50182C1604.86 5.34729 1606.23 4.77002 1607.98 4.77002C1609.7 4.77002 1611.04 5.35094 1612.02 6.51278C1613 7.66731 1613.49 9.17259 1613.49 11.0286Z" fill="black"/>
<path d="M1591.08 11.0615C1591.08 12.4864 1591.39 13.63 1592.02 14.4922C1592.66 15.3471 1593.58 15.7746 1594.79 15.7746C1595.99 15.7746 1596.89 15.3471 1597.5 14.4922C1598.11 13.6373 1598.42 12.4864 1598.42 11.0396C1598.42 9.57083 1598.12 8.41629 1597.51 7.57597C1596.91 6.72834 1596 6.30452 1594.76 6.30452C1593.56 6.30452 1592.65 6.73565 1592.02 7.59789C1591.39 8.46014 1591.08 9.61467 1591.08 11.0615ZM1600.32 11.0286C1600.32 12.8919 1599.82 14.4045 1598.83 15.5664C1597.83 16.7209 1596.46 17.2982 1594.71 17.2982C1593.02 17.2982 1591.67 16.7136 1590.67 15.5444C1589.68 14.3753 1589.18 12.8737 1589.18 11.0396C1589.18 9.16893 1589.68 7.65635 1590.68 6.50182C1591.68 5.34729 1593.06 4.77002 1594.8 4.77002C1596.52 4.77002 1597.87 5.35094 1598.85 6.51278C1599.83 7.66731 1600.32 9.17259 1600.32 11.0286Z" fill="black"/>
<path d="M1583.57 17.046H1581.66V2.51208H1576.68V0.835083H1588.56V2.51208H1583.57V17.046Z" fill="black"/>
<path d="M1567.34 7.24715C1566.8 6.60412 1566.07 6.2826 1565.13 6.2826C1564.2 6.2826 1563.43 6.61508 1562.84 7.28003C1562.25 7.93768 1561.9 8.84011 1561.8 9.98734H1568.15C1568.15 8.79627 1567.88 7.88287 1567.34 7.24715ZM1565.5 17.2982C1563.75 17.2982 1562.37 16.7428 1561.36 15.6321C1560.36 14.5214 1559.86 13.0015 1559.86 11.0724C1559.86 9.20912 1560.35 7.70019 1561.32 6.54566C1562.29 5.38382 1563.57 4.79194 1565.16 4.77002C1566.65 4.77002 1567.83 5.28152 1568.7 6.30452C1569.57 7.32022 1570.01 8.67935 1570.01 10.3819C1570.01 10.4696 1570.01 10.6304 1570 10.8642C1570 11.098 1570 11.2661 1570 11.3684H1561.75C1561.77 12.7348 1562.12 13.8017 1562.8 14.5689C1563.49 15.3289 1564.41 15.7088 1565.56 15.7088C1566.83 15.7088 1568.11 15.3727 1569.39 14.7005L1569.67 16.1802C1568.45 16.9255 1567.06 17.2982 1565.5 17.2982Z" fill="black"/>
<path d="M1557.84 4.91248C1558.17 4.91248 1558.47 4.9344 1558.74 4.97824L1558.68 6.6662C1558.34 6.60774 1558.05 6.57851 1557.8 6.57851C1556.78 6.57851 1555.94 6.93656 1555.3 7.65266C1554.67 8.36146 1554.35 9.24197 1554.35 10.2942V17.046H1552.52C1552.51 9.66579 1552.51 5.65781 1552.51 5.02208H1554.03L1554.21 7.18135C1554.62 6.50178 1555.15 5.95375 1555.8 5.53724C1556.44 5.12073 1557.12 4.91248 1557.84 4.91248Z" fill="black"/>
<path d="M1540.61 11.0615C1540.61 12.4864 1540.93 13.63 1541.56 14.4922C1542.19 15.3471 1543.12 15.7746 1544.33 15.7746C1545.53 15.7746 1546.43 15.3471 1547.04 14.4922C1547.65 13.6373 1547.96 12.4864 1547.96 11.0396C1547.96 9.57083 1547.65 8.41629 1547.05 7.57597C1546.45 6.72834 1545.53 6.30452 1544.3 6.30452C1543.1 6.30452 1542.19 6.73565 1541.56 7.59789C1540.93 8.46014 1540.61 9.61467 1540.61 11.0615ZM1549.85 11.0286C1549.85 12.8919 1549.36 14.4045 1548.36 15.5664C1547.37 16.7209 1546 17.2982 1544.24 17.2982C1542.55 17.2982 1541.21 16.7136 1540.21 15.5444C1539.22 14.3753 1538.72 12.8737 1538.72 11.0396C1538.72 9.16893 1539.22 7.65635 1540.22 6.50182C1541.22 5.34729 1542.59 4.77002 1544.34 4.77002C1546.06 4.77002 1547.41 5.35094 1548.39 6.51278C1549.36 7.66731 1549.85 9.17259 1549.85 11.0286Z" fill="black"/>
<path d="M1526.79 16.0486L1521.82 4.47405L1521.4 3.36702L1521.48 7.33481V17.046H1519.7V0.835083H1522.16L1527.8 13.7468L1533.39 0.835083H1535.78V17.046H1533.94V7.29096L1534.02 3.41086L1533.61 4.51789L1528.65 16.0486H1526.79Z" fill="black"/>
<path d="M1468.95 17.2982C1468.13 17.2982 1467.38 17.2105 1466.68 17.0351C1466 16.8597 1465.44 16.6332 1465.01 16.3555L1465.24 14.8101C1466.46 15.4604 1467.65 15.7856 1468.83 15.7856C1470.61 15.7856 1471.53 15.1572 1471.58 13.9003C1471.58 13.3669 1471.39 12.9467 1471.01 12.6398C1470.63 12.3329 1469.89 11.9895 1468.78 11.6095L1467.87 11.2917C1466.81 10.9409 1466.06 10.5061 1465.61 9.98734C1465.16 9.46853 1464.94 8.82184 1464.93 8.04728C1464.93 7.10466 1465.31 6.32279 1466.06 5.70168C1466.82 5.08057 1467.86 4.77002 1469.17 4.77002C1470.53 4.77002 1471.77 5.03308 1472.89 5.55919L1472.35 6.96217C1471.22 6.49451 1470.16 6.26068 1469.17 6.26068C1468.4 6.26068 1467.8 6.41413 1467.36 6.72103C1466.93 7.02063 1466.72 7.44444 1466.72 7.99248C1466.72 8.46014 1466.87 8.81819 1467.19 9.06663C1467.5 9.31508 1468.13 9.60006 1469.07 9.92157C1469.31 10.0093 1469.62 10.1116 1469.98 10.2285C1471.19 10.6231 1472.05 11.0907 1472.56 11.6314C1473.06 12.1649 1473.31 12.8883 1473.31 13.8017C1473.3 14.9124 1472.9 15.7746 1472.12 16.3884C1471.34 16.9949 1470.28 17.2982 1468.95 17.2982Z" fill="black"/>
<path d="M1458.49 17.2982C1457.68 17.2982 1456.92 17.2105 1456.23 17.0351C1455.54 16.8597 1454.98 16.6332 1454.55 16.3555L1454.78 14.8101C1456 15.4604 1457.2 15.7856 1458.37 15.7856C1460.16 15.7856 1461.07 15.1572 1461.13 13.9003C1461.13 13.3669 1460.94 12.9467 1460.56 12.6398C1460.18 12.3329 1459.43 11.9895 1458.32 11.6095L1457.41 11.2917C1456.36 10.9409 1455.6 10.5061 1455.15 9.98734C1454.71 9.46853 1454.48 8.82184 1454.47 8.04728C1454.47 7.10466 1454.85 6.32279 1455.6 5.70168C1456.36 5.08057 1457.4 4.77002 1458.71 4.77002C1460.07 4.77002 1461.31 5.03308 1462.43 5.55919L1461.89 6.96217C1460.76 6.49451 1459.7 6.26068 1458.71 6.26068C1457.95 6.26068 1457.34 6.41413 1456.91 6.72103C1456.47 7.02063 1456.26 7.44444 1456.26 7.99248C1456.26 8.46014 1456.42 8.81819 1456.73 9.06663C1457.04 9.31508 1457.67 9.60006 1458.62 9.92157C1458.86 10.0093 1459.16 10.1116 1459.53 10.2285C1460.74 10.6231 1461.6 11.0907 1462.1 11.6314C1462.61 12.1649 1462.86 12.8883 1462.86 13.8017C1462.84 14.9124 1462.44 15.7746 1461.66 16.3884C1460.88 16.9949 1459.82 17.2982 1458.49 17.2982Z" fill="black"/>
<path d="M1449.69 7.24715C1449.16 6.60412 1448.43 6.2826 1447.49 6.2826C1446.56 6.2826 1445.79 6.61508 1445.2 7.28003C1444.61 7.93768 1444.26 8.84011 1444.16 9.98734H1450.5C1450.5 8.79627 1450.23 7.88287 1449.69 7.24715ZM1447.85 17.2982C1446.11 17.2982 1444.73 16.7428 1443.72 15.6321C1442.72 14.5214 1442.22 13.0015 1442.22 11.0724C1442.22 9.20912 1442.7 7.70019 1443.68 6.54566C1444.65 5.38382 1445.93 4.79194 1447.51 4.77002C1449 4.77002 1450.18 5.28152 1451.05 6.30452C1451.93 7.32022 1452.37 8.67935 1452.37 10.3819C1452.37 10.4696 1452.36 10.6304 1452.36 10.8642C1452.36 11.098 1452.36 11.2661 1452.36 11.3684H1444.1C1444.13 12.7348 1444.48 13.8017 1445.16 14.5689C1445.84 15.3289 1446.76 15.7088 1447.92 15.7088C1449.19 15.7088 1450.46 15.3727 1451.74 14.7005L1452.03 16.1802C1450.81 16.9255 1449.42 17.2982 1447.85 17.2982Z" fill="black"/>
<path d="M1440.2 4.91248C1440.53 4.91248 1440.83 4.9344 1441.1 4.97824L1441.03 6.6662C1440.7 6.60774 1440.41 6.57851 1440.16 6.57851C1439.13 6.57851 1438.3 6.93656 1437.66 7.65266C1437.02 8.36146 1436.7 9.24197 1436.7 10.2942V17.046H1434.87C1434.87 9.66579 1434.86 5.65781 1434.86 5.02208H1436.39L1436.56 7.18135C1436.98 6.50178 1437.51 5.95375 1438.15 5.53724C1438.79 5.12073 1439.48 4.91248 1440.2 4.91248Z" fill="black"/>
<path d="M1421.63 22.2634V5.02212H1423.25L1423.42 6.65527C1424.47 5.39844 1425.74 4.77002 1427.21 4.77002C1428.31 4.77002 1429.24 5.04404 1430 5.59208C1430.76 6.14011 1431.32 6.88179 1431.67 7.81711C1432.04 8.75242 1432.22 9.84485 1432.22 11.0944C1432.22 12.2927 1432.02 13.3596 1431.63 14.2949C1431.24 15.2229 1430.65 15.9573 1429.89 16.498C1429.13 17.0314 1428.24 17.2982 1427.21 17.2982C1426.44 17.2982 1425.71 17.1264 1425.03 16.783C1424.35 16.4323 1423.81 15.9719 1423.4 15.4019C1423.44 16.1911 1423.46 16.9584 1423.46 17.7037V22.1428L1421.63 22.2634ZM1426.96 15.7527C1427.52 15.7527 1428.01 15.6285 1428.45 15.38C1428.89 15.1243 1429.24 14.7772 1429.51 14.3388C1429.78 13.9003 1429.99 13.4034 1430.13 12.8481C1430.27 12.2854 1430.34 11.6789 1430.34 11.0286C1430.34 9.65486 1430.05 8.52956 1429.47 7.6527C1428.89 6.76853 1428.05 6.32645 1426.94 6.32645C1424.62 6.32645 1423.45 7.82807 1423.45 10.8313C1423.45 12.4608 1423.72 13.6884 1424.26 14.5141C1424.81 15.3398 1425.71 15.7527 1426.96 15.7527Z" fill="black"/>
<path d="M1417.46 17.0461V10.7875C1417.46 10.2029 1417.44 9.71332 1417.41 9.31873C1417.39 8.92414 1417.33 8.52225 1417.24 8.11305C1417.15 7.70385 1417.02 7.38233 1416.85 7.1485C1416.69 6.90737 1416.47 6.71373 1416.18 6.56758C1415.88 6.41413 1415.53 6.33741 1415.12 6.33741C1414.32 6.33741 1413.63 6.55297 1413.06 6.98409C1412.5 7.41521 1412.1 8.02171 1411.86 8.80357C1411.79 9.32969 1411.76 9.89234 1411.76 10.4915V17.0461H1409.93V10.5902C1409.93 10.0494 1409.91 9.58179 1409.87 9.1872C1409.84 8.78531 1409.77 8.39803 1409.66 8.02536C1409.56 7.64539 1409.42 7.33849 1409.25 7.10466C1409.08 6.87083 1408.85 6.6845 1408.57 6.54566C1408.28 6.40682 1407.94 6.33741 1407.55 6.33741C1406.67 6.33741 1405.93 6.56027 1405.34 7.00601C1404.74 7.45175 1404.35 8.04363 1404.14 8.78165C1404.07 9.34431 1404.04 9.95445 1404.04 10.6121V17.0461H1402.21C1402.2 9.52698 1402.19 5.519 1402.19 5.02212H1403.72L1403.95 6.74295C1404.32 6.18761 1404.84 5.71995 1405.51 5.33998C1406.18 4.96001 1406.95 4.77002 1407.8 4.77002C1408.25 4.77002 1408.66 4.81752 1409.03 4.91251C1409.41 5.00019 1409.72 5.11346 1409.97 5.25229C1410.23 5.39113 1410.45 5.55919 1410.65 5.75649C1410.85 5.94647 1411 6.13646 1411.11 6.32645C1411.22 6.50912 1411.31 6.70277 1411.39 6.90737C1412.26 5.48247 1413.6 4.77002 1415.41 4.77002C1416.75 4.77002 1417.72 5.15365 1418.35 5.9209C1418.97 6.68084 1419.29 7.8098 1419.29 9.30777V17.0461H1417.46Z" fill="black"/>
<path d="M1390.35 11.0615C1390.35 12.4864 1390.67 13.63 1391.29 14.4922C1391.93 15.3471 1392.85 15.7746 1394.07 15.7746C1395.27 15.7746 1396.17 15.3471 1396.77 14.4922C1397.39 13.6373 1397.7 12.4864 1397.7 11.0396C1397.7 9.57083 1397.39 8.41629 1396.79 7.57597C1396.19 6.72834 1395.27 6.30452 1394.03 6.30452C1392.84 6.30452 1391.92 6.73565 1391.29 7.59789C1390.67 8.46014 1390.35 9.61467 1390.35 11.0615ZM1399.59 11.0286C1399.59 12.8919 1399.09 14.4045 1398.1 15.5664C1397.11 16.7209 1395.73 17.2982 1393.98 17.2982C1392.29 17.2982 1390.95 16.7136 1389.95 15.5444C1388.95 14.3753 1388.46 12.8737 1388.46 11.0396C1388.46 9.16893 1388.96 7.65635 1389.96 6.50182C1390.96 5.34729 1392.33 4.77002 1394.08 4.77002C1395.8 4.77002 1397.14 5.35094 1398.12 6.51278C1399.1 7.66731 1399.59 9.17259 1399.59 11.0286Z" fill="black"/>
<path d="M1382.33 2.22707C1381.11 2.22707 1380.06 2.52301 1379.17 3.11489C1378.3 3.70677 1377.64 4.50325 1377.21 5.50433C1376.78 6.50541 1376.56 7.65629 1376.56 8.95697C1376.56 9.92882 1376.68 10.8166 1376.91 11.6204C1377.15 12.4169 1377.5 13.1184 1377.97 13.7249C1378.43 14.3241 1379.04 14.7917 1379.79 15.1279C1380.54 15.4567 1381.4 15.6211 1382.37 15.6211C1383.62 15.6211 1384.92 15.2959 1386.25 14.6456L1386.57 16.2568C1385.48 16.9437 1384.01 17.2871 1382.15 17.2871C1380.93 17.2871 1379.84 17.0862 1378.87 16.6843C1377.9 16.2751 1377.1 15.7015 1376.46 14.9635C1375.84 14.2181 1375.36 13.334 1375.03 12.311C1374.7 11.2806 1374.54 10.1371 1374.54 8.88024C1374.54 7.66725 1374.71 6.54926 1375.07 5.52625C1375.43 4.50325 1375.93 3.62639 1376.59 2.89568C1377.24 2.15765 1378.06 1.58404 1379.04 1.17484C1380.02 0.765636 1381.11 0.561035 1382.31 0.561035C1384.13 0.561035 1385.66 0.962929 1386.91 1.76672L1386.16 3.31218C1384.97 2.58877 1383.69 2.22707 1382.33 2.22707Z" fill="black"/>
<path d="M1366.88 11.5985V9.9873H1372.37V11.5985H1366.88Z" fill="black"/>
<path d="M1362.29 7.24715C1361.76 6.60412 1361.02 6.2826 1360.09 6.2826C1359.15 6.2826 1358.39 6.61508 1357.8 7.28003C1357.21 7.93768 1356.86 8.84011 1356.76 9.98734H1363.1C1363.1 8.79627 1362.83 7.88287 1362.29 7.24715ZM1360.45 17.2982C1358.7 17.2982 1357.33 16.7428 1356.32 15.6321C1355.32 14.5214 1354.82 13.0015 1354.82 11.0724C1354.82 9.20912 1355.3 7.70019 1356.27 6.54566C1357.25 5.38382 1358.53 4.79194 1360.11 4.77002C1361.6 4.77002 1362.78 5.28152 1363.65 6.30452C1364.53 7.32022 1364.97 8.67935 1364.97 10.3819C1364.97 10.4696 1364.96 10.6304 1364.96 10.8642C1364.96 11.098 1364.96 11.2661 1364.96 11.3684H1356.7C1356.72 12.7348 1357.08 13.8017 1357.75 14.5689C1358.44 15.3289 1359.36 15.7088 1360.52 15.7088C1361.79 15.7088 1363.06 15.3727 1364.34 14.7005L1364.63 16.1802C1363.41 16.9255 1362.01 17.2982 1360.45 17.2982Z" fill="black"/>
<path d="M1350.54 8.97892C1350.54 6.7137 1349.96 5.06593 1348.79 4.03562C1347.62 3.00531 1345.92 2.49016 1343.68 2.49016H1341.14V15.391H1344C1346.13 15.391 1347.75 14.8539 1348.87 13.7797C1349.98 12.6983 1350.54 11.098 1350.54 8.97892ZM1352.57 8.92412C1352.57 11.562 1351.82 13.5751 1350.32 14.9635C1348.83 16.3518 1346.74 17.046 1344.05 17.046H1339.24V0.835083H1343.74C1345.09 0.835083 1346.3 0.995841 1347.36 1.31736C1348.43 1.63156 1349.36 2.11384 1350.14 2.76417C1350.93 3.40721 1351.53 4.25118 1351.95 5.29611C1352.36 6.33372 1352.57 7.54306 1352.57 8.92412Z" fill="black"/>
<path d="M1289.72 17.2982C1288.9 17.2982 1288.15 17.2105 1287.45 17.0351C1286.77 16.8597 1286.21 16.6332 1285.78 16.3555L1286.01 14.8101C1287.23 15.4604 1288.42 15.7856 1289.6 15.7856C1291.38 15.7856 1292.3 15.1572 1292.35 13.9003C1292.35 13.3669 1292.16 12.9467 1291.78 12.6398C1291.4 12.3329 1290.66 11.9895 1289.55 11.6095L1288.64 11.2917C1287.58 10.9409 1286.83 10.5061 1286.38 9.98734C1285.93 9.46853 1285.71 8.82184 1285.7 8.04728C1285.7 7.10466 1286.08 6.32279 1286.83 5.70168C1287.59 5.08057 1288.63 4.77002 1289.94 4.77002C1291.3 4.77002 1292.54 5.03308 1293.66 5.55919L1293.12 6.96217C1291.99 6.49451 1290.93 6.26068 1289.94 6.26068C1289.17 6.26068 1288.57 6.41413 1288.13 6.72103C1287.7 7.02063 1287.49 7.44444 1287.49 7.99248C1287.49 8.46014 1287.64 8.81819 1287.96 9.06663C1288.27 9.31508 1288.9 9.60006 1289.84 9.92157C1290.08 10.0093 1290.39 10.1116 1290.75 10.2285C1291.96 10.6231 1292.82 11.0907 1293.33 11.6314C1293.83 12.1649 1294.08 12.8883 1294.08 13.8017C1294.07 14.9124 1293.67 15.7746 1292.89 16.3884C1292.11 16.9949 1291.05 17.2982 1289.72 17.2982Z" fill="black"/>
<path d="M1279.26 17.2982C1278.45 17.2982 1277.69 17.2105 1277 17.0351C1276.31 16.8597 1275.75 16.6332 1275.32 16.3555L1275.55 14.8101C1276.77 15.4604 1277.97 15.7856 1279.14 15.7856C1280.93 15.7856 1281.84 15.1572 1281.9 13.9003C1281.9 13.3669 1281.71 12.9467 1281.33 12.6398C1280.95 12.3329 1280.2 11.9895 1279.09 11.6095L1278.18 11.2917C1277.13 10.9409 1276.37 10.5061 1275.92 9.98734C1275.48 9.46853 1275.25 8.82184 1275.24 8.04728C1275.24 7.10466 1275.62 6.32279 1276.37 5.70168C1277.13 5.08057 1278.17 4.77002 1279.48 4.77002C1280.84 4.77002 1282.08 5.03308 1283.2 5.55919L1282.66 6.96217C1281.53 6.49451 1280.47 6.26068 1279.48 6.26068C1278.72 6.26068 1278.11 6.41413 1277.68 6.72103C1277.24 7.02063 1277.03 7.44444 1277.03 7.99248C1277.03 8.46014 1277.19 8.81819 1277.5 9.06663C1277.81 9.31508 1278.44 9.60006 1279.39 9.92157C1279.63 10.0093 1279.93 10.1116 1280.3 10.2285C1281.51 10.6231 1282.37 11.0907 1282.87 11.6314C1283.38 12.1649 1283.63 12.8883 1283.63 13.8017C1283.61 14.9124 1283.21 15.7746 1282.43 16.3884C1281.65 16.9949 1280.59 17.2982 1279.26 17.2982Z" fill="black"/>
<path d="M1270.46 7.24715C1269.93 6.60412 1269.2 6.2826 1268.26 6.2826C1267.33 6.2826 1266.56 6.61508 1265.97 7.28003C1265.38 7.93768 1265.03 8.84011 1264.93 9.98734H1271.27C1271.27 8.79627 1271 7.88287 1270.46 7.24715ZM1268.62 17.2982C1266.88 17.2982 1265.5 16.7428 1264.49 15.6321C1263.49 14.5214 1262.99 13.0015 1262.99 11.0724C1262.99 9.20912 1263.47 7.70019 1264.45 6.54566C1265.42 5.38382 1266.7 4.79194 1268.28 4.77002C1269.77 4.77002 1270.95 5.28152 1271.82 6.30452C1272.7 7.32022 1273.14 8.67935 1273.14 10.3819C1273.14 10.4696 1273.13 10.6304 1273.13 10.8642C1273.13 11.098 1273.13 11.2661 1273.13 11.3684H1264.87C1264.9 12.7348 1265.25 13.8017 1265.93 14.5689C1266.61 15.3289 1267.53 15.7088 1268.69 15.7088C1269.96 15.7088 1271.23 15.3727 1272.51 14.7005L1272.8 16.1802C1271.58 16.9255 1270.19 17.2982 1268.62 17.2982Z" fill="black"/>
<path d="M1260.97 4.91248C1261.3 4.91248 1261.6 4.9344 1261.87 4.97824L1261.8 6.6662C1261.47 6.60774 1261.18 6.57851 1260.93 6.57851C1259.9 6.57851 1259.07 6.93656 1258.43 7.65266C1257.79 8.36146 1257.47 9.24197 1257.47 10.2942V17.046H1255.64C1255.64 9.66579 1255.63 5.65781 1255.63 5.02208H1257.16L1257.33 7.18135C1257.75 6.50178 1258.28 5.95375 1258.92 5.53724C1259.56 5.12073 1260.25 4.91248 1260.97 4.91248Z" fill="black"/>
<path d="M1242.4 22.2634V5.02212H1244.02L1244.19 6.65527C1245.24 5.39844 1246.51 4.77002 1247.98 4.77002C1249.08 4.77002 1250.01 5.04404 1250.77 5.59208C1251.53 6.14011 1252.09 6.88179 1252.44 7.81711C1252.81 8.75242 1252.99 9.84485 1252.99 11.0944C1252.99 12.2927 1252.79 13.3596 1252.4 14.2949C1252.01 15.2229 1251.42 15.9573 1250.66 16.498C1249.9 17.0314 1249.01 17.2982 1247.98 17.2982C1247.21 17.2982 1246.48 17.1264 1245.8 16.783C1245.12 16.4323 1244.58 15.9719 1244.17 15.4019C1244.21 16.1911 1244.23 16.9584 1244.23 17.7037V22.1428L1242.4 22.2634ZM1247.73 15.7527C1248.29 15.7527 1248.78 15.6285 1249.22 15.38C1249.66 15.1243 1250.01 14.7772 1250.28 14.3388C1250.55 13.9003 1250.76 13.4034 1250.9 12.8481C1251.04 12.2854 1251.11 11.6789 1251.11 11.0286C1251.11 9.65486 1250.82 8.52956 1250.24 7.6527C1249.66 6.76853 1248.82 6.32645 1247.71 6.32645C1245.39 6.32645 1244.22 7.82807 1244.22 10.8313C1244.22 12.4608 1244.49 13.6884 1245.03 14.5141C1245.58 15.3398 1246.48 15.7527 1247.73 15.7527Z" fill="black"/>
<path d="M1238.23 17.0461V10.7875C1238.23 10.2029 1238.21 9.71332 1238.18 9.31873C1238.16 8.92414 1238.1 8.52225 1238.01 8.11305C1237.92 7.70385 1237.79 7.38233 1237.62 7.1485C1237.46 6.90737 1237.24 6.71373 1236.95 6.56758C1236.65 6.41413 1236.3 6.33741 1235.89 6.33741C1235.09 6.33741 1234.4 6.55297 1233.83 6.98409C1233.27 7.41521 1232.87 8.02171 1232.63 8.80357C1232.56 9.32969 1232.53 9.89234 1232.53 10.4915V17.0461H1230.7V10.5902C1230.7 10.0494 1230.68 9.58179 1230.64 9.1872C1230.61 8.78531 1230.54 8.39803 1230.43 8.02536C1230.33 7.64539 1230.19 7.33849 1230.02 7.10466C1229.85 6.87083 1229.62 6.6845 1229.34 6.54566C1229.05 6.40682 1228.71 6.33741 1228.32 6.33741C1227.44 6.33741 1226.7 6.56027 1226.11 7.00601C1225.51 7.45175 1225.12 8.04363 1224.91 8.78165C1224.84 9.34431 1224.81 9.95445 1224.81 10.6121V17.0461H1222.98C1222.97 9.52698 1222.96 5.519 1222.96 5.02212H1224.49L1224.72 6.74295C1225.09 6.18761 1225.61 5.71995 1226.28 5.33998C1226.95 4.96001 1227.72 4.77002 1228.57 4.77002C1229.02 4.77002 1229.43 4.81752 1229.8 4.91251C1230.18 5.00019 1230.49 5.11346 1230.74 5.25229C1231 5.39113 1231.22 5.55919 1231.42 5.75649C1231.62 5.94647 1231.77 6.13646 1231.88 6.32645C1231.99 6.50912 1232.08 6.70277 1232.16 6.90737C1233.03 5.48247 1234.37 4.77002 1236.18 4.77002C1237.52 4.77002 1238.49 5.15365 1239.12 5.9209C1239.74 6.68084 1240.06 7.8098 1240.06 9.30777V17.0461H1238.23Z" fill="black"/>
<path d="M1211.12 11.0615C1211.12 12.4864 1211.44 13.63 1212.06 14.4922C1212.7 15.3471 1213.62 15.7746 1214.84 15.7746C1216.04 15.7746 1216.94 15.3471 1217.54 14.4922C1218.16 13.6373 1218.47 12.4864 1218.47 11.0396C1218.47 9.57083 1218.16 8.41629 1217.56 7.57597C1216.96 6.72834 1216.04 6.30452 1214.8 6.30452C1213.61 6.30452 1212.69 6.73565 1212.06 7.59789C1211.44 8.46014 1211.12 9.61467 1211.12 11.0615ZM1220.36 11.0286C1220.36 12.8919 1219.86 14.4045 1218.87 15.5664C1217.88 16.7209 1216.5 17.2982 1214.75 17.2982C1213.06 17.2982 1211.72 16.7136 1210.72 15.5444C1209.72 14.3753 1209.23 12.8737 1209.23 11.0396C1209.23 9.16893 1209.73 7.65635 1210.73 6.50182C1211.73 5.34729 1213.1 4.77002 1214.85 4.77002C1216.57 4.77002 1217.91 5.35094 1218.89 6.51278C1219.87 7.66731 1220.36 9.17259 1220.36 11.0286Z" fill="black"/>
<path d="M1203.1 2.22707C1201.88 2.22707 1200.83 2.52301 1199.94 3.11489C1199.07 3.70677 1198.41 4.50325 1197.98 5.50433C1197.55 6.50541 1197.33 7.65629 1197.33 8.95697C1197.33 9.92882 1197.45 10.8166 1197.68 11.6204C1197.92 12.4169 1198.27 13.1184 1198.74 13.7249C1199.2 14.3241 1199.81 14.7917 1200.56 15.1279C1201.31 15.4567 1202.17 15.6211 1203.14 15.6211C1204.39 15.6211 1205.69 15.2959 1207.02 14.6456L1207.34 16.2568C1206.25 16.9437 1204.78 17.2871 1202.92 17.2871C1201.7 17.2871 1200.61 17.0862 1199.64 16.6843C1198.67 16.2751 1197.87 15.7015 1197.23 14.9635C1196.61 14.2181 1196.13 13.334 1195.8 12.311C1195.47 11.2806 1195.31 10.1371 1195.31 8.88024C1195.31 7.66725 1195.48 6.54926 1195.84 5.52625C1196.2 4.50325 1196.7 3.62639 1197.36 2.89568C1198.01 2.15765 1198.83 1.58404 1199.81 1.17484C1200.79 0.765636 1201.88 0.561035 1203.08 0.561035C1204.9 0.561035 1206.43 0.962929 1207.68 1.76672L1206.94 3.31218C1205.74 2.58877 1204.46 2.22707 1203.1 2.22707Z" fill="black"/>
<path d="M1148.19 7.24715C1147.66 6.60412 1146.92 6.2826 1145.99 6.2826C1145.05 6.2826 1144.29 6.61508 1143.7 7.28003C1143.11 7.93768 1142.76 8.84011 1142.66 9.98734H1149C1149 8.79627 1148.73 7.88287 1148.19 7.24715ZM1146.35 17.2982C1144.6 17.2982 1143.23 16.7428 1142.22 15.6321C1141.22 14.5214 1140.72 13.0015 1140.72 11.0724C1140.72 9.20912 1141.2 7.70019 1142.17 6.54566C1143.15 5.38382 1144.42 4.79194 1146.01 4.77002C1147.5 4.77002 1148.68 5.28152 1149.55 6.30452C1150.43 7.32022 1150.87 8.67935 1150.87 10.3819C1150.87 10.4696 1150.86 10.6304 1150.86 10.8642C1150.86 11.098 1150.86 11.2661 1150.86 11.3684H1142.6C1142.62 12.7348 1142.97 13.8017 1143.65 14.5689C1144.34 15.3289 1145.26 15.7088 1146.42 15.7088C1147.69 15.7088 1148.96 15.3727 1150.24 14.7005L1150.53 16.1802C1149.31 16.9255 1147.91 17.2982 1146.35 17.2982Z" fill="black"/>
<path d="M1137.09 17.0461V10.7875C1137.09 10.2029 1137.07 9.71332 1137.04 9.31873C1137.02 8.92414 1136.96 8.52225 1136.87 8.11305C1136.78 7.70385 1136.65 7.38233 1136.49 7.1485C1136.32 6.90737 1136.1 6.71373 1135.81 6.56758C1135.51 6.41413 1135.16 6.33741 1134.75 6.33741C1133.95 6.33741 1133.26 6.55297 1132.69 6.98409C1132.13 7.41521 1131.73 8.02171 1131.49 8.80357C1131.42 9.32969 1131.39 9.89234 1131.39 10.4915V17.0461H1129.56V10.5902C1129.56 10.0494 1129.54 9.58179 1129.5 9.1872C1129.47 8.78531 1129.4 8.39803 1129.3 8.02536C1129.19 7.64539 1129.05 7.33849 1128.88 7.10466C1128.71 6.87083 1128.48 6.6845 1128.2 6.54566C1127.91 6.40682 1127.57 6.33741 1127.18 6.33741C1126.3 6.33741 1125.56 6.56027 1124.97 7.00601C1124.37 7.45175 1123.98 8.04363 1123.77 8.78165C1123.71 9.34431 1123.67 9.95445 1123.67 10.6121V17.0461H1121.84C1121.83 9.52698 1121.82 5.519 1121.82 5.02212H1123.35L1123.58 6.74295C1123.95 6.18761 1124.47 5.71995 1125.14 5.33998C1125.81 4.96001 1126.58 4.77002 1127.43 4.77002C1127.88 4.77002 1128.29 4.81752 1128.66 4.91251C1129.04 5.00019 1129.35 5.11346 1129.6 5.25229C1129.86 5.39113 1130.08 5.55919 1130.28 5.75649C1130.48 5.94647 1130.63 6.13646 1130.74 6.32645C1130.85 6.50912 1130.94 6.70277 1131.02 6.90737C1131.89 5.48247 1133.23 4.77002 1135.04 4.77002C1136.38 4.77002 1137.35 5.15365 1137.98 5.9209C1138.6 6.68084 1138.92 7.8098 1138.92 9.30777V17.0461H1137.09Z" fill="black"/>
<path d="M1109.98 11.0615C1109.98 12.4864 1110.3 13.63 1110.92 14.4922C1111.56 15.3471 1112.48 15.7746 1113.7 15.7746C1114.9 15.7746 1115.8 15.3471 1116.41 14.4922C1117.02 13.6373 1117.33 12.4864 1117.33 11.0396C1117.33 9.57083 1117.02 8.41629 1116.42 7.57597C1115.82 6.72834 1114.9 6.30452 1113.66 6.30452C1112.47 6.30452 1111.55 6.73565 1110.92 7.59789C1110.3 8.46014 1109.98 9.61467 1109.98 11.0615ZM1119.22 11.0286C1119.22 12.8919 1118.73 14.4045 1117.73 15.5664C1116.74 16.7209 1115.36 17.2982 1113.61 17.2982C1111.92 17.2982 1110.58 16.7136 1109.58 15.5444C1108.58 14.3753 1108.09 12.8737 1108.09 11.0396C1108.09 9.16893 1108.59 7.65635 1109.59 6.50182C1110.59 5.34729 1111.96 4.77002 1113.71 4.77002C1115.43 4.77002 1116.77 5.35094 1117.75 6.51278C1118.73 7.66731 1119.22 9.17259 1119.22 11.0286Z" fill="black"/>
<path d="M1105.17 17.046H1103.27V9.46119H1094.57V17.046H1092.68V0.835083H1094.57V7.79516H1103.27V0.835083H1105.17V17.046Z" fill="black"/>
</g>
</g>
<defs>
<clipPath id="clip0_107_329">
<rect width="1910.95" height="22.3052" fill="white" transform="translate(0.524414 0.243164)"/>
</clipPath>
<clipPath id="clip1_107_329">
<rect width="818.8" height="22.3052" fill="white" transform="translate(1092.68 0.243164)"/>
</clipPath>
</defs>
</svg>
