<svg width="160" height="160" viewBox="0 0 160 160" fill="none" xmlns="http://www.w3.org/2000/svg">
<rect width="160" height="160" rx="22.005" fill="url(#paint0_linear_45_74)"/>
<path d="M131.667 33.3333V21.6667C131.667 18 128.667 15 125 15H113.333M131.667 126.667V138.333C131.667 142 128.667 145 125 145H113.333" stroke="black" stroke-width="3.39583" stroke-linecap="round" stroke-linejoin="round"/>
<path d="M28.3333 33.3333V21.6667C28.3333 18 31.3333 15 34.9999 15H46.6666M46.6666 145H34.9999C31.3333 145 28.3333 142 28.3333 138.333V126.667" stroke="black" stroke-width="3.39583" stroke-linecap="round" stroke-linejoin="round"/>
<path d="M119.743 58.2067H96.6663C93.8329 58.2067 91.5396 55.9067 91.5396 53.0767V30M119.743 58.2067V124.873C119.743 127.703 117.45 130 114.616 130H45.383C42.553 130 40.2563 127.707 40.2563 124.873V35.1267C40.2563 32.2967 42.5496 30 45.383 30H91.5396M119.743 58.2067L91.5396 30M106.746 81.37H95.2296V104.36M95.2296 92.8667H102.743" stroke="black" stroke-width="3.39583" stroke-linecap="round" stroke-linejoin="round"/>
<path d="M53.253 104.313V81.3267H60.9897C62.0028 81.3262 63.0061 81.5253 63.9423 81.9126C64.8785 82.3 65.7292 82.8679 66.446 83.584C67.1627 84.3001 67.7313 85.1503 68.1194 86.0862C68.5076 87.022 68.7076 88.0252 68.708 89.0383C68.7084 90.0515 68.5093 91.0548 68.122 91.991C67.7347 92.9272 67.1668 93.7779 66.4507 94.4946C65.7346 95.2113 64.8843 95.78 63.9485 96.1681C63.0126 96.5562 62.0095 96.7562 60.9963 96.7567H53.253M74.243 104.36V81.2833H78.1563C81.216 81.2833 84.1504 82.4988 86.314 84.6623C88.4775 86.8259 89.693 89.7603 89.693 92.82C89.6934 94.3356 89.3952 95.8364 88.8155 97.2367C88.2357 98.637 87.3857 99.9093 86.314 100.981C85.2423 102.053 83.97 102.903 82.5697 103.482C81.1694 104.062 79.6686 104.36 78.153 104.36H74.243Z" stroke="black" stroke-width="3.39583" stroke-linecap="round" stroke-linejoin="round"/>
<defs>
<linearGradient id="paint0_linear_45_74" x1="0" y1="0" x2="148.4" y2="0" gradientUnits="userSpaceOnUse">
<stop stop-color="#76BA1B"/>
<stop offset="1" stop-color="#00C2FF"/>
</linearGradient>
</defs>
</svg>
