<svg width="35" height="45" viewBox="0 0 35 45" fill="none" xmlns="http://www.w3.org/2000/svg">
<g clip-path="url(#clip0_107_1588)">
<path d="M34.8428 11.4693C33.5922 12.2304 32.249 12.7449 30.8367 12.9761C32.278 11.7924 33.3822 9.91671 33.9036 7.68429C32.5344 8.79955 31.036 9.58469 29.4734 10.0056C28.2017 8.14668 26.3884 6.98608 24.3822 6.98608C20.5314 6.98608 17.4084 11.2673 17.4084 16.5515C17.4084 17.3002 17.4699 18.0306 17.5881 18.7319C11.7912 18.3324 6.65196 14.5243 3.21196 8.73784C2.61129 10.151 2.26748 11.7942 2.26748 13.5473C2.26748 16.8655 3.49898 19.7931 5.37022 21.5081C4.26247 21.461 3.17904 21.0509 2.21049 20.3122V20.433C2.21049 25.068 4.61434 28.9328 7.80531 29.8118C7.21914 30.032 6.60397 30.1471 5.96756 30.1471C5.5176 30.1471 5.08105 30.0887 4.65458 29.9787C5.54217 33.7777 8.11807 36.543 11.1693 36.6211C8.78221 39.1874 5.77436 40.7171 2.50749 40.7171C1.94481 40.7171 1.38871 40.6711 0.842773 40.5808C3.92994 43.2956 7.59545 44.8805 11.5345 44.8805C24.3632 44.8805 31.3793 30.3049 31.3793 17.6648C31.3793 17.2498 31.3726 16.8379 31.358 16.4275C32.725 15.0715 33.905 13.3926 34.8428 11.4693Z" fill="white"/>
</g>
<defs>
<clipPath id="clip0_107_1588">
<rect width="34" height="44.1945" fill="white" transform="translate(0.842773 0.685913)"/>
</clipPath>
</defs>
</svg>
