<svg width="121" height="36" viewBox="0 0 121 36" fill="none" xmlns="http://www.w3.org/2000/svg">
<g clip-path="url(#clip0_107_1594)">
<path d="M113.924 27.6055C112.878 27.6055 111.913 27.3788 111.031 26.9254C110.157 26.4638 109.452 25.8002 108.917 24.9346C108.381 24.0691 108.113 23.084 108.113 21.9793C108.113 20.2977 108.69 18.9045 109.844 17.7999C110.998 16.6953 112.507 16.1429 114.37 16.1429C115.334 16.1429 116.208 16.2996 116.991 16.6128C117.782 16.9178 118.43 17.3424 118.932 17.8864C119.443 18.4223 119.835 19.0529 120.107 19.7783C120.387 20.4955 120.528 21.2745 120.528 22.1154C120.528 23.2942 120.326 24.3617 119.922 25.318C119.518 26.2742 118.821 27.4242 117.832 28.7679C117.477 29.2377 116.884 29.992 116.051 31.0307C115.227 32.0694 114.489 32.9885 113.838 33.7882L112.861 35H110.141L116.707 26.8636C115.775 27.3582 114.848 27.6055 113.924 27.6055ZM118.19 21.8804C118.19 20.7511 117.869 19.8278 117.226 19.1106C116.591 18.3852 115.664 18.0225 114.444 18.0225C113.216 18.0225 112.243 18.4017 111.526 19.1601C110.808 19.9102 110.45 20.8376 110.45 21.9422C110.45 23.0963 110.796 24.0196 111.489 24.7121C112.181 25.4045 113.141 25.7507 114.37 25.7507C115.672 25.7507 116.632 25.3922 117.251 24.675C117.877 23.9578 118.19 23.0263 118.19 21.8804Z" fill="white"/>
<path d="M99.7789 35.2844C98.6577 35.2844 97.6438 35.0989 96.737 34.7279C95.8385 34.3487 95.1089 33.7717 94.5484 32.9968C93.9878 32.2219 93.7075 31.3027 93.7075 30.2393C93.7075 29.0605 94.0455 28.0342 94.7215 27.1604C95.3974 26.2866 96.3413 25.6518 97.5531 25.2561C95.2449 24.44 94.0908 22.9562 94.0908 20.8046C94.0908 19.3455 94.6184 18.2038 95.6736 17.3795C96.7288 16.5551 98.0972 16.1429 99.7789 16.1429C101.452 16.1429 102.808 16.5551 103.847 17.3795C104.886 18.2038 105.405 19.3455 105.405 20.8046C105.405 21.8928 105.125 22.8078 104.564 23.5497C104.004 24.2916 103.221 24.8604 102.215 25.2561C103.328 25.6518 104.201 26.2866 104.836 27.1604C105.471 28.0342 105.788 29.0605 105.788 30.2393C105.788 31.8221 105.215 33.0586 104.07 33.9489C102.932 34.8392 101.502 35.2844 99.7789 35.2844ZM99.7789 26.3072C98.6 26.5792 97.6562 27.0367 96.9472 27.6797C96.2383 28.3145 95.8838 29.1182 95.8838 30.0909C95.8838 31.1049 96.2506 31.9128 96.9843 32.5145C97.718 33.1081 98.6495 33.4048 99.7789 33.4048C100.908 33.4048 101.827 33.1081 102.536 32.5145C103.253 31.9128 103.612 31.1049 103.612 30.0909C103.612 29.11 103.266 28.3021 102.573 27.6674C101.881 27.0244 100.949 26.571 99.7789 26.3072ZM99.7789 18.0225C98.8061 18.0225 97.9777 18.2656 97.2934 18.752C96.6175 19.2384 96.2795 19.9061 96.2795 20.7552C96.2795 22.7006 97.4459 23.9331 99.7789 24.4524C102.079 23.9331 103.229 22.7006 103.229 20.7552C103.229 19.9061 102.895 19.2384 102.227 18.752C101.559 18.2656 100.743 18.0225 99.7789 18.0225Z" fill="white"/>
<path d="M82.6529 35L89.0087 18.4182H80.6621L80.7981 16.5016H91.5188V18.1833L84.9034 35H82.6529Z" fill="white"/>
<path d="M72.4639 23.6116C73.5026 23.6116 74.4629 23.8589 75.345 24.3535C76.227 24.8399 76.936 25.5365 77.4718 26.4432C78.0076 27.3418 78.2756 28.3434 78.2756 29.448C78.2756 31.1297 77.7067 32.5228 76.5691 33.6274C75.4398 34.7321 73.9477 35.2844 72.0929 35.2844C71.1284 35.2844 70.2464 35.1236 69.4468 34.8022C68.6554 34.4724 68 34.0314 67.4807 33.4791C66.9696 32.9185 66.5698 32.2714 66.2813 31.5377C66.001 30.7958 65.8608 30.0044 65.8608 29.1636C65.8608 27.8199 66.104 26.6205 66.5904 25.5653C67.085 24.5019 67.9753 23.1582 69.2613 21.5342C69.5745 21.1385 70.0691 20.5285 70.7451 19.7042C71.4211 18.8798 72.0229 18.1544 72.5504 17.5279L73.3295 16.5881H76.1858L69.6817 24.3535C70.6132 23.8589 71.5406 23.6116 72.4639 23.6116ZM68.1979 29.3985C68.1979 30.1322 68.3339 30.7958 68.6059 31.3893C68.8862 31.9829 69.319 32.4692 69.9043 32.8484C70.4978 33.2194 71.2026 33.4049 72.0187 33.4049C73.2388 33.4049 74.195 33.0298 74.8875 32.2796C75.5882 31.5295 75.9385 30.598 75.9385 29.4851C75.9385 28.3145 75.5882 27.3541 74.8875 26.604C74.195 25.8456 73.2388 25.4664 72.0187 25.4664C70.7245 25.4664 69.7641 25.8332 69.1376 26.5669C68.5111 27.3006 68.1979 28.2444 68.1979 29.3985Z" fill="white"/>
<path d="M62.4356 16.5016L62.2625 18.5295H54.7073C54.6249 20.9283 54.5631 22.8697 54.5218 24.3535C55.4534 23.76 56.4632 23.4632 57.5513 23.4632C58.4664 23.4632 59.2825 23.6116 59.9996 23.9084C60.7251 24.1969 61.3145 24.5967 61.7679 25.1078C62.2295 25.6189 62.5799 26.2166 62.8189 26.9008C63.058 27.5767 63.1775 28.3104 63.1775 29.1018C63.1775 30.9731 62.5757 32.4734 61.3722 33.6027C60.1769 34.7238 58.5488 35.2844 56.4879 35.2844C54.4188 35.2844 52.7619 34.7197 51.5171 33.5904L52.3208 31.8469C53.5409 32.8031 54.9546 33.2812 56.5621 33.2812C57.914 33.2812 58.9816 32.8979 59.7647 32.1313C60.5478 31.3646 60.9394 30.363 60.9394 29.1265C60.9394 28.0219 60.6097 27.1275 59.9502 26.4432C59.2907 25.7508 58.351 25.4046 57.1309 25.4046C55.9109 25.4046 54.9299 25.8126 54.188 26.6287L52.4692 26.3938L52.9515 16.5016H62.4356Z" fill="white"/>
<path d="M48.908 30.4125H46.8059V35H44.7285V30.4125H36.3696V28.5206L44.4936 16.5016H46.8059V28.6195H49.0811L48.908 30.4125ZM44.7285 19.3085L38.5459 28.6195H44.7285V19.3085Z" fill="white"/>
<path d="M27.5162 35.2844C26.4116 35.2844 25.4265 35.1401 24.5609 34.8516C23.7036 34.563 23.0771 34.2292 22.6814 33.85L23.3738 32.0323C24.5362 32.9473 25.9211 33.4048 27.5286 33.4048C28.7651 33.4048 29.7461 33.0998 30.4715 32.4898C31.2052 31.8715 31.572 31.0101 31.572 29.9055C31.572 29.3037 31.4772 28.7802 31.2876 28.3351C31.1063 27.8817 30.8589 27.519 30.5457 27.2469C30.2407 26.9667 29.845 26.7441 29.3586 26.5792C28.8805 26.4061 28.3859 26.2866 27.8748 26.2206C27.3719 26.1464 26.7867 26.1011 26.1189 26.0846C26.0365 26.0846 25.9128 26.0846 25.748 26.0846C25.5831 26.0764 25.4595 26.0722 25.377 26.0722V24.2298H25.9953C26.5723 24.2216 27.0793 24.1927 27.5162 24.1433C27.9614 24.0856 28.4024 23.9866 28.8393 23.8465C29.2844 23.7064 29.6513 23.5209 29.9398 23.2901C30.2283 23.0592 30.4633 22.7501 30.6446 22.3627C30.826 21.9752 30.9167 21.5177 30.9167 20.9901C30.9167 19.0117 29.7832 18.0225 27.5162 18.0225C26.7001 18.0225 25.9335 18.142 25.2163 18.3811C24.4991 18.6201 23.8849 18.9416 23.3738 19.3455L22.6814 17.5402C23.9097 16.6087 25.6779 16.1429 27.9861 16.1429C28.9176 16.1429 29.7791 16.3161 30.5704 16.6623C31.3618 17.0003 32.013 17.5237 32.5241 18.2327C33.0352 18.9334 33.2908 19.7577 33.2908 20.7057C33.2908 21.8598 33.0064 22.8078 32.4376 23.5497C31.8688 24.2916 31.0692 24.8234 30.0387 25.1448C31.1928 25.3922 32.0955 25.9321 32.7467 26.7647C33.4062 27.5973 33.7359 28.6525 33.7359 29.9302C33.7359 31.5542 33.1548 32.8525 31.9924 33.8253C30.8301 34.798 29.338 35.2844 27.5162 35.2844Z" fill="white"/>
<path d="M8.98069 35L8.69629 32.9721L15.0891 25.8744C15.5178 25.3963 15.93 24.778 16.3256 24.0196C16.7296 23.2612 17.0222 22.6182 17.2036 22.0906L17.488 21.3116C17.488 20.2894 17.2036 19.498 16.6348 18.9375C16.066 18.3687 15.2581 18.0843 14.2112 18.0843C12.4636 18.0843 11.0869 18.5913 10.0812 19.6052L9.36401 17.7504C10.5016 16.6788 12.1668 16.1429 14.3596 16.1429C16.0412 16.1429 17.3808 16.6005 18.3783 17.5155C19.3757 18.4223 19.8745 19.6382 19.8745 21.1632C19.8415 21.2786 19.792 21.4353 19.7261 21.6331C19.6601 21.8227 19.5159 22.1978 19.2933 22.7584C19.079 23.3189 18.8523 23.8506 18.6132 24.3535C18.3742 24.8563 18.0691 25.4086 17.6982 26.0104C17.3355 26.6122 16.9645 27.115 16.5853 27.519L11.3672 33.0957H19.9363L19.8003 35H8.98069Z" fill="white"/>
<path d="M3.57708 16.5016H5.54316V35H3.35451V18.7892C2.52192 19.3332 1.50384 19.799 0.300293 20.1864V18.1214C0.432189 18.0637 0.700103 17.9483 1.10403 17.7752C1.50797 17.6021 1.80885 17.4702 2.0067 17.3795C2.21279 17.2888 2.46833 17.1611 2.77334 16.9962C3.07835 16.8313 3.34627 16.6665 3.57708 16.5016Z" fill="white"/>
</g>
<defs>
<clipPath id="clip0_107_1594">
<rect width="120.227" height="34.5984" fill="white" transform="translate(0.300293 0.685913)"/>
</clipPath>
</defs>
</svg>
