<svg width="51" height="51" viewBox="0 0 51 51" fill="none" xmlns="http://www.w3.org/2000/svg">
<path d="M28.1962 7.79625C28.8337 7.15885 29.6984 6.80078 30.6 6.80078C31.5015 6.80078 32.3662 7.15885 33.0038 7.79625L48.3038 23.0963C48.9412 23.7339 49.2992 24.5985 49.2992 25.5001C49.2992 26.4016 48.9412 27.2663 48.3038 27.9039L33.0038 43.2039C32.3625 43.8232 31.5037 44.1659 30.6122 44.1581C29.7207 44.1504 28.868 43.7928 28.2376 43.1624C27.6072 42.5321 27.2496 41.6793 27.2419 40.7878C27.2341 39.8964 27.5768 39.0375 28.1962 38.3963L37.4 28.9001H5.09995C4.19822 28.9001 3.33341 28.5418 2.69579 27.9042C2.05816 27.2666 1.69995 26.4018 1.69995 25.5001C1.69995 24.5983 2.05816 23.7335 2.69579 23.0959C3.33341 22.4583 4.19822 22.1001 5.09995 22.1001H37.4L28.1962 12.6039C27.5588 11.9663 27.2007 11.1016 27.2007 10.2001C27.2007 9.2985 27.5588 8.43385 28.1962 7.79625Z" fill="black"/>
</svg>
