<svg width="40" height="40" viewBox="0 0 40 40" fill="none" xmlns="http://www.w3.org/2000/svg">
<path d="M34.3776 8.07562H5.62238C5.35125 8.07594 5.09132 8.18381 4.89964 8.37557C4.70796 8.56732 4.60019 8.82729 4.59998 9.09842V11.156C4.59998 11.2508 4.70278 11.3596 4.78678 11.4036L19.9012 20.0368C19.9399 20.0589 19.9838 20.0704 20.0284 20.07C20.074 20.0701 20.1187 20.058 20.158 20.0348L34.8156 11.412C34.898 11.366 35.1164 11.2444 35.1984 11.1884C35.2976 11.1208 35.4 11.0596 35.4 10.9384V9.09802C35.3997 8.82696 35.2918 8.5671 35.1002 8.37543C34.9085 8.18376 34.6486 8.07594 34.3776 8.07562ZM35.2724 14.2584C35.233 14.236 35.1885 14.2243 35.1432 14.2246C35.0979 14.2249 35.0534 14.2371 35.0144 14.26L26.7196 19.1404C26.6865 19.1597 26.6582 19.1861 26.6368 19.2178C26.6154 19.2495 26.6014 19.2856 26.5958 19.3235C26.5902 19.3613 26.5932 19.3999 26.6046 19.4365C26.616 19.473 26.6355 19.5065 26.6616 19.5344L34.9576 28.4772C34.9813 28.503 35.0102 28.5236 35.0424 28.5377C35.0746 28.5517 35.1093 28.5589 35.1444 28.5588C35.2121 28.5587 35.2771 28.5318 35.325 28.4838C35.3729 28.4359 35.3999 28.371 35.4 28.3032V14.4804C35.4002 14.4355 35.3884 14.3912 35.366 14.3523C35.3436 14.3133 35.3113 14.2809 35.2724 14.2584ZM24.3292 20.7792C24.2898 20.7363 24.2369 20.7083 24.1793 20.6997C24.1217 20.6911 24.063 20.7025 24.0128 20.732L20.688 22.6884C20.4932 22.801 20.2725 22.8609 20.0475 22.8624C19.8225 22.8639 19.601 22.8068 19.4048 22.6968L16.4788 21.0252C16.4315 20.9983 16.377 20.9872 16.323 20.9933C16.2689 20.9995 16.2183 21.0227 16.1784 21.0596L5.06718 31.366C5.03805 31.3933 5.01569 31.4269 5.00187 31.4643C4.98805 31.5017 4.98316 31.5418 4.98759 31.5815C4.99202 31.6211 5.00564 31.6591 5.02738 31.6926C5.04911 31.726 5.07836 31.7539 5.11278 31.774C5.28558 31.8756 5.45238 31.924 5.62198 31.924H34.0832C34.133 31.9241 34.1817 31.9096 34.2233 31.8822C34.2649 31.8548 34.2976 31.8158 34.3172 31.77C34.3371 31.7245 34.3433 31.6741 34.3349 31.6251C34.3265 31.5762 34.3039 31.5307 34.27 31.4944L24.3292 20.7792ZM13.7336 19.8404C13.763 19.8132 13.7856 19.7795 13.7996 19.7419C13.8136 19.7043 13.8185 19.664 13.8141 19.6242C13.8096 19.5844 13.7958 19.5461 13.7738 19.5126C13.7519 19.4791 13.7223 19.4512 13.6876 19.4312L4.98118 14.4584C4.94232 14.4364 4.89836 14.4249 4.85368 14.4252C4.809 14.4254 4.76517 14.4374 4.72658 14.4599C4.68798 14.4824 4.65598 14.5147 4.63376 14.5535C4.61155 14.5922 4.5999 14.6361 4.59998 14.6808V27.7288C4.5997 27.7787 4.61404 27.8275 4.64122 27.8692C4.6684 27.911 4.70723 27.9439 4.75291 27.9638C4.79859 27.9837 4.8491 27.9898 4.89821 27.9813C4.94731 27.9728 4.99285 27.9501 5.02918 27.916L13.7336 19.8404Z" fill="#D9D9D9"/>
</svg>
