<svg width="160" height="160" viewBox="0 0 160 160" fill="none" xmlns="http://www.w3.org/2000/svg">
<rect width="160" height="160" rx="22.005" fill="url(#paint0_linear_45_38)"/>
<path d="M45.3846 67.6667V64H41.9231V67.6667H45.3846ZM73.0769 67.6667V64H69.6154V67.6667H73.0769ZM121.538 45.6667H125V44.1487L123.989 43.0707L121.538 45.6667ZM100.769 23.6667L103.22 21.0707L102.202 20H100.769V23.6667ZM45.3846 71.3333H52.3077V64H45.3846V71.3333ZM48.8462 100.667V82.3333H41.9231V100.667H48.8462ZM48.8462 82.3333V67.6667H41.9231V82.3333H48.8462ZM52.3077 78.6667H45.3846V86H52.3077V78.6667ZM55.7692 75C55.7692 75.9725 55.4045 76.9051 54.7554 77.5927C54.1062 78.2804 53.2257 78.6667 52.3077 78.6667V86C55.0619 86 57.7032 84.8411 59.6507 82.7782C61.5982 80.7153 62.6923 77.9174 62.6923 75H55.7692ZM52.3077 71.3333C53.2257 71.3333 54.1062 71.7196 54.7554 72.4073C55.4045 73.0949 55.7692 74.0275 55.7692 75H62.6923C62.6923 72.0826 61.5982 69.2847 59.6507 67.2218C57.7032 65.1589 55.0619 64 52.3077 64V71.3333ZM73.0769 71.3333H80V64H73.0769V71.3333ZM76.5385 100.667V82.3333H69.6154V100.667H76.5385ZM76.5385 82.3333V67.6667H69.6154V82.3333H76.5385ZM80 78.6667H73.0769V86H80V78.6667ZM83.4615 75C83.4615 75.9725 83.0968 76.9051 82.4477 77.5927C81.7985 78.2804 80.9181 78.6667 80 78.6667V86C82.7542 86 85.3955 84.8411 87.343 82.7782C89.2905 80.7153 90.3846 77.9174 90.3846 75H83.4615ZM80 71.3333C80.9181 71.3333 81.7985 71.7196 82.4477 72.4073C83.0968 73.0949 83.4615 74.0275 83.4615 75H90.3846C90.3846 72.0826 89.2905 69.2847 87.343 67.2218C85.3955 65.1589 82.7542 64 80 64V71.3333ZM104.231 64V100.667H111.154V64H104.231ZM97.3077 71.3333H118.077V64H97.3077V71.3333ZM41.9231 56.6667V44.1487V31H35V56.6667H41.9231ZM118.077 45.6667V56.6667H125V45.6667H118.077ZM45.3846 27.3333H100.769V20H45.3846V27.3333ZM98.3185 26.2627L119.088 48.2627L123.989 43.0707L103.22 21.0707L98.3185 26.2627ZM41.9231 31C41.9231 30.0275 42.2878 29.0949 42.9369 28.4073C43.5861 27.7196 44.4666 27.3333 45.3846 27.3333V20C42.6304 20 39.9891 21.1589 38.0416 23.2218C36.0941 25.2847 35 28.0826 35 31H41.9231ZM35 108V119H41.9231V108H35ZM45.3846 130H114.615V122.667H45.3846V130ZM125 119V108H118.077V119H125ZM114.615 130C117.37 130 120.011 128.841 121.958 126.778C123.906 124.715 125 121.917 125 119H118.077C118.077 119.972 117.712 120.905 117.063 121.593C116.414 122.28 115.533 122.667 114.615 122.667V130ZM35 119C35 121.917 36.0941 124.715 38.0416 126.778C39.9891 128.841 42.6304 130 45.3846 130V122.667C44.4666 122.667 43.5861 122.28 42.9369 121.593C42.2878 120.905 41.9231 119.972 41.9231 119H35Z" fill="black"/>
<defs>
<linearGradient id="paint0_linear_45_38" x1="0" y1="0" x2="148.4" y2="0" gradientUnits="userSpaceOnUse">
<stop stop-color="#76BA1B"/>
<stop offset="1" stop-color="#00C2FF"/>
</linearGradient>
</defs>
</svg>
