<svg width="40" height="40" viewBox="0 0 40 40" fill="none" xmlns="http://www.w3.org/2000/svg">
<path d="M34.3777 8.07559H5.6225C5.35137 8.07591 5.09145 8.18378 4.89977 8.37554C4.70809 8.56729 4.60031 8.82726 4.6001 9.09839V11.156C4.6001 11.2508 4.7029 11.3596 4.7869 11.4036L19.9013 20.0368C19.94 20.0589 19.9839 20.0704 20.0285 20.07C20.0741 20.0701 20.1189 20.058 20.1581 20.0348L34.8157 11.412C34.8981 11.366 35.1165 11.2444 35.1985 11.1884C35.2977 11.1208 35.4001 11.0596 35.4001 10.9384V9.09799C35.3998 8.82693 35.292 8.56707 35.1003 8.3754C34.9086 8.18373 34.6488 8.07591 34.3777 8.07559ZM35.2725 14.2584C35.2332 14.236 35.1886 14.2243 35.1433 14.2246C35.098 14.2248 35.0536 14.2371 35.0145 14.26L26.7197 19.1404C26.6867 19.1597 26.6584 19.1861 26.6369 19.2178C26.6155 19.2495 26.6015 19.2856 26.5959 19.3234C26.5903 19.3613 26.5934 19.3999 26.6047 19.4364C26.6161 19.4729 26.6356 19.5064 26.6617 19.5344L34.9577 28.4772C34.9815 28.503 35.0104 28.5236 35.0425 28.5377C35.0747 28.5517 35.1094 28.5589 35.1445 28.5588C35.2123 28.5587 35.2772 28.5317 35.3251 28.4838C35.373 28.4359 35.4 28.371 35.4001 28.3032V14.4804C35.4003 14.4354 35.3886 14.3912 35.3662 14.3522C35.3438 14.3132 35.3114 14.2809 35.2725 14.2584ZM24.3293 20.7792C24.2899 20.7363 24.237 20.7082 24.1795 20.6996C24.1219 20.691 24.0631 20.7025 24.0129 20.732L20.6881 22.6884C20.4933 22.8009 20.2726 22.8609 20.0476 22.8624C19.8226 22.8638 19.6012 22.8068 19.4049 22.6968L16.4789 21.0252C16.4317 20.9983 16.3771 20.9871 16.3231 20.9933C16.2691 20.9995 16.2184 21.0227 16.1785 21.0596L5.0673 31.366C5.03817 31.3932 5.01581 31.4269 5.00199 31.4643C4.98817 31.5017 4.98328 31.5418 4.98771 31.5814C4.99214 31.6211 5.00576 31.6591 5.0275 31.6925C5.04924 31.726 5.07848 31.7539 5.1129 31.774C5.2857 31.8756 5.4525 31.924 5.6221 31.924H34.0833C34.1331 31.9241 34.1818 31.9095 34.2235 31.8822C34.2651 31.8548 34.2977 31.8158 34.3173 31.77C34.3373 31.7245 34.3434 31.6741 34.335 31.6251C34.3266 31.5761 34.3041 31.5307 34.2701 31.4944L24.3293 20.7792ZM13.7337 19.8404C13.7631 19.8132 13.7858 19.7794 13.7997 19.7419C13.8137 19.7043 13.8187 19.664 13.8142 19.6242C13.8097 19.5843 13.7959 19.5461 13.774 19.5126C13.752 19.4791 13.7224 19.4512 13.6877 19.4312L4.9813 14.4584C4.94245 14.4363 4.89848 14.4249 4.8538 14.4251C4.80912 14.4254 4.76529 14.4374 4.7267 14.4599C4.68811 14.4824 4.6561 14.5147 4.63388 14.5534C4.61167 14.5922 4.60002 14.6361 4.6001 14.6808V27.7288C4.59982 27.7786 4.61416 27.8274 4.64134 27.8692C4.66852 27.911 4.70735 27.9439 4.75303 27.9638C4.79871 27.9837 4.84923 27.9898 4.89833 27.9813C4.94744 27.9728 4.99297 27.9501 5.0293 27.916L13.7337 19.8404Z" fill="#D9D9D9"/>
</svg>
