<svg width="28" height="39" viewBox="0 0 28 39" fill="none" xmlns="http://www.w3.org/2000/svg">
<g clip-path="url(#clip0_107_1582)">
<path d="M23.3375 30.6795C23.3375 30.5852 23.3375 30.4595 23.306 30.3967C23.2115 30.0825 20.6281 28.7629 20.1555 28.4801C19.8089 28.2916 19.3994 27.9145 19.0213 27.9145C18.2337 27.9145 17.0995 30.2082 16.4064 30.2082C16.0598 30.2082 15.6187 29.894 15.3037 29.7055C12.9723 28.4172 11.3655 26.8148 10.0738 24.5212C9.88478 24.207 9.56973 23.7671 9.56973 23.4215C9.56973 22.7302 11.8696 21.5991 11.8696 20.8136C11.8696 20.4052 11.4915 19.9967 11.3025 19.6825C11.019 19.1798 9.72725 16.6348 9.4122 16.5091C9.31769 16.4777 9.22317 16.4777 9.12865 16.4777C8.65608 16.4777 7.77393 16.6976 7.36436 16.8547C6.19867 17.3888 5.34802 19.5882 5.34802 20.8136C5.34802 21.9762 5.8206 23.0444 6.23017 24.1441C7.6164 27.9774 11.8066 32.1562 15.6502 33.5701C16.7529 33.9786 17.8241 34.4499 19.0213 34.4499C20.2185 34.4499 22.4239 33.6015 22.9595 32.439C23.1485 32.0305 23.3375 31.1194 23.3375 30.6795ZM27.8428 17.0432V33.8843C27.8428 36.6807 25.5744 38.9429 22.7704 38.9429H5.91512C3.11115 38.9429 0.842773 36.6807 0.842773 33.8843V17.0432C0.842773 14.2469 3.11115 11.9846 5.91512 11.9846H22.7704C25.5744 11.9846 27.8428 14.2469 27.8428 17.0432Z" fill="black"/>
</g>
<defs>
<clipPath id="clip0_107_1582">
<rect width="27" height="38.257" fill="white" transform="translate(0.842773 0.685913)"/>
</clipPath>
</defs>
</svg>
