<svg width="27" height="36" viewBox="0 0 27 36" fill="none" xmlns="http://www.w3.org/2000/svg">
<path d="M22.4947 18.6949C22.4947 18.6006 22.4947 18.4749 22.4632 18.4121C22.3687 18.0979 19.7853 16.7782 19.3127 16.4955C18.9662 16.3069 18.5566 15.9299 18.1785 15.9299C17.3909 15.9299 16.2567 18.2236 15.5636 18.2236C15.217 18.2236 14.776 17.9094 14.4609 17.7208C12.1295 16.4326 10.5228 14.8302 9.23104 12.5366C9.04201 12.2224 8.72695 11.7825 8.72695 11.4369C8.72695 10.7456 11.0268 9.6145 11.0268 8.829C11.0268 8.42054 10.6488 8.01208 10.4597 7.69788C10.1762 7.19517 8.88448 4.65015 8.56943 4.52447C8.47491 4.49305 8.3804 4.49305 8.28588 4.49305C7.8133 4.49305 6.93116 4.71299 6.52159 4.87009C5.35589 5.40423 4.50525 7.60362 4.50525 8.829C4.50525 9.99154 4.97783 11.0598 5.3874 12.1595C6.77363 15.9927 10.9638 20.1716 14.8075 21.5855C15.9102 21.994 16.9813 22.4653 18.1785 22.4653C19.3757 22.4653 21.5811 21.6169 22.1167 20.4544C22.3057 20.0459 22.4947 19.1347 22.4947 18.6949ZM27 5.05861V21.8997C27 24.6961 24.7316 26.9583 21.9277 26.9583H5.07235C2.26838 26.9583 0 24.6961 0 21.8997V5.05861C0 2.26223 2.26838 0 5.07235 0H21.9277C24.7316 0 27 2.26223 27 5.05861Z" fill="black"/>
</svg>
