<svg width="160" height="160" viewBox="0 0 160 160" fill="none" xmlns="http://www.w3.org/2000/svg">
<rect width="160" height="160" rx="22.005" fill="url(#paint0_linear_40_1142)"/>
<path fill-rule="evenodd" clip-rule="evenodd" d="M136 53.3125V125.75C136 129.795 134.299 133.673 131.272 136.533C128.244 139.393 124.138 141 119.857 141H103.714V133.375H119.857C121.998 133.375 124.051 132.572 125.565 131.142C127.078 129.712 127.929 127.772 127.929 125.75V53.3125H111.786C108.575 53.3125 105.495 52.1075 103.225 49.9625C100.954 47.8176 99.6786 44.9084 99.6786 41.875V26.625H55.2857C53.145 26.625 51.092 27.4283 49.5784 28.8583C48.0647 30.2883 47.2143 32.2277 47.2143 34.25V102.875H39.1429V34.25C39.1429 30.2054 40.8436 26.3266 43.871 23.4666C46.8984 20.6067 51.0044 19 55.2857 19H99.6786L136 53.3125ZM38.5617 139.849V114.404H47.7309V109.356H23V114.404H32.153V139.849H38.5617ZM76.4086 109.356H69.1928L62.55 120.329H62.2675L55.5521 109.356H48.0295L57.9412 124.477L47.9326 139.849H54.8902L61.7751 129.059H62.0576L68.9184 139.849H76.2391L66.1256 124.66L76.4086 109.356ZM91.9865 114.404V139.849H85.5778V114.404H76.4248V109.356H101.156V114.404H91.9784H91.9865Z" fill="black"/>
<defs>
<linearGradient id="paint0_linear_40_1142" x1="0" y1="0" x2="148.4" y2="0" gradientUnits="userSpaceOnUse">
<stop stop-color="#76BA1B"/>
<stop offset="1" stop-color="#00C2FF"/>
</linearGradient>
</defs>
</svg>
