<svg width="33" height="33" viewBox="0 0 33 33" fill="none" xmlns="http://www.w3.org/2000/svg">
<g clip-path="url(#clip0_107_8090)">
<path d="M32.2476 16.8656C32.2476 15.5128 32.1379 14.5257 31.9003 13.502H16.4529V19.6077H25.5202C25.3374 21.1251 24.3503 23.4102 22.1565 24.9457L22.1257 25.1501L27.0099 28.9339L27.3483 28.9676C30.456 26.0975 32.2476 21.8746 32.2476 16.8656Z" fill="#4285F4"/>
<path d="M16.4528 32.9529C20.895 32.9529 24.6243 31.4903 27.3482 28.9676L22.1564 24.9457C20.7671 25.9146 18.9024 26.591 16.4528 26.591C12.102 26.591 8.40925 23.721 7.09289 19.754L6.89995 19.7704L1.8213 23.7008L1.75488 23.8855C4.46044 29.26 10.0179 32.9529 16.4528 32.9529Z" fill="#34A853"/>
<path d="M7.09294 19.754C6.74561 18.7303 6.54459 17.6333 6.54459 16.5C6.54459 15.3665 6.74561 14.2697 7.07467 13.2459L7.06547 13.0279L1.92318 9.03436L1.75493 9.11439C0.63984 11.3447 0 13.8492 0 16.5C0 19.1507 0.63984 21.6551 1.75493 23.8854L7.09294 19.754Z" fill="#FBBC05"/>
<path d="M16.4528 6.40885C19.5422 6.40885 21.6262 7.74335 22.8145 8.85857L27.4579 4.32486C24.6061 1.67413 20.895 0.0471191 16.4528 0.0471191C10.0179 0.0471191 4.46044 3.73984 1.75488 9.1144L7.07462 13.246C8.40925 9.27899 12.102 6.40885 16.4528 6.40885Z" fill="#EB4335"/>
</g>
<defs>
<clipPath id="clip0_107_8090">
<rect width="32.2476" height="33" fill="white"/>
</clipPath>
</defs>
</svg>
