<svg width="139" height="27" viewBox="0 0 139 27" fill="none" xmlns="http://www.w3.org/2000/svg">
<path d="M8.80565 26.4881H3.56799V13.4313H0V9.18025H3.56785V6.15534C3.56785 2.5708 5.14592 0 10.3694 0C11.4742 0 13.2086 0.222678 13.2086 0.222678V4.17H11.3869C9.53067 4.17 8.80593 4.73462 8.80593 6.29559V9.18025H13.1391L12.7532 13.4313H8.80579L8.80565 26.4881ZM20.8236 8.84054C20.7473 8.84054 20.6687 8.84332 20.591 8.84526C15.7344 8.84526 13.5123 12.4985 13.5123 17.6843C13.5123 24.217 16.3946 26.8316 20.629 26.8316C23.0516 26.8316 24.6433 25.8119 25.6107 23.909V26.4899H30.5925V9.18206H25.6107V11.8438C24.8208 10.1313 23.1846 8.86083 20.8236 8.84054ZM22.0903 12.9303C24.1301 12.9303 25.3544 14.3531 25.3544 16.7733L25.3592 19.2451C25.3592 20.8763 24.3479 22.7846 22.0903 22.7846C18.6195 22.7846 18.7122 19.0369 18.7122 17.7887C18.7122 13.5899 20.5614 12.9303 22.0903 12.9303ZM32.6044 17.8369C32.6044 15.7337 32.5038 8.8518 41.4698 8.8518C45.0689 8.8518 46.5718 9.99618 46.5718 9.99618L45.3639 13.7426C45.3639 13.7426 43.863 12.9162 41.9072 12.9162C39.4023 12.9162 37.804 14.3683 37.804 16.9232L37.8067 18.7553C37.8067 21.2103 39.349 22.8491 41.9124 22.8491C43.6941 22.8491 45.3362 22.0148 45.3362 22.0148L46.5411 25.683C46.5411 25.683 45.1669 26.8346 41.495 26.8346C32.9579 26.8346 32.6045 20.6603 32.6045 17.8369H32.6044ZM75.7817 8.84526C80.6385 8.84526 82.8956 12.4985 82.8956 17.6843C82.8956 24.217 80.0131 26.8316 75.7788 26.8316C73.3561 26.8316 71.5653 25.812 70.5978 23.909V26.4899L65.6788 26.488V0.526254L70.9015 0.070751V11.6093C71.6553 9.59058 74.1325 8.84526 75.7817 8.84526ZM74.3175 12.9303C72.2776 12.9303 70.9015 14.3531 70.9015 16.7733L70.8967 19.2451C70.8936 20.8763 71.8497 22.7846 74.3175 22.7846C77.7883 22.7846 77.6956 19.0369 77.6956 17.7887C77.6956 13.5899 75.8465 12.9303 74.3175 12.9303ZM55.6338 8.85958C50.1252 8.85958 47.217 11.863 47.217 17.2003V18.1919C47.217 25.1192 51.301 26.9028 56.1699 26.9028C60.9024 26.9028 63.0446 25.5791 63.0446 25.5791L62.0673 22.054C62.0673 22.054 59.5475 23.1261 56.7961 23.1261C53.9438 23.1261 52.7171 22.3992 52.4027 19.6581H63.4621V16.8301C63.4621 11.0405 60.1983 8.85944 55.6336 8.85944L55.6338 8.85958ZM55.7665 12.3893C57.6733 12.3893 58.9089 13.5586 58.8411 16.2704H52.4123C52.5238 13.4163 53.8562 12.3893 55.7665 12.3893ZM93.3096 8.83581C87.6527 8.83581 84.6746 12.0236 84.6746 17.7364C84.6746 25.5746 89.8082 26.8363 93.319 26.8363C98.4587 26.8363 101.878 24.0692 101.878 17.8076C101.878 11.2903 98.0334 8.83581 93.3096 8.83581ZM93.2384 12.9445C95.7258 12.9445 96.7115 14.8061 96.7115 16.9252V18.7471C96.7115 21.3141 95.3323 22.7989 93.229 22.7989C91.2618 22.7989 89.8793 21.41 89.8793 18.7471V16.9252C89.8793 14.0851 91.5244 12.9445 93.2384 12.9445ZM112.283 8.83581C106.626 8.83581 103.648 12.0236 103.648 17.7364C103.648 25.5746 108.781 26.8363 112.292 26.8363C117.432 26.8363 120.851 24.0692 120.851 17.8076C120.851 11.2903 117.006 8.83581 112.283 8.83581ZM112.212 12.9445C114.699 12.9445 115.685 14.8061 115.685 16.9252V18.7471C115.685 21.3141 114.305 22.7989 112.202 22.7989C110.235 22.7989 108.853 21.41 108.853 18.7471V16.9252C108.853 14.0851 110.498 12.9445 112.212 12.9445ZM122.825 26.4881V0.526254L128.063 0.070751V17.472L133.26 9.18025H138.791L133.37 17.7681L139 26.4881H133.453L128.063 18.0211V26.4881H122.825Z" fill="white"/>
</svg>
