<svg width="59" height="54" viewBox="0 0 59 54" fill="none" xmlns="http://www.w3.org/2000/svg">
<path d="M29.5 53.4412C25.4683 53.4412 21.6579 52.7458 18.0688 51.355C14.4796 49.9643 11.3452 48.0658 8.66563 45.6595C5.98604 43.2533 3.87188 40.4387 2.32313 37.2157C0.774375 33.9926 0 30.5709 0 26.9506C0 23.286 0.774375 19.8533 2.32313 16.6523C3.87188 13.4514 5.98604 10.6478 8.66563 8.24157C11.3452 5.83535 14.4796 3.93685 18.0688 2.5461C21.6579 1.15534 25.4683 0.459961 29.5 0.459961C33.5808 0.459961 37.4035 1.15534 40.9681 2.5461C44.5327 3.93685 47.6548 5.83535 50.3344 8.24157C53.014 10.6478 55.1281 13.4514 56.6769 16.6523C58.2256 19.8533 59 23.286 59 26.9506C59 30.5709 58.2256 33.9926 56.6769 37.2157C55.1281 40.4387 53.014 43.2533 50.3344 45.6595C47.6548 48.0658 44.5327 49.9643 40.9681 51.355C37.4035 52.7458 33.5808 53.4412 29.5 53.4412ZM29.5 48.0106C30.7783 46.4212 31.8846 44.7655 32.8188 43.0436C33.7529 41.3217 34.515 39.4894 35.105 37.5468H23.895C24.485 39.4894 25.2471 41.3217 26.1812 43.0436C27.1154 44.7655 28.2217 46.4212 29.5 48.0106ZM21.83 46.951C20.945 45.494 20.1706 43.9818 19.5069 42.4145C18.8431 40.8471 18.29 39.2245 17.8475 37.5468H9.145C10.5708 39.7544 12.3531 41.6749 14.4919 43.3085C16.6306 44.9421 19.0767 46.1562 21.83 46.951ZM37.17 46.951C39.9233 46.1562 42.3694 44.9421 44.5081 43.3085C46.6469 41.6749 48.4292 39.7544 49.855 37.5468H41.1525C40.71 39.2245 40.1569 40.8471 39.4931 42.4145C38.8294 43.9818 38.055 45.494 37.17 46.951ZM6.6375 32.2487H16.6675C16.52 31.3657 16.4094 30.4937 16.3356 29.6327C16.2619 28.7718 16.225 27.8777 16.225 26.9506C16.225 26.0234 16.2619 25.1293 16.3356 24.2684C16.4094 23.4074 16.52 22.5355 16.6675 21.6524H6.6375C6.39167 22.5355 6.20729 23.4074 6.08437 24.2684C5.96146 25.1293 5.9 26.0234 5.9 26.9506C5.9 27.8777 5.96146 28.7718 6.08437 29.6327C6.20729 30.4937 6.39167 31.3657 6.6375 32.2487ZM22.5675 32.2487H36.4325C36.58 31.3657 36.6906 30.4937 36.7644 29.6327C36.8381 28.7718 36.875 27.8777 36.875 26.9506C36.875 26.0234 36.8381 25.1293 36.7644 24.2684C36.6906 23.4074 36.58 22.5355 36.4325 21.6524H22.5675C22.42 22.5355 22.3094 23.4074 22.2356 24.2684C22.1619 25.1293 22.125 26.0234 22.125 26.9506C22.125 27.8777 22.1619 28.7718 22.2356 29.6327C22.3094 30.4937 22.42 31.3657 22.5675 32.2487ZM42.3325 32.2487H52.3625C52.6083 31.3657 52.7927 30.4937 52.9156 29.6327C53.0385 28.7718 53.1 27.8777 53.1 26.9506C53.1 26.0234 53.0385 25.1293 52.9156 24.2684C52.7927 23.4074 52.6083 22.5355 52.3625 21.6524H42.3325C42.48 22.5355 42.5906 23.4074 42.6644 24.2684C42.7381 25.1293 42.775 26.0234 42.775 26.9506C42.775 27.8777 42.7381 28.7718 42.6644 29.6327C42.5906 30.4937 42.48 31.3657 42.3325 32.2487ZM41.1525 16.3543H49.855C48.4292 14.1468 46.6469 12.2262 44.5081 10.5926C42.3694 8.95903 39.9233 7.74488 37.17 6.95016C38.055 8.40714 38.8294 9.91931 39.4931 11.4867C40.1569 13.054 40.71 14.6766 41.1525 16.3543ZM23.895 16.3543H35.105C34.515 14.4117 33.7529 12.5794 32.8188 10.8575C31.8846 9.13563 30.7783 7.47997 29.5 5.89053C28.2217 7.47997 27.1154 9.13563 26.1812 10.8575C25.2471 12.5794 24.485 14.4117 23.895 16.3543ZM9.145 16.3543H17.8475C18.29 14.6766 18.8431 13.054 19.5069 11.4867C20.1706 9.91931 20.945 8.40714 21.83 6.95016C19.0767 7.74488 16.6306 8.95903 14.4919 10.5926C12.3531 12.2262 10.5708 14.1468 9.145 16.3543Z" fill="#1C1B1F"/>
</svg>
