<svg width="60" height="54" viewBox="0 0 60 54" fill="none" xmlns="http://www.w3.org/2000/svg">
<path d="M30.3047 53.9412C26.273 53.9412 22.4626 53.2458 18.8734 51.855C15.2843 50.4643 12.1499 48.5658 9.47031 46.1595C6.79073 43.7533 4.67656 40.9387 3.12781 37.7157C1.57906 34.4926 0.804688 31.0709 0.804688 27.4506C0.804688 23.786 1.57906 20.3533 3.12781 17.1523C4.67656 13.9514 6.79073 11.1478 9.47031 8.74157C12.1499 6.33535 15.2843 4.43685 18.8734 3.0461C22.4626 1.65534 26.273 0.959961 30.3047 0.959961C34.3855 0.959961 38.2082 1.65534 41.7728 3.0461C45.3374 4.43685 48.4595 6.33535 51.1391 8.74157C53.8186 11.1478 55.9328 13.9514 57.4816 17.1523C59.0303 20.3533 59.8047 23.786 59.8047 27.4506C59.8047 31.0709 59.0303 34.4926 57.4816 37.7157C55.9328 40.9387 53.8186 43.7533 51.1391 46.1595C48.4595 48.5658 45.3374 50.4643 41.7728 51.855C38.2082 53.2458 34.3855 53.9412 30.3047 53.9412ZM30.3047 48.5106C31.583 46.9212 32.6893 45.2655 33.6234 43.5436C34.5576 41.8217 35.3197 39.9894 35.9097 38.0468H24.6997C25.2897 39.9894 26.0518 41.8217 26.9859 43.5436C27.9201 45.2655 29.0264 46.9212 30.3047 48.5106ZM22.6347 47.451C21.7497 45.994 20.9753 44.4818 20.3116 42.9145C19.6478 41.3471 19.0947 39.7245 18.6522 38.0468H9.94969C11.3755 40.2544 13.1578 42.1749 15.2966 43.8085C17.4353 45.4421 19.8814 46.6562 22.6347 47.451ZM37.9747 47.451C40.728 46.6562 43.1741 45.4421 45.3128 43.8085C47.4516 42.1749 49.2339 40.2544 50.6597 38.0468H41.9572C41.5147 39.7245 40.9616 41.3471 40.2978 42.9145C39.6341 44.4818 38.8597 45.994 37.9747 47.451ZM7.44219 32.7487H17.4722C17.3247 31.8657 17.2141 30.9937 17.1403 30.1327C17.0666 29.2718 17.0297 28.3777 17.0297 27.4506C17.0297 26.5234 17.0666 25.6293 17.1403 24.7684C17.2141 23.9074 17.3247 23.0355 17.4722 22.1524H7.44219C7.19635 23.0355 7.01198 23.9074 6.88906 24.7684C6.76615 25.6293 6.70469 26.5234 6.70469 27.4506C6.70469 28.3777 6.76615 29.2718 6.88906 30.1327C7.01198 30.9937 7.19635 31.8657 7.44219 32.7487ZM23.3722 32.7487H37.2372C37.3847 31.8657 37.4953 30.9937 37.5691 30.1327C37.6428 29.2718 37.6797 28.3777 37.6797 27.4506C37.6797 26.5234 37.6428 25.6293 37.5691 24.7684C37.4953 23.9074 37.3847 23.0355 37.2372 22.1524H23.3722C23.2247 23.0355 23.1141 23.9074 23.0403 24.7684C22.9666 25.6293 22.9297 26.5234 22.9297 27.4506C22.9297 28.3777 22.9666 29.2718 23.0403 30.1327C23.1141 30.9937 23.2247 31.8657 23.3722 32.7487ZM43.1372 32.7487H53.1672C53.413 31.8657 53.5974 30.9937 53.7203 30.1327C53.8432 29.2718 53.9047 28.3777 53.9047 27.4506C53.9047 26.5234 53.8432 25.6293 53.7203 24.7684C53.5974 23.9074 53.413 23.0355 53.1672 22.1524H43.1372C43.2847 23.0355 43.3953 23.9074 43.4691 24.7684C43.5428 25.6293 43.5797 26.5234 43.5797 27.4506C43.5797 28.3777 43.5428 29.2718 43.4691 30.1327C43.3953 30.9937 43.2847 31.8657 43.1372 32.7487ZM41.9572 16.8543H50.6597C49.2339 14.6468 47.4516 12.7262 45.3128 11.0926C43.1741 9.45903 40.728 8.24488 37.9747 7.45016C38.8597 8.90714 39.6341 10.4193 40.2978 11.9867C40.9616 13.554 41.5147 15.1766 41.9572 16.8543ZM24.6997 16.8543H35.9097C35.3197 14.9117 34.5576 13.0794 33.6234 11.3575C32.6893 9.63563 31.583 7.97997 30.3047 6.39053C29.0264 7.97997 27.9201 9.63563 26.9859 11.3575C26.0518 13.0794 25.2897 14.9117 24.6997 16.8543ZM9.94969 16.8543H18.6522C19.0947 15.1766 19.6478 13.554 20.3116 11.9867C20.9753 10.4193 21.7497 8.90714 22.6347 7.45016C19.8814 8.24488 17.4353 9.45903 15.2966 11.0926C13.1578 12.7262 11.3755 14.6468 9.94969 16.8543Z" fill="#1C1B1F"/>
</svg>
