<svg width="358" height="422" viewBox="0 0 358 422" fill="none" xmlns="http://www.w3.org/2000/svg">
<path d="M0.5 19.1956C0.5 8.98198 8.58702 0.710354 18.7877 0.697189C55.5226 0.649779 139.86 0.548443 215.122 0.512756C252.753 0.494913 288.115 0.493482 314.122 0.52341C327.126 0.538374 337.791 0.561178 345.232 0.593687C348.952 0.609942 351.865 0.62862 353.862 0.649947C354.86 0.660613 355.628 0.671925 356.151 0.683885C356.308 0.687476 356.443 0.691101 356.554 0.694744C356.562 0.829105 356.57 0.997823 356.578 1.20152C356.602 1.81657 356.625 2.72771 356.646 3.92023C356.689 6.30415 356.727 9.80033 356.76 14.2739C356.825 23.2203 356.87 36.0694 356.9 51.7328C356.959 83.0593 356.954 125.64 356.916 170.764C356.84 261.012 356.633 361.433 356.543 402.342C356.52 412.539 348.248 420.722 338.045 420.722H19C8.78273 420.722 0.5 412.439 0.5 402.222V19.1956Z" fill="#D9D9D9" stroke="black"/>
</svg>
