<svg width="358" height="422" viewBox="0 0 358 422" fill="none" xmlns="http://www.w3.org/2000/svg">
<path d="M0.5 19.9734C0.5 9.75982 8.58702 1.48819 18.7877 1.47502C55.5226 1.42761 139.86 1.32627 215.122 1.29059C252.753 1.27274 288.115 1.27131 314.122 1.30124C327.126 1.31621 337.791 1.33901 345.232 1.37152C348.952 1.38777 351.865 1.40645 353.862 1.42778C354.86 1.43845 355.628 1.44976 356.151 1.46172C356.308 1.46531 356.443 1.46893 356.554 1.47258C356.562 1.60694 356.57 1.77566 356.578 1.97935C356.602 2.5944 356.625 3.50554 356.646 4.69806C356.689 7.08198 356.727 10.5782 356.76 15.0517C356.825 23.9982 356.87 36.8472 356.9 52.5106C356.959 83.8371 356.954 126.418 356.916 171.542C356.84 261.79 356.633 362.211 356.543 403.12C356.52 413.317 348.248 421.5 338.045 421.5H19C8.78273 421.5 0.5 413.217 0.5 403V19.9734Z" fill="#FCF3D2" stroke="black"/>
</svg>
