<svg width="34" height="38" viewBox="0 0 34 38" fill="none" xmlns="http://www.w3.org/2000/svg">
<path d="M34 4.48323C32.7494 5.24428 31.4062 5.75877 29.9939 5.99002C31.4353 4.80634 32.5395 2.93062 33.0608 0.698208C31.6917 1.81346 30.1932 2.5986 28.6306 3.01952C27.359 1.16059 25.5456 0 23.5394 0C19.6886 0 16.5656 4.28123 16.5656 9.56539C16.5656 10.3141 16.6271 11.0445 16.7453 11.7458C10.9485 11.3463 5.80918 7.53818 2.36919 1.75176C1.76852 3.16496 1.4247 4.80807 1.4247 6.56118C1.4247 9.87937 2.6562 12.807 4.52745 14.522C3.4197 14.4749 2.33627 14.0649 1.36771 13.3261V13.447C1.36771 18.0819 3.77157 21.9467 6.96254 22.8257C6.37636 23.0459 5.7612 23.161 5.12478 23.161C4.67482 23.161 4.23827 23.1026 3.81181 22.9926C4.6994 26.7916 7.2753 29.5569 10.3265 29.635C7.93944 32.2013 4.93158 33.7311 1.66472 33.7311C1.10204 33.7311 0.545933 33.685 0 33.5947C3.08717 36.3096 6.75268 37.8944 10.6917 37.8944C23.5204 37.8944 30.5365 23.3188 30.5365 10.6787C30.5365 10.2637 30.5299 9.85184 30.5153 9.44143C31.8822 8.08546 33.0622 6.40652 34 4.48323Z" fill="white"/>
</svg>
