<svg width="34" height="39" viewBox="0 0 34 39" fill="none" xmlns="http://www.w3.org/2000/svg">
<path d="M34 5.46931C32.7494 6.23036 31.4062 6.74485 29.9939 6.97611C31.4353 5.79242 32.5395 3.91671 33.0608 1.68429C31.6917 2.79955 30.1932 3.58469 28.6306 4.0056C27.359 2.14668 25.5456 0.986084 23.5394 0.986084C19.6886 0.986084 16.5656 5.26732 16.5656 10.5515C16.5656 11.3002 16.6271 12.0306 16.7453 12.7319C10.9485 12.3324 5.80918 8.52427 2.36919 2.73784C1.76852 4.15105 1.4247 5.79415 1.4247 7.54727C1.4247 10.8655 2.6562 13.7931 4.52745 15.5081C3.4197 15.461 2.33627 15.0509 1.36771 14.3122V14.433C1.36771 19.068 3.77157 22.9328 6.96254 23.8118C6.37636 24.032 5.7612 24.1471 5.12478 24.1471C4.67482 24.1471 4.23827 24.0887 3.81181 23.9787C4.6994 27.7777 7.2753 30.543 10.3265 30.6211C7.93944 33.1874 4.93158 34.7171 1.66472 34.7171C1.10204 34.7171 0.545933 34.6711 0 34.5808C3.08717 37.2956 6.75268 38.8805 10.6917 38.8805C23.5204 38.8805 30.5365 24.3049 30.5365 11.6648C30.5365 11.2498 30.5299 10.8379 30.5153 10.4275C31.8822 9.07155 33.0622 7.39261 34 5.46931Z" fill="white"/>
</svg>
