<svg width="29" height="36" viewBox="0 0 29 36" fill="none" xmlns="http://www.w3.org/2000/svg">
<path opacity="0.7" d="M28.2272 20.0394C28.722 20.5217 29 21.1756 29 21.8575C29 22.5393 28.722 23.1933 28.2272 23.6755L16.3501 35.2471C15.8551 35.7292 15.1839 36 14.4841 36C13.7842 36 13.113 35.7292 12.618 35.2471L0.740902 23.6755C0.26012 23.1905 -0.00591278 22.541 0.000101089 21.8667C0.00611496 21.1925 0.283693 20.5475 0.773052 20.0708C1.26241 19.594 1.9244 19.3236 2.61643 19.3177C3.30846 19.3118 3.97517 19.571 4.47296 20.0394L11.8447 27.0004L11.8447 2.57147C11.8447 1.88947 12.1228 1.23541 12.6178 0.753166C13.1127 0.270922 13.7841 0 14.4841 0C15.1841 0 15.8554 0.270922 16.3504 0.753166C16.8454 1.23541 17.1234 1.88947 17.1234 2.57147L17.1234 27.0004L24.4952 20.0394C24.9901 19.5574 25.6613 19.2866 26.3612 19.2866C27.0611 19.2866 27.7323 19.5574 28.2272 20.0394Z" fill="black"/>
</svg>
