<svg width="35" height="39" viewBox="0 0 35 39" fill="none" xmlns="http://www.w3.org/2000/svg">
<path d="M11.6681 19.9333C11.6681 16.4453 14.279 13.617 17.5007 13.617C20.7224 13.617 23.3347 16.4453 23.3347 19.9333C23.3347 23.4212 20.7224 26.2495 17.5007 26.2495C14.279 26.2495 11.6681 23.4212 11.6681 19.9333ZM8.5143 19.9333C8.5143 25.3067 12.5375 29.6624 17.5007 29.6624C22.4639 29.6624 26.4871 25.3067 26.4871 19.9333C26.4871 14.5599 22.4639 10.2041 17.5007 10.2041C12.5375 10.2041 8.5143 14.5599 8.5143 19.9333ZM24.7428 9.81835C24.7423 11.0741 25.6822 12.0924 26.842 12.0929C28.0019 12.0934 28.9425 11.0759 28.9429 9.82017C28.9434 8.56446 28.0035 7.5461 26.8437 7.5456C25.6844 7.54619 24.7438 8.56324 24.7428 9.81835ZM10.4304 35.3558C8.72417 35.2717 7.79677 34.964 7.18047 34.704C6.36339 34.3597 5.78041 33.9495 5.16747 33.2868C4.55452 32.6241 4.17511 31.9935 3.85841 31.1089C3.61816 30.442 3.33395 29.4376 3.25639 27.5904C3.17155 25.5932 3.15461 24.9932 3.15461 19.9334C3.15461 14.8736 3.17295 14.2753 3.25639 12.2765C3.33409 10.4292 3.6204 9.42683 3.85841 8.75792C4.17651 7.87331 4.55536 7.24214 5.16747 6.57854C5.77957 5.91493 6.36199 5.50415 7.18047 5.16129C7.79649 4.90118 8.72417 4.59348 10.4304 4.5095C12.2751 4.41765 12.8293 4.39931 17.5007 4.39931C22.1721 4.39931 22.7268 4.41916 24.5731 4.5095C26.2793 4.59363 27.2052 4.9036 27.823 5.16129C28.6401 5.50415 29.2231 5.91584 29.836 6.57854C30.449 7.24123 30.827 7.87331 31.1451 8.75792C31.3853 9.42486 31.6695 10.4292 31.7471 12.2765C31.832 14.2753 31.8489 14.8736 31.8489 19.9334C31.8489 24.9932 31.832 25.5915 31.7471 27.5904C31.6694 29.4376 31.3838 30.4417 31.1451 31.1089C30.827 31.9935 30.4481 32.6247 29.836 33.2868C29.2239 33.9489 28.6401 34.3597 27.823 34.704C27.207 34.9642 26.2793 35.2719 24.5731 35.3558C22.7284 35.4477 22.1742 35.466 17.5007 35.466C12.8272 35.466 12.2746 35.4477 10.4304 35.3558ZM10.2855 1.10083C8.42246 1.19268 7.14939 1.51251 6.0376 1.98089C4.8862 2.46457 3.91148 3.11347 2.93746 4.16633C1.96344 5.21919 1.36561 6.27614 0.918857 7.52271C0.486239 8.72715 0.190828 10.1047 0.105984 12.1217C0.0197408 14.142 0 14.7878 0 19.9333C0 25.0787 0.0197408 25.7246 0.105984 27.7448C0.190828 29.762 0.486239 31.1394 0.918857 32.3438C1.36561 33.5896 1.96358 34.6478 2.93746 35.7002C3.91134 36.7526 4.8862 37.4006 6.0376 37.8857C7.15149 38.354 8.42246 38.6739 10.2855 38.7657C12.1525 38.8576 12.7481 38.8805 17.5007 38.8805C22.2533 38.8805 22.8499 38.8591 24.7159 38.7657C26.5791 38.6739 27.8513 38.354 28.9638 37.8857C30.1145 37.4006 31.0899 36.7531 32.0639 35.7002C33.038 34.6474 33.6345 33.5896 34.0825 32.3438C34.5152 31.1394 34.812 29.7619 34.8954 27.7448C34.9803 25.7231 35 25.0787 35 19.9333C35 14.7878 34.9803 14.142 34.8954 12.1217C34.8106 10.1045 34.5152 8.72639 34.0825 7.52271C33.6345 6.2769 33.0364 5.22086 32.0639 4.16633C31.0915 3.11181 30.1145 2.46457 28.9652 1.98089C27.8513 1.51251 26.5789 1.19117 24.7173 1.10083C22.8513 1.00897 22.2547 0.986084 17.5021 0.986084C12.7495 0.986084 12.1525 1.00746 10.2855 1.10083Z" fill="white"/>
</svg>
