<svg width="23" height="20" viewBox="0 0 23 20" fill="none" xmlns="http://www.w3.org/2000/svg">
<path d="M12.4866 0.51334C12.787 0.184648 13.1945 0 13.6194 0C14.0442 0 14.4517 0.184648 14.7522 0.51334L21.9624 8.40315C22.2628 8.73194 22.4316 9.17782 22.4316 9.64273C22.4316 10.1076 22.2628 10.5535 21.9624 10.8823L14.7522 18.7721C14.45 19.0915 14.0452 19.2682 13.6251 19.2642C13.205 19.2602 12.8032 19.0758 12.5061 18.7508C12.209 18.4257 12.0405 17.9859 12.0368 17.5262C12.0332 17.0665 12.1947 16.6236 12.4866 16.293L16.8239 11.396L1.60228 11.396C1.17733 11.396 0.769782 11.2113 0.469297 10.8825C0.168811 10.5537 0 10.1077 0 9.64273C0 9.17772 0.168811 8.73177 0.469297 8.40296C0.769782 8.07416 1.17733 7.88944 1.60228 7.88944L16.8239 7.88944L12.4866 2.99249C12.1862 2.6637 12.0174 2.21783 12.0174 1.75292C12.0174 1.28801 12.1862 0.84213 12.4866 0.51334Z" fill="white"/>
</svg>
