<svg width="34" height="39" viewBox="0 0 34 39" fill="none" xmlns="http://www.w3.org/2000/svg">
<path d="M30.3571 0.986084H3.64286C2.67671 0.986084 1.75014 1.41384 1.06697 2.17526C0.3838 2.93668 0 3.96939 0 5.0462L0 34.8204C0 35.8972 0.3838 36.9299 1.06697 37.6913C1.75014 38.4527 2.67671 38.8805 3.64286 38.8805H14.0592V25.9972H9.2779V19.9333H14.0592V15.3115C14.0592 10.0545 16.8672 7.15069 21.168 7.15069C23.2278 7.15069 25.3816 7.56008 25.3816 7.56008V12.7198H23.0084C20.6702 12.7198 19.9408 14.3371 19.9408 15.9958V19.9333H25.1608L24.3259 25.9972H19.9408V38.8805H30.3571C31.3233 38.8805 32.2499 38.4527 32.933 37.6913C33.6162 36.9299 34 35.8972 34 34.8204V5.0462C34 3.96939 33.6162 2.93668 32.933 2.17526C32.2499 1.41384 31.3233 0.986084 30.3571 0.986084Z" fill="#FFFBFB"/>
</svg>
