<svg width="35" height="38" viewBox="0 0 35 38" fill="none" xmlns="http://www.w3.org/2000/svg">
<path d="M11.6681 18.9472C11.6681 15.4592 14.279 12.631 17.5007 12.631C20.7224 12.631 23.3347 15.4592 23.3347 18.9472C23.3347 22.4351 20.7224 25.2634 17.5007 25.2634C14.279 25.2634 11.6681 22.4351 11.6681 18.9472ZM8.5143 18.9472C8.5143 24.3206 12.5375 28.6763 17.5007 28.6763C22.4639 28.6763 26.4871 24.3206 26.4871 18.9472C26.4871 13.5738 22.4639 9.21803 17.5007 9.21803C12.5375 9.21803 8.5143 13.5738 8.5143 18.9472ZM24.7428 8.83227C24.7423 10.088 25.6822 11.1063 26.842 11.1068C28.0019 11.1073 28.9425 10.0898 28.9429 8.83409C28.9434 7.57838 28.0035 6.56002 26.8437 6.55952C25.6844 6.5601 24.7438 7.57716 24.7428 8.83227ZM10.4304 34.3697C8.72417 34.2856 7.79677 33.9779 7.18047 33.718C6.36339 33.3736 5.78041 32.9634 5.16747 32.3007C4.55452 31.638 4.17511 31.0075 3.85841 30.1228C3.61816 29.4559 3.33395 28.4516 3.25639 26.6043C3.17155 24.6071 3.15461 24.0072 3.15461 18.9473C3.15461 13.8875 3.17295 13.2893 3.25639 11.2904C3.33409 9.44313 3.6204 8.44075 3.85841 7.77183C4.17651 6.88723 4.55536 6.25606 5.16747 5.59245C5.77957 4.92885 6.36199 4.51807 7.18047 4.1752C7.79649 3.9151 8.72417 3.60739 10.4304 3.52342C12.2751 3.43156 12.8293 3.41322 17.5007 3.41322C22.1721 3.41322 22.7268 3.43308 24.5731 3.52342C26.2793 3.60754 27.2052 3.91752 27.823 4.1752C28.6401 4.51807 29.2231 4.92976 29.836 5.59245C30.449 6.25515 30.827 6.88723 31.1451 7.77183C31.3853 8.43878 31.6695 9.44313 31.7471 11.2904C31.832 13.2893 31.8489 13.8875 31.8489 18.9473C31.8489 24.0072 31.832 24.6054 31.7471 26.6043C31.6694 28.4516 31.3838 29.4556 31.1451 30.1228C30.827 31.0075 30.4481 31.6386 29.836 32.3007C29.2239 32.9628 28.6401 33.3736 27.823 33.718C27.207 33.9781 26.2793 34.2858 24.5731 34.3697C22.7284 34.4616 22.1742 34.4799 17.5007 34.4799C12.8272 34.4799 12.2746 34.4616 10.4304 34.3697ZM10.2855 0.114744C8.42246 0.2066 7.14939 0.526429 6.0376 0.994803C4.8862 1.47849 3.91148 2.12739 2.93746 3.18025C1.96344 4.23311 1.36561 5.29006 0.918857 6.53663C0.486239 7.74106 0.190828 9.1186 0.105984 11.1356C0.0197408 13.1559 0 13.8017 0 18.9472C0 24.0926 0.0197408 24.7385 0.105984 26.7587C0.190828 28.7759 0.486239 30.1533 0.918857 31.3577C1.36561 32.6036 1.96358 33.6617 2.93746 34.7141C3.91134 35.7665 4.8862 36.4145 6.0376 36.8996C7.15149 37.368 8.42246 37.6878 10.2855 37.7796C12.1525 37.8715 12.7481 37.8944 17.5007 37.8944C22.2533 37.8944 22.8499 37.873 24.7159 37.7796C26.5791 37.6878 27.8513 37.368 28.9638 36.8996C30.1145 36.4145 31.0899 35.767 32.0639 34.7141C33.038 33.6613 33.6345 32.6036 34.0825 31.3577C34.5152 30.1533 34.812 28.7758 34.8954 26.7587C34.9803 24.737 35 24.0926 35 18.9472C35 13.8017 34.9803 13.1559 34.8954 11.1356C34.8106 9.11845 34.5152 7.74031 34.0825 6.53663C33.6345 5.29081 33.0364 4.23477 32.0639 3.18025C31.0915 2.12572 30.1145 1.47849 28.9652 0.994803C27.8513 0.526429 26.5789 0.205084 24.7173 0.114744C22.8513 0.0228882 22.2547 0 17.5021 0C12.7495 0 12.1525 0.0213724 10.2855 0.114744Z" fill="white"/>
</svg>
