<svg width="27" height="22" viewBox="0 0 27 22" fill="none" xmlns="http://www.w3.org/2000/svg">
<path d="M15.0296 0.579577C15.3913 0.208474 15.8817 0 16.3931 0C16.9045 0 17.395 0.208474 17.7566 0.579577L26.4353 9.48743C26.7969 9.85864 27 10.3621 27 10.887C27 11.4118 26.7969 11.9153 26.4353 12.2865L17.7566 21.1943C17.3929 21.5549 16.9057 21.7544 16.4 21.7499C15.8944 21.7454 15.4107 21.5372 15.0531 21.1702C14.6955 20.8032 14.4927 20.3067 14.4883 19.7877C14.4839 19.2687 14.6783 18.7686 15.0296 18.3953L20.2503 12.8665L1.9286 12.8665C1.4171 12.8665 0.926557 12.6579 0.564874 12.2867C0.203191 11.9155 0 11.412 0 10.887C0 10.3619 0.203191 9.85845 0.564874 9.48722C0.926557 9.11598 1.4171 8.90743 1.9286 8.90743L20.2503 8.90743L15.0296 3.37862C14.668 3.00741 14.4649 2.504 14.4649 1.9791C14.4649 1.4542 14.668 0.950792 15.0296 0.579577Z" fill="white"/>
</svg>
