<svg width="36" height="39" viewBox="0 0 36 39" fill="none" xmlns="http://www.w3.org/2000/svg">
<path d="M12.5108 19.9333C12.5108 16.4453 15.1218 13.617 18.3435 13.617C21.5651 13.617 24.1775 16.4453 24.1775 19.9333C24.1775 23.4212 21.5651 26.2495 18.3435 26.2495C15.1218 26.2495 12.5108 23.4212 12.5108 19.9333ZM9.35707 19.9333C9.35707 25.3067 13.3803 29.6624 18.3435 29.6624C23.3067 29.6624 27.3299 25.3067 27.3299 19.9333C27.3299 14.5599 23.3067 10.2041 18.3435 10.2041C13.3803 10.2041 9.35707 14.5599 9.35707 19.9333ZM25.5855 9.81835C25.5851 11.0741 26.5249 12.0924 27.6848 12.0929C28.8446 12.0934 29.7852 11.0759 29.7857 9.82017C29.7862 8.56446 28.8463 7.5461 27.6865 7.5456C26.5272 7.54619 25.5865 8.56324 25.5855 9.81835ZM11.2732 35.3558C9.56694 35.2717 8.63955 34.964 8.02324 34.704C7.20617 34.3597 6.62318 33.9495 6.01024 33.2868C5.3973 32.6241 5.01788 31.9935 4.70119 31.1089C4.46094 30.442 4.17673 29.4376 4.09916 27.5904C4.01432 25.5932 3.99738 24.9932 3.99738 19.9334C3.99738 14.8736 4.01572 14.2753 4.09916 12.2765C4.17687 10.4292 4.46318 9.42683 4.70119 8.75792C5.01928 7.87331 5.39814 7.24214 6.01024 6.57854C6.62234 5.91493 7.20477 5.50415 8.02324 5.16129C8.63927 4.90118 9.56694 4.59348 11.2732 4.5095C13.1179 4.41765 13.672 4.39931 18.3435 4.39931C23.0149 4.39931 23.5696 4.41916 25.4159 4.5095C27.1221 4.59363 28.048 4.9036 28.6658 5.16129C29.4829 5.50415 30.0659 5.91584 30.6788 6.57854C31.2918 7.24123 31.6698 7.87331 31.9879 8.75792C32.2281 9.42486 32.5123 10.4292 32.5899 12.2765C32.6747 14.2753 32.6917 14.8736 32.6917 19.9334C32.6917 24.9932 32.6747 25.5915 32.5899 27.5904C32.5122 29.4376 32.2266 30.4417 31.9879 31.1089C31.6698 31.9935 31.2909 32.6247 30.6788 33.2868C30.0667 33.9489 29.4829 34.3597 28.6658 34.704C28.0498 34.9642 27.1221 35.2719 25.4159 35.3558C23.5711 35.4477 23.017 35.466 18.3435 35.466C13.6699 35.466 13.1173 35.4477 11.2732 35.3558ZM11.1283 1.10083C9.26523 1.19268 7.99216 1.51251 6.88037 1.98089C5.72897 2.46457 4.75425 3.11347 3.78023 4.16633C2.80621 5.21919 2.20839 6.27614 1.76163 7.52271C1.32901 8.72715 1.0336 10.1047 0.948758 12.1217C0.862514 14.142 0.842773 14.7878 0.842773 19.9333C0.842773 25.0787 0.862514 25.7246 0.948758 27.7448C1.0336 29.762 1.32901 31.1394 1.76163 32.3438C2.20839 33.5896 2.80635 34.6478 3.78023 35.7002C4.75411 36.7526 5.72897 37.4006 6.88037 37.8857C7.99426 38.354 9.26523 38.6739 11.1283 38.7657C12.9953 38.8576 13.5908 38.8805 18.3435 38.8805C23.0961 38.8805 23.6927 38.8591 25.5587 38.7657C27.4219 38.6739 28.6941 38.354 29.8066 37.8857C30.9573 37.4006 31.9327 36.7531 32.9067 35.7002C33.8807 34.6474 34.4773 33.5896 34.9253 32.3438C35.3579 31.1394 35.6547 29.7619 35.7382 27.7448C35.823 25.7231 35.8428 25.0787 35.8428 19.9333C35.8428 14.7878 35.823 14.142 35.7382 12.1217C35.6533 10.1045 35.3579 8.72639 34.9253 7.52271C34.4773 6.2769 33.8792 5.22086 32.9067 4.16633C31.9342 3.11181 30.9573 2.46457 29.808 1.98089C28.6941 1.51251 27.4217 1.19117 25.5601 1.10083C23.6941 1.00897 23.0975 0.986084 18.3449 0.986084C13.5922 0.986084 12.9953 1.00746 11.1283 1.10083Z" fill="white"/>
</svg>
