<svg width="34" height="38" viewBox="0 0 34 38" fill="none" xmlns="http://www.w3.org/2000/svg">
<path d="M30.3571 0H3.64286C2.67671 0 1.75014 0.427761 1.06697 1.18918C0.3838 1.9506 0 2.9833 0 4.06011L0 33.8343C0 34.9111 0.3838 35.9438 1.06697 36.7052C1.75014 37.4666 2.67671 37.8944 3.64286 37.8944H14.0592V25.0111H9.2779V18.9472H14.0592V14.3254C14.0592 9.06843 16.8672 6.1646 21.168 6.1646C23.2278 6.1646 25.3816 6.574 25.3816 6.574V11.7337H23.0084C20.6702 11.7337 19.9408 13.351 19.9408 15.0097V18.9472H25.1608L24.3259 25.0111H19.9408V37.8944H30.3571C31.3233 37.8944 32.2499 37.4666 32.933 36.7052C33.6162 35.9438 34 34.9111 34 33.8343V4.06011C34 2.9833 33.6162 1.9506 32.933 1.18918C32.2499 0.427761 31.3233 0 30.3571 0Z" fill="#FFFBFB"/>
</svg>
