<svg width="27" height="28" viewBox="0 0 27 28" fill="none" xmlns="http://www.w3.org/2000/svg">
<path d="M22.4947 19.6795C22.4947 19.5852 22.4947 19.4595 22.4632 19.3967C22.3687 19.0825 19.7853 17.7629 19.3127 17.4801C18.9662 17.2916 18.5566 16.9145 18.1785 16.9145C17.3909 16.9145 16.2567 19.2082 15.5636 19.2082C15.217 19.2082 14.776 18.894 14.4609 18.7055C12.1295 17.4172 10.5228 15.8148 9.23104 13.5212C9.04201 13.207 8.72695 12.7671 8.72695 12.4215C8.72695 11.7302 11.0268 10.5991 11.0268 9.81362C11.0268 9.40516 10.6488 8.9967 10.4597 8.6825C10.1762 8.17978 8.88448 5.63477 8.56943 5.50909C8.47491 5.47767 8.3804 5.47767 8.28588 5.47767C7.8133 5.47767 6.93116 5.69761 6.52159 5.85471C5.35589 6.38885 4.50525 8.58824 4.50525 9.81362C4.50525 10.9762 4.97783 12.0444 5.3874 13.1441C6.77363 16.9774 10.9638 21.1562 14.8075 22.5701C15.9102 22.9786 16.9813 23.4499 18.1785 23.4499C19.3757 23.4499 21.5811 22.6015 22.1167 21.439C22.3057 21.0305 22.4947 20.1194 22.4947 19.6795ZM27 6.04323V22.8843C27 25.6807 24.7316 27.9429 21.9277 27.9429H5.07235C2.26838 27.9429 0 25.6807 0 22.8843V6.04323C0 3.24685 2.26838 0.984619 5.07235 0.984619H21.9277C24.7316 0.984619 27 3.24685 27 6.04323Z" fill="black"/>
</svg>
